<svg width="81" height="81" viewBox="0 0 81 81" fill="none" xmlns="http://www.w3.org/2000/svg">
<g clip-path="url(#clip0_6511_680)">
<g clip-path="url(#clip1_6511_680)">
<g clip-path="url(#clip2_6511_680)">
<mask id="mask0_6511_680" style="mask-type:luminance" maskUnits="userSpaceOnUse" x="0" y="0" width="81" height="81">
<path d="M80.4375 0.876465H0.4375V80.8765H80.4375V0.876465Z" fill="white"/>
</mask>
<g mask="url(#mask0_6511_680)">
<path d="M64.9375 36.3765H34.9375V38.3765L35.4375 39.3765L37.9375 41.8765L39.9375 42.8765L40.9375 44.3765L40.4375 46.3765L36.9375 47.8765L34.9375 51.3765L34.4375 61.8765L35.9375 73.3765L36.9375 76.8765L38.9375 78.8765C39.4375 79.0432 40.6375 79.3765 41.4375 79.3765C42.4375 79.3765 46.9375 79.8765 47.9375 79.8765H53.4375H56.9375L55.9375 77.8765C55.6042 77.0432 54.9375 75.0765 54.9375 73.8765C54.9375 72.6765 54.6042 69.3765 54.4375 67.8765V60.3765C54.4375 59.5765 55.4375 53.7098 55.9375 50.8765V49.3765C55.9375 48.8765 57.4375 48.8765 57.9375 48.3765C58.4375 47.8765 59.9375 47.8765 60.4375 47.8765C60.9375 47.8765 62.4375 47.3765 62.9375 47.3765C63.4375 47.3765 62.4375 46.8765 61.9375 46.3765C61.4375 45.8765 61.9375 45.8765 61.9375 45.3765C61.9375 44.8765 61.9375 43.8765 61.4375 43.3765C61.0375 42.9765 62.2708 42.2098 62.9375 41.8765C63.4375 41.7098 64.4375 41.2765 64.4375 40.8765C64.4375 40.4765 65.4375 40.0432 65.9375 39.8765L66.9375 38.3765V36.8765L64.9375 36.3765Z" fill="#FDC040"/>
<path d="M7.99414 62.4693C7.99414 64.974 10.0318 67.0117 12.5364 67.0117C15.041 67.0117 17.0787 64.974 17.0787 62.4693C17.0787 59.9646 15.041 57.927 12.5364 57.927C10.0318 57.927 7.99414 59.9646 7.99414 62.4693ZM14.7351 62.4693C14.7351 63.6817 13.7489 64.6679 12.5365 64.6679C11.3242 64.6679 10.3381 63.6817 10.3381 62.4693C10.3381 61.257 11.3243 60.2707 12.5365 60.2707C13.7487 60.2707 14.7351 61.2571 14.7351 62.4693Z" fill="#3BB77E"/>
<path d="M18.3124 56.2079C20.2843 56.2079 21.8886 54.6036 21.8886 52.6318C21.8886 50.6599 20.2843 49.0557 18.3124 49.0557C16.3405 49.0557 14.7363 50.6599 14.7363 52.6318C14.7363 54.6036 16.3405 56.2079 18.3124 56.2079ZM18.3124 51.3993C18.9921 51.3993 19.5449 51.9521 19.5449 52.6316C19.5449 53.3111 18.9921 53.864 18.3124 53.864C17.6329 53.864 17.08 53.3111 17.08 52.6316C17.08 51.9521 17.633 51.3993 18.3124 51.3993Z" fill="#3BB77E"/>
<path d="M30.7834 70.8739C30.7834 68.902 29.179 67.2979 27.2071 67.2979C25.2353 67.2979 23.6309 68.902 23.6309 70.8739C23.6309 72.8457 25.2353 74.4501 27.2071 74.4501C29.179 74.4501 30.7834 72.8457 30.7834 70.8739ZM25.9748 70.8739C25.9748 70.1943 26.5276 69.6415 27.2073 69.6415C27.887 69.6415 28.4398 70.1943 28.4398 70.8739C28.4398 71.5534 27.887 72.1062 27.2073 72.1062C26.5276 72.1062 25.9748 71.5534 25.9748 70.8739Z" fill="#3BB77E"/>
<path d="M77.936 51.1027C77.5985 48.6479 75.4779 46.7968 73.0034 46.7968H72.1732L72.9731 44.7168C73.2054 44.1128 72.904 43.4346 72.2998 43.2024C71.6956 42.9699 71.0176 43.2717 70.7856 43.8756L69.6623 46.7968H64.7856C64.6204 46.7176 64.4532 46.6432 64.2829 46.5796C63.0646 46.1256 62.447 45.4182 62.447 44.4777C62.447 43.6013 63.9287 42.8904 64.5668 42.6249C66.4601 41.8349 67.8171 40.164 68.1968 38.1543C68.9834 33.9812 69.3406 29.5162 69.4837 27.2246C69.5565 26.0346 69.2871 24.8704 68.7048 23.8579C65.6454 18.5385 60.1035 14.9165 58.2501 13.8078V10.0602H58.3112C58.9585 10.0602 59.4831 9.53552 59.4831 8.88834V4.67443C59.4831 2.58021 57.7792 0.876465 55.6849 0.876465H46.404C44.3099 0.876465 42.606 2.58021 42.606 4.67443V8.88834C42.606 9.53552 43.1306 10.0602 43.7779 10.0602H43.8393V13.8073C42.6431 14.5228 39.9103 16.2863 37.3003 18.876V18.0538C38.6351 17.3317 39.5439 15.9188 39.5439 14.2976C39.5439 11.9443 37.6293 10.0299 35.276 10.0299H16.7596C14.4064 10.0299 12.492 11.9445 12.492 14.2976C12.492 15.9192 13.4012 17.3323 14.7365 18.0543V21.6398C13.1324 22.5756 8.77483 25.3571 4.93608 29.9685C4.24639 30.7993 3.80686 31.8074 3.66499 32.8845C3.4742 34.3338 3.18827 36.7001 2.90983 39.7413C2.85077 40.3859 3.32545 40.9562 3.96999 41.0152C4.00624 41.0185 4.04233 41.0203 4.07811 41.0203C4.67702 41.0203 5.18811 40.5634 5.24374 39.9551C5.51874 36.952 5.80045 34.6187 5.98858 33.1906C6.04983 32.7259 6.20514 32.2838 6.44139 31.8887H32.9982C33.2049 33.8381 33.4937 36.0346 33.8923 38.1535C34.2701 40.1632 35.6273 41.8348 37.5235 42.6252C38.1601 42.8901 39.6407 43.6007 39.6407 44.4776C39.6407 45.4185 39.0237 46.1257 37.8059 46.5798C35.6192 47.3965 34.0774 49.4112 33.8781 51.7121C33.4168 57.0198 33.0745 67.2902 35.9654 76.4412C36.2089 77.2123 36.5885 77.9092 37.0723 78.5107C36.8473 78.5245 36.6218 78.5329 36.3954 78.5329H15.6393C9.97374 78.5329 5.21061 74.1149 4.79561 68.4751C4.25967 61.1903 4.28545 53.1573 4.87249 44.5992C4.9167 43.9534 4.4292 43.3942 3.78358 43.3498C3.13842 43.3051 2.57842 43.7929 2.5342 44.4387C1.93967 53.1071 1.91405 61.252 2.45827 68.647C2.70358 71.9826 4.19092 75.0731 6.64624 77.3495C9.09936 79.6238 12.2932 80.8765 15.6393 80.8765H36.3956C37.5279 80.8765 38.6489 80.7327 39.7346 80.4503C40.4532 80.726 41.2314 80.8757 42.0393 80.8757L73.0034 80.8765C75.4779 80.8765 77.5985 79.0254 77.936 76.5704C79.0976 68.1209 79.0976 59.5524 77.936 51.1027ZM76.3542 68.2652C75.4207 68.8363 74.3587 69.1367 73.2517 69.1367C69.9674 69.1367 67.2956 66.4654 67.2956 63.1821C67.2956 59.8979 69.9676 57.2259 73.2517 57.2259C74.3285 57.2259 75.364 57.5101 76.2771 58.0507C76.4932 61.452 76.5196 64.8621 76.3542 68.2652ZM67.1445 27.0798C67.0326 28.8706 66.7868 32.0209 66.3017 35.284H35.7884C35.304 32.0238 35.0565 28.8721 34.9434 27.0812C34.8987 26.3499 35.0618 25.6399 35.416 25.0259C35.559 24.7773 35.7089 24.5327 35.864 24.2918H66.2248C66.3801 24.5327 66.5301 24.7774 66.6731 25.026C67.0262 25.6398 67.189 26.3504 67.1445 27.0798ZM17.0803 18.5654H34.9565V21.1543H17.0803V18.5654ZM44.9498 4.67443C44.9498 3.87255 45.6021 3.22021 46.404 3.22021H55.6849C56.4868 3.22021 57.1393 3.87255 57.1393 4.67443V7.71646H44.9498V4.67443ZM55.9064 10.0602V13.3132H46.1831V10.0602H55.9064ZM45.3201 15.657H56.769C57.7584 16.2349 61.4768 18.5271 64.4523 21.9482H37.6365C40.612 18.5265 44.3318 16.2342 45.3201 15.657ZM16.7596 12.3737H35.276C36.337 12.3737 37.2001 13.2368 37.2001 14.2976C37.2001 15.3581 36.3378 16.2207 35.2774 16.2215H16.7581C15.6978 16.2207 14.8356 15.3579 14.8356 14.2976C14.8356 13.2368 15.6987 12.3737 16.7596 12.3737ZM8.4742 29.5449C11.856 26.0779 15.2857 24.0215 16.2098 23.4984H33.5982C33.5265 23.6171 33.4546 23.7356 33.3854 23.856C32.8015 24.8679 32.5314 26.0326 32.6043 27.2267C32.6439 27.8534 32.6998 28.6437 32.7757 29.5449H8.4742ZM73.0034 78.5327H60.0501L59.2284 78.532C57.9256 78.5242 56.8113 77.5467 56.6332 76.2513C56.4487 74.9081 56.2935 73.5562 56.172 72.2332C56.1126 71.5888 55.5423 71.1135 54.8978 71.1735C54.2532 71.2327 53.7788 71.8032 53.8381 72.4478C53.9629 73.8054 54.1221 75.1923 54.3113 76.5704C54.4098 77.286 54.6606 77.9498 55.0267 78.5318H42.0393C40.2714 78.5318 38.7287 77.4079 38.2006 75.7351C35.4318 66.9707 35.767 57.049 36.2131 51.9145C36.3348 50.5095 37.282 49.2773 38.6253 48.7754C40.7601 47.9795 41.9845 46.4129 41.9845 44.4774C41.9845 43.321 41.3668 41.6854 38.4246 40.4615C37.2604 39.9762 36.4271 38.9515 36.1957 37.7203C36.1899 37.6895 36.1843 37.6584 36.1787 37.6276H65.9107C65.9051 37.6581 65.8995 37.6888 65.8937 37.7193C65.6609 38.9512 64.8274 39.9763 63.6653 40.4612C60.7209 41.686 60.1029 43.3213 60.1029 44.4776C60.1029 45.3348 60.3443 46.1192 60.7976 46.7968H59.2437C56.7692 46.7968 54.6485 48.6479 54.311 51.1026C53.5546 56.5953 53.289 62.1918 53.5213 67.7365C53.5485 68.3832 54.101 68.8846 54.7412 68.8582C55.3879 68.8312 55.8903 68.2849 55.8631 67.6384C55.6367 62.2329 55.8956 56.777 56.6329 51.4221C56.812 50.1215 57.9343 49.1406 59.2439 49.1406H73.0034C74.3129 49.1406 75.4353 50.1215 75.6143 51.422C75.7949 52.7356 75.9434 54.0524 76.0664 55.371C75.1724 55.0488 74.224 54.8821 73.2517 54.8821C68.6751 54.8821 64.9518 58.6054 64.9518 63.1821C64.9518 67.7579 68.6751 71.4804 73.2517 71.4804C74.2667 71.4804 75.2546 71.2993 76.1824 70.9488C76.0438 72.7199 75.8567 74.4882 75.6143 76.251C75.4353 77.5518 74.3129 78.5327 73.0034 78.5327Z" fill="#3BB77E"/>
</g>
</g>
</g>
</g>
<defs>
<clipPath id="clip0_6511_680">
<rect x="0.4375" y="0.876465" width="80" height="80" rx="10" fill="white"/>
</clipPath>
<clipPath id="clip1_6511_680">
<rect width="80" height="80" fill="white" transform="translate(0.4375 0.876465)"/>
</clipPath>
<clipPath id="clip2_6511_680">
<rect width="80" height="80" fill="white" transform="translate(0.4375 0.876465)"/>
</clipPath>
</defs>
</svg>
