<svg width="81" height="81" viewBox="0 0 81 81" fill="none" xmlns="http://www.w3.org/2000/svg">
<g clip-path="url(#clip0_6511_736)">
<g clip-path="url(#clip1_6511_736)">
<g clip-path="url(#clip2_6511_736)">
<mask id="mask0_6511_736" style="mask-type:luminance" maskUnits="userSpaceOnUse" x="0" y="0" width="81" height="81">
<path d="M80.4375 0.876465H0.4375V80.8765H80.4375V0.876465Z" fill="white"/>
</mask>
<g mask="url(#mask0_6511_736)">
<path d="M52.9375 51.3765L50.9375 55.8765L52.4375 58.8765V60.3765L52.9375 62.3765C53.6042 62.7098 55.0375 63.3765 55.4375 63.3765C55.8375 63.3765 56.9375 63.7098 57.4375 63.8765C57.4375 64.3765 57.3375 65.4765 56.9375 65.8765C56.5375 66.2765 55.7708 66.3765 55.4375 66.3765C55.1042 67.0432 54.4375 68.4765 54.4375 68.8765C54.4375 69.3765 53.9375 70.8765 53.9375 71.3765C53.9375 71.7765 52.9375 73.5432 52.4375 74.3765L52.9375 78.8765C54.4375 79.0432 57.5375 79.3765 57.9375 79.3765H65.9375C68.6042 78.5432 73.9375 76.7765 73.9375 76.3765C73.9375 75.9765 75.9375 75.2098 76.9375 74.8765L78.9375 70.8765L76.9375 66.3765L71.4375 55.3765L70.4375 54.8765C69.7708 55.0432 68.3375 55.2765 67.9375 54.8765C67.4375 54.3765 65.9375 54.3765 65.9375 53.8765C65.9375 53.3765 64.9375 53.3765 64.9375 52.8765C64.9375 52.3765 64.4375 51.8765 64.4375 51.3765V49.3765C64.4375 48.8765 64.9375 48.3765 64.9375 47.8765C64.9375 47.4765 65.9375 47.0432 66.4375 46.8765V45.3765C66.1042 44.7098 65.4375 43.2765 65.4375 42.8765C65.4375 42.3765 63.9375 41.3765 63.4375 41.3765C62.9375 41.3765 61.4375 40.8765 60.9375 40.8765C60.5375 40.8765 59.1042 41.5432 58.4375 41.8765L56.4375 45.3765L52.9375 51.3765Z" fill="#FDC040"/>
<path d="M32.9375 30.8765L24.4375 30.3765L23.9375 32.3765V36.8765L24.4375 43.8765C24.9375 44.0432 26.1375 44.4765 26.9375 44.8765C27.9375 45.3765 30.9375 44.8765 31.4375 44.8765C31.9375 44.8765 38.4375 44.3765 38.9375 43.8765C39.4375 43.3765 39.9375 42.3765 40.4375 41.8765C40.9375 41.3765 40.9375 39.8765 40.9375 39.3765V35.3765C40.9375 34.3765 40.4375 32.8765 40.4375 32.3765C40.4375 31.9765 39.4375 31.2098 38.9375 30.8765H32.9375Z" fill="#FDC040"/>
<path d="M79.9246 69.0017L72.1245 53.4827C71.9598 53.1551 71.6512 52.9234 71.2907 52.8566C70.9301 52.7899 70.559 52.8959 70.2881 53.1429C69.7373 53.6449 69.0204 53.9215 68.2698 53.9215C66.6112 53.9215 65.2619 52.5715 65.2619 50.9121C65.2619 49.4783 66.2816 48.2371 67.6868 47.9603C68.0462 47.8896 68.3518 47.6549 68.5129 47.326C68.674 46.997 68.672 46.6117 68.5076 46.2844L66.5434 42.3745C65.6008 40.5004 63.7121 39.3362 61.6144 39.336C61.6142 39.336 61.6146 39.336 61.6144 39.336C61.4116 39.336 61.2113 39.3501 61.013 39.3715C60.9616 36.4766 60.887 33.578 60.7881 30.734C60.6889 27.8607 59.8441 25.0543 58.3447 22.618C58.0054 22.0667 57.2836 21.8949 56.7325 22.2343C56.1814 22.5735 56.0095 23.2954 56.3487 23.8465C57.6354 25.9373 58.3606 28.347 58.4458 30.8153C58.5531 33.8955 58.6319 37.0402 58.6829 40.1745C57.8462 40.6987 57.1504 41.449 56.6854 42.3732L50.9521 53.781C48.7325 50.3316 45.6248 47.6558 41.9993 47.6558C35.6755 47.6558 30.9265 55.795 29.7206 61.9836H29.6448C29.0264 58.8101 27.4762 55.1246 25.2597 52.2857C25.2438 50.0527 25.2435 47.8095 25.2571 45.5617C26.4679 45.5858 27.6815 45.6016 28.8984 45.6016C31.939 45.6016 34.992 45.5267 38.0208 45.3776C40.0741 45.2766 41.7406 43.7215 41.9834 41.6801C42.3112 38.9235 42.3112 36.128 41.9834 33.3714C41.7406 31.33 40.0743 29.775 38.0215 29.674C33.9231 29.4725 29.7728 29.4082 25.6643 29.4798C26.2752 24.6687 29.2564 20.5313 33.6903 18.4375H50.3102C51.4757 18.9878 52.5633 19.6947 53.5445 20.5455C53.7662 20.7378 54.0395 20.832 54.3116 20.832C54.6397 20.832 54.9659 20.6952 55.1976 20.428C55.6215 19.9391 55.5689 19.1989 55.0799 18.7748C54.552 18.317 53.996 17.8965 53.4182 17.5109C54.4316 16.7151 55.0846 15.48 55.0846 14.0945C55.0846 12.1057 53.7405 10.4261 51.9135 9.91329V5.76918C51.913 3.07134 49.7183 0.876465 47.0203 0.876465H36.9794C34.2816 0.876465 32.0867 3.07134 32.0867 5.76918V9.9136C30.2595 10.4264 28.9154 12.106 28.9154 14.0948C28.9154 15.4801 29.5681 16.715 30.5812 17.5108C28.812 18.6908 27.2771 20.205 26.0682 21.9814C24.308 24.5679 23.3203 27.5946 23.2121 30.734C22.9922 37.0785 22.8889 43.4918 22.9033 49.8394C21.263 48.4958 19.3958 47.656 17.3659 47.656C14.5165 47.656 11.6332 49.4005 9.24706 52.5682C8.85752 53.0851 8.96096 53.8199 9.478 54.2093C9.99503 54.5988 10.7297 54.4954 11.1191 53.9784C12.2385 52.4924 14.5385 49.9997 17.3661 49.9997C19.5684 49.9997 21.882 51.5421 23.881 54.3424C25.4638 56.56 26.6779 59.3342 27.2532 61.9838H7.47766C7.77704 60.6088 8.25314 59.1839 8.88065 57.7969C9.14737 57.2072 8.88565 56.5129 8.29595 56.2461C7.70641 55.9793 7.01203 56.2411 6.74515 56.8308C5.97561 58.5319 5.41279 60.2931 5.08873 61.9836H3.47965C1.80322 61.9836 0.439453 63.3474 0.439453 65.0238C0.439453 66.7001 1.80338 68.064 3.47965 68.064H4.05559C4.25012 69.8593 4.5781 71.6486 4.89888 73.3883C5.12748 74.628 5.36389 75.91 5.54358 77.1594C5.78702 78.8465 7.13578 80.1591 8.82424 80.3518C11.8968 80.701 14.6299 80.8757 17.3642 80.8757C20.0944 80.8757 22.8257 80.7017 25.8958 80.3534C26.4562 80.2896 26.9776 80.1015 27.4356 79.8201C28.6315 80.5131 29.979 80.8762 31.382 80.8762H42.0009L41.9979 80.8754C44.7329 80.8756 47.4675 80.701 50.5416 80.3517C51.3557 80.2588 52.0893 79.9037 52.6598 79.3735C55.5592 80.3745 58.5751 80.8665 61.5777 80.8665C67.6846 80.8665 73.7336 78.8379 78.6208 74.9514C80.398 73.5394 80.9465 71.0372 79.9246 69.0017ZM34.4305 5.76918C34.4305 4.3637 35.5739 3.22024 36.9794 3.22024H47.0203C48.4258 3.22024 49.5692 4.3637 49.5692 5.76918V9.75156H34.4305V5.76918ZM33.2586 12.0954H50.7411C51.8437 12.0954 52.7404 12.9923 52.7404 14.0946C52.7404 15.1971 51.8435 16.094 50.7411 16.094H33.2586C32.1561 16.094 31.2592 15.1971 31.2592 14.0946C31.2592 12.9923 32.1562 12.0954 33.2586 12.0954ZM37.906 32.0153C38.8126 32.0598 39.5485 32.7467 39.6557 33.6484C39.9616 36.2214 39.9616 38.8307 39.6557 41.4035C39.5485 42.3053 38.8124 42.9923 37.9054 43.0368C33.7092 43.2434 29.4671 43.3037 25.2763 43.2201C25.3165 39.4193 25.3985 35.6127 25.5222 31.827C29.6385 31.7514 33.7984 31.8134 37.906 32.0153ZM58.7789 43.4264C59.3292 42.3328 60.3888 41.6799 61.6136 41.6799C62.8386 41.6801 63.8989 42.3334 64.4491 43.4273L65.8191 46.1542C64.0772 47.0544 62.9182 48.8741 62.9182 50.9122C62.9182 53.864 65.3188 56.2654 68.2698 56.2654C69.0962 56.2654 69.9003 56.0767 70.6261 55.7203L77.1827 68.7651C77.1757 68.7707 77.1693 68.777 77.1622 68.7826C73.8659 71.4044 69.9243 73.158 65.7637 73.8539C62.013 74.4813 58.1434 74.2419 54.5076 73.1694C54.8154 71.4983 55.1237 69.7842 55.3098 68.064H55.8864C57.5628 68.064 58.9265 66.7002 58.9265 65.0238C58.9265 63.3474 57.5628 61.9836 55.8864 61.9836H54.2776C53.9215 60.1563 53.2566 58.1592 52.3332 56.2514L58.7789 43.4264ZM35.4838 54.3428C37.4829 51.5421 39.7968 49.9997 41.999 49.9997C44.2018 49.9997 46.5158 51.5421 48.5147 54.3428C50.0974 56.5601 51.3113 59.3344 51.8865 61.9839H32.1115C32.6867 59.3347 33.9008 56.5604 35.4838 54.3428ZM2.78323 65.0241C2.78323 64.6401 3.09573 64.3277 3.47965 64.3277H55.8864C56.2704 64.3277 56.5828 64.6401 56.5828 65.0241C56.5828 65.408 56.2704 65.7205 55.8864 65.7205H3.47965C3.09558 65.7204 2.78323 65.408 2.78323 65.0241ZM28.9703 77.9827C29.072 77.7212 29.1476 77.4463 29.1889 77.1593C29.2984 76.391 29.4284 75.4755 29.5643 74.4986C29.5737 74.4324 29.5787 74.3958 29.6826 74.3958C29.7867 74.3958 29.7917 74.4324 29.8009 74.4977C29.937 75.4757 30.067 76.3911 30.1767 77.1607C30.2453 77.6371 30.405 78.0821 30.6336 78.4821C30.0536 78.4044 29.4943 78.2365 28.9703 77.9827ZM50.2763 78.0233C44.3254 78.6996 39.6874 78.7001 33.7347 78.0249C33.0967 77.9522 32.5875 77.4597 32.4967 76.8285C32.3875 76.0624 32.258 75.1497 32.122 74.1735C31.947 72.9244 30.9437 72.052 29.6825 72.0522C28.4212 72.0522 27.4181 72.9245 27.243 74.1745C27.1073 75.1497 26.9777 76.0625 26.8687 76.8272C26.7777 77.4597 26.2685 77.9522 25.631 78.0249C19.6772 78.7001 15.0392 78.6996 9.0894 78.0233C8.45892 77.9515 7.9547 77.4586 7.86329 76.8254C7.67704 75.5307 7.43641 74.2255 7.20359 72.9634C6.90625 71.3512 6.60296 69.6957 6.4139 68.0642H52.9513C52.7619 69.7001 52.4579 71.3601 52.1599 72.9767C51.928 74.2349 51.6882 75.5357 51.5019 76.8263C51.4107 77.4593 50.9065 77.9515 50.2763 78.0233ZM77.1622 73.117C70.6003 78.3351 61.7477 79.8863 53.799 77.2826C53.8062 77.2419 53.8159 77.2022 53.8218 77.1613C53.9016 76.6083 53.9934 76.0489 54.0896 75.4897C56.5381 76.1869 59.0795 76.5405 61.6255 76.5405C63.1386 76.5405 64.6533 76.416 66.1504 76.1657C70.4801 75.4414 74.5916 73.6683 78.0885 71.0269C78.1335 71.8158 77.8057 72.6058 77.1622 73.117Z" fill="#3BB77E"/>
<path d="M62.7068 68.5943C63.4965 69.7428 64.6862 70.515 66.0566 70.7688C66.3773 70.8282 66.6987 70.8575 67.0177 70.8575C68.063 70.8575 69.0832 70.5428 69.9632 69.9378C71.1118 69.1482 71.884 67.9585 72.1377 66.588C72.3916 65.2175 72.0963 63.8302 71.3068 62.6816C70.5171 61.533 69.3274 60.7608 67.9569 60.5071C66.586 60.2533 65.1991 60.5485 64.0505 61.338C62.9019 62.1277 62.1298 63.3174 61.876 64.6878C61.6219 66.0585 61.9171 67.4458 62.7068 68.5943ZM64.1804 65.1146C64.3202 64.3596 64.7457 63.7042 65.3783 63.2692C65.863 62.936 66.4249 62.7627 67.0007 62.7627C67.1765 62.7627 67.3537 62.7789 67.5301 62.8116C68.2851 62.9514 68.9404 63.3767 69.3755 64.0096C69.8105 64.6422 69.973 65.4064 69.8333 66.1614C69.6935 66.9164 69.268 67.5717 68.6354 68.0067C68.0026 68.4417 67.2382 68.6042 66.4837 68.4646C65.7287 68.3247 65.0733 67.8994 64.6382 67.2666C64.2032 66.6338 64.0405 65.8696 64.1804 65.1146Z" fill="#3BB77E"/>
<path d="M57.7839 61.5651C58.0176 61.6084 58.252 61.6298 58.4847 61.6298C59.2467 61.6298 59.9904 61.4002 60.632 60.9593C61.4693 60.3835 62.0323 59.5162 62.2173 58.5171C62.4025 57.5179 62.1872 56.5065 61.6115 55.669C61.0359 54.8315 60.1684 54.2685 59.1693 54.0835C57.1067 53.7018 55.1178 55.069 54.7359 57.1316C54.3537 59.1943 55.7212 61.1832 57.7839 61.5651ZM57.0403 57.5584C57.1869 56.7665 57.9506 56.2412 58.7425 56.3882C59.1261 56.4593 59.459 56.6754 59.6801 56.997C59.9012 57.3185 59.9837 57.7068 59.9128 58.0904C59.8417 58.474 59.6256 58.8071 59.304 59.028C58.9826 59.2491 58.5947 59.3318 58.2106 59.2607C57.4187 59.1138 56.8937 58.3502 57.0403 57.5584Z" fill="#3BB77E"/>
</g>
</g>
</g>
</g>
<defs>
<clipPath id="clip0_6511_736">
<rect x="0.4375" y="0.876465" width="80" height="80" rx="10" fill="white"/>
</clipPath>
<clipPath id="clip1_6511_736">
<rect width="80" height="80" fill="white" transform="translate(0.4375 0.876465)"/>
</clipPath>
<clipPath id="clip2_6511_736">
<rect width="80" height="80" fill="white" transform="translate(0.4375 0.876465)"/>
</clipPath>
</defs>
</svg>
