<svg width="81" height="81" viewBox="0 0 81 81" fill="none" xmlns="http://www.w3.org/2000/svg">
<g clip-path="url(#clip0_6511_695)">
<g clip-path="url(#clip1_6511_695)">
<g clip-path="url(#clip2_6511_695)">
<mask id="mask0_6511_695" style="mask-type:luminance" maskUnits="userSpaceOnUse" x="0" y="0" width="81" height="81">
<path d="M80.4375 0.876465H0.4375V80.8765H80.4375V0.876465Z" fill="white"/>
</mask>
<g mask="url(#mask0_6511_695)">
<path d="M22.9375 57.8765C20.5375 57.4765 19.2708 58.3765 18.9375 58.8765L18.4375 59.3765C17.9375 60.0432 16.9375 61.4765 16.9375 61.8765V64.8765C16.9375 65.3765 16.9375 66.8765 17.4375 67.8765C17.9375 68.8765 17.9375 69.3765 18.4375 69.8765C18.9375 70.3765 19.4375 70.8765 19.9375 70.8765C20.4375 70.8765 22.9375 71.3765 23.4375 71.3765H28.9375C30.4375 71.3765 30.9375 70.8765 31.9375 70.8765C32.9375 70.8765 33.9375 70.3765 33.9375 69.8765C33.9375 69.3765 34.4375 68.8765 34.9375 68.3765C35.4375 67.8765 34.9375 66.8765 35.4375 66.0519C35.9375 65.2272 35.4375 64.8765 35.4375 64.3765V61.8765C35.4375 61.3765 34.9375 60.8765 34.9375 60.3765C34.9375 59.8765 33.9375 59.3765 33.4375 58.8765C33.0375 58.4765 31.9375 58.0432 31.4375 57.8765C29.6042 58.0432 25.3375 58.2765 22.9375 57.8765Z" fill="#FDC040"/>
<path d="M67.4375 31.8765C60.2375 34.6765 46.4375 33.0432 40.4375 31.8765L38.9375 32.8765L36.4375 36.8765L34.9375 40.3765C36.5375 40.7765 41.2708 44.8765 43.4375 46.8765L44.9375 49.8765C48.5375 50.2765 49.4375 53.3765 49.4375 54.8765L49.9375 65.3765C56.7375 67.3765 72.4375 64.2098 79.4375 62.3765C79.8375 61.5765 78.2708 53.0432 77.4375 48.8765C75.4375 42.8765 69.9375 35.0432 67.4375 31.8765Z" fill="#FDC040"/>
<path d="M74.5329 39.7943C72.1448 35.4296 69.7708 32.6091 68.9157 31.6542V25.212L80.0098 16.1025C80.2739 15.8854 80.4303 15.564 80.4377 15.2221C80.4452 14.8802 80.3028 14.5523 80.0483 14.3241L71.6542 6.80035C71.1723 6.36845 70.4313 6.40908 69.9993 6.89082C69.5672 7.37271 69.6079 8.11368 70.0898 8.54573L77.4668 15.1579L68.9161 22.179V17.3863C68.9161 16.7391 68.3916 16.2143 67.7442 16.2143C67.0968 16.2143 66.5723 16.7391 66.5723 17.3863L66.5717 31.1207C58.204 32.475 49.7352 32.4748 41.3676 31.1204V17.3863C41.3676 16.7391 40.843 16.2143 40.1956 16.2143C39.5483 16.2143 39.0237 16.7391 39.0237 17.3863V22.1794L30.4724 15.1579L39.5951 6.97988C40.9372 5.7764 42.6704 5.27622 44.3383 5.47436C44.6817 6.94973 45.4705 10.0444 46.6818 13.1274C48.6722 18.1933 50.9939 21.2219 53.5821 22.1286C53.7076 22.1725 53.8385 22.1946 53.9695 22.1946C54.1004 22.1946 54.2315 22.1725 54.3568 22.1286C56.945 21.2219 59.2668 18.1933 61.2577 13.1275C62.467 10.0503 63.2548 6.96379 63.5997 5.48483C64.6322 5.36138 65.6985 5.49951 66.6898 5.92391C67.2853 6.17876 67.9738 5.90265 68.2285 5.30779C68.4833 4.71276 68.2074 4.02399 67.6125 3.76929C64.6019 2.48033 61.0921 3.07239 58.67 5.277L57.5885 6.26142C55.5251 8.14024 52.4146 8.14024 50.352 6.26142L49.2707 5.277C46.0774 2.37002 41.245 2.35205 38.0304 5.23497L27.8908 14.3244C27.6361 14.5526 27.4939 14.8807 27.5014 15.2224C27.5087 15.5643 27.6651 15.8857 27.9292 16.1028L39.0234 25.2124V31.6535C38.2551 32.5086 36.2806 34.8435 34.1762 38.424C32.3939 37.4742 30.509 36.5365 28.5997 35.5873C26.9312 34.7576 25.2507 33.9219 23.6375 33.0733C25.2141 31.099 26.4303 28.8642 26.9632 26.2443C27.7776 22.2405 26.5863 18.6641 23.6948 16.432C20.9536 14.316 17.1786 13.8443 14.3009 15.2582C12.7583 16.0161 10.1705 17.983 10.1705 22.6401C10.1705 25.588 12.0427 28.3748 15.8942 31.1599C17.0989 32.0311 18.4534 32.8748 19.895 33.6982C18.1077 35.4562 16.0566 37.0209 14.1188 38.4988C9.94694 41.6808 5.98881 44.7022 5.88646 48.773C3.33418 49.3849 1.36488 51.5132 1.02205 54.194C0.242648 60.2973 0.242648 66.4866 1.02205 72.5903C1.41582 75.6678 3.9542 78.0197 7.05807 78.1824C13.2815 78.5069 19.5486 78.6691 25.8159 78.6691C32.083 78.6691 38.3506 78.5068 44.5741 78.1824C47.6787 78.0196 50.2163 75.6675 50.6082 72.5903C50.8417 70.7655 51.0037 68.933 51.0976 67.0974C52.0511 67.126 53.0125 67.1413 53.9695 67.1413C69.2685 67.1413 79.2501 63.5617 79.6676 63.4093C80.13 63.2404 80.4377 62.8007 80.4377 62.3085C80.438 52.6203 77.2269 44.7178 74.5329 39.7943ZM48.7741 7.99367C51.7355 10.6921 56.2036 10.6921 59.1668 7.99399L60.2481 7.00973C60.4678 6.80972 60.7002 6.62831 60.9425 6.46549C60.5355 8.01805 59.9111 10.147 59.0768 12.2698C57.1233 17.2408 55.2789 19.1035 53.9699 19.7521C52.6611 19.1035 50.8167 17.2408 48.8636 12.2698C48.0295 10.1467 47.405 8.01633 46.9979 6.46314C47.2392 6.62612 47.4717 6.808 47.6933 7.00957L48.7741 7.99367ZM12.515 22.6394C12.515 20.0928 13.4901 18.2676 15.335 17.3611C16.1066 16.982 16.9883 16.7981 17.8959 16.7981C19.4125 16.7981 21.0007 17.312 22.2632 18.2866C23.5309 19.2651 25.5288 21.5394 24.6671 25.7763C24.1947 28.0989 23.039 30.1194 21.5308 31.9309C16.4658 29.0925 12.515 26.0791 12.515 22.6394ZM7.18027 50.9432C9.26925 50.8348 11.359 50.7441 13.3916 50.6738C14.0385 50.6513 14.5446 50.109 14.5221 49.4621C14.4996 48.815 13.9613 48.3109 13.3104 48.3314C11.6528 48.3887 9.95725 48.4601 8.25531 48.543C8.55719 45.6907 11.8214 43.1985 15.5408 40.3619C17.7257 38.6952 20.0452 36.9261 22.0388 34.8774C23.8347 35.8345 25.7098 36.767 27.5565 37.6853C29.4051 38.6046 31.2686 39.5314 33.036 40.4744C31.875 42.6802 30.7332 45.2472 29.7882 48.1392C25.8459 48.0953 21.9101 48.1123 18.0037 48.1981C17.3565 48.2123 16.8435 48.7483 16.8577 49.3955C16.8719 50.0427 17.4052 50.561 18.0549 50.5413C26.7912 50.3496 35.6726 50.4849 44.4525 50.9432C46.4238 51.0454 48.0352 52.537 48.2839 54.4905C48.4485 55.7767 48.575 57.0669 48.6678 58.3593C48.5731 59.6562 48.4445 60.9438 48.2839 62.1894C48.0353 64.1414 46.4235 65.6322 44.4506 65.7346C41.7971 65.8732 39.1314 65.9811 36.5033 66.06C36.5596 64.4051 36.5231 62.7434 36.3905 61.0978C36.2113 58.8721 34.4057 57.1022 32.1909 56.9811C28.3988 56.7736 24.5533 56.7734 20.7621 56.9811C18.5471 57.1022 16.7417 58.8721 16.5624 61.0978C16.4288 62.7559 16.3927 64.4305 16.4508 66.098C13.3646 66.0158 10.2532 65.8955 7.18027 65.7346C5.208 65.6324 3.59606 64.1415 3.34762 62.189C3.19042 60.958 3.06151 59.6746 2.96338 58.3733C3.0562 57.0763 3.18277 55.7814 3.34762 54.4905C3.59731 52.5373 5.20925 51.0454 7.18027 50.9432ZM35.0984 41.6113C38.895 43.7839 41.9626 46.0566 42.9934 48.5275C39.4204 48.3569 35.8342 48.2386 32.2491 48.1743C33.0939 45.7278 34.0881 43.5282 35.0984 41.6113ZM34.0541 67.8742C33.9685 68.9369 33.1124 69.7814 32.0628 69.8389C28.3559 70.0418 24.5971 70.0418 20.8899 69.8389C19.8403 69.7814 18.9842 68.9369 18.8985 67.8742C18.7224 65.6885 18.7224 63.4718 18.8985 61.2861C18.9842 60.2234 19.8403 59.3788 20.89 59.3213C22.7434 59.2199 24.6099 59.1692 26.4763 59.1692C28.3428 59.1692 30.2093 59.2199 32.0628 59.3213C33.1124 59.3788 33.9685 60.2234 34.0541 61.2861C34.2302 63.4718 34.2302 65.6885 34.0541 67.8742ZM44.4522 75.8412C32.0862 76.4859 19.5465 76.4859 7.18105 75.8412C5.20972 75.7378 3.59731 74.2454 3.34762 72.2926C3.08917 70.2685 2.92135 68.2345 2.8401 66.1976C3.9317 67.292 5.41567 67.9901 7.05839 68.0753C10.2243 68.2412 13.4316 68.3644 16.6106 68.447C16.9543 70.489 18.6764 72.0653 20.7619 72.1793C22.6579 72.2831 24.5672 72.335 26.4763 72.335C28.3855 72.335 30.2949 72.2831 32.1906 72.1793C34.289 72.0645 36.0189 70.4696 36.3477 68.4097C39.0657 68.3298 41.8259 68.2189 44.5722 68.0753C46.2159 67.9901 47.7005 67.2915 48.7922 66.1968C48.7108 68.234 48.5427 70.2685 48.2838 72.2931C48.035 74.2457 46.4235 75.7378 44.4522 75.8412ZM74.2479 62.5133C74.0068 58.9902 73.5613 55.4799 72.9191 52.0589C72.7997 51.4228 72.1878 51.0041 71.5511 51.1234C70.915 51.2427 70.496 51.8553 70.6156 52.4914C71.2623 55.937 71.7025 59.4764 71.9312 63.0266C71.0289 63.2115 70.0057 63.4035 68.8733 63.5904C68.7316 58.8774 68.2286 54.1846 67.3726 49.621C67.2533 48.9848 66.6407 48.5662 66.0048 48.6851C65.3686 48.8045 64.9497 49.4169 65.0691 50.053C65.9196 54.5887 66.4132 59.2562 66.5393 63.9429C63.045 64.4225 58.7776 64.7972 53.9696 64.7972C53.04 64.7972 52.1061 64.7825 51.1798 64.7548C51.2461 61.2278 51.0565 57.6968 50.6085 54.1943C50.2571 51.4346 48.1813 49.2608 45.5193 48.7234C44.6589 45.1424 40.9822 42.2657 36.2431 39.5612C38.1162 36.3909 39.8686 34.2524 40.6338 33.375C45.0602 34.1116 49.5152 34.481 53.9702 34.481C58.4249 34.481 62.8796 34.1118 67.3059 33.3752C68.1853 34.3808 70.3621 37.0397 72.5149 40.99C74.9815 45.5161 77.9073 52.6901 78.0852 61.4658C77.323 61.7063 76.0161 62.0911 74.2479 62.5133Z" fill="#3BB77E"/>
<path d="M31.1787 61.0988C29.6133 61.0256 28.0312 60.9885 26.476 60.9885C24.9206 60.9885 23.3384 61.0256 21.773 61.0988C21.1752 61.1268 20.6945 61.6007 20.658 62.1983C20.5619 63.7786 20.5619 65.3815 20.658 66.962C20.6944 67.5596 21.1752 68.0335 21.773 68.0615C23.3371 68.1346 24.9195 68.1718 26.476 68.1718C28.0323 68.1718 29.6146 68.1347 31.1787 68.0615C31.7765 68.0335 32.2572 67.5596 32.2937 66.962C32.3898 65.3815 32.3898 63.7788 32.2937 62.1983C32.2573 61.6009 31.7767 61.1268 31.1787 61.0988ZM30.0032 65.7643C27.6476 65.8489 25.3041 65.8489 22.9488 65.7643C22.9237 64.976 22.9237 64.1844 22.9488 63.3961C25.3056 63.3114 27.6464 63.3114 30.0032 63.3961C30.0283 64.1844 30.0283 64.976 30.0032 65.7643Z" fill="#3BB77E"/>
</g>
</g>
</g>
</g>
<defs>
<clipPath id="clip0_6511_695">
<rect x="0.4375" y="0.876465" width="80" height="80" rx="10" fill="white"/>
</clipPath>
<clipPath id="clip1_6511_695">
<rect width="80" height="80" fill="white" transform="translate(0.4375 0.876465)"/>
</clipPath>
<clipPath id="clip2_6511_695">
<rect width="80" height="80" fill="white" transform="translate(0.4375 0.876465)"/>
</clipPath>
</defs>
</svg>
