<svg width="81" height="81" viewBox="0 0 81 81" fill="none" xmlns="http://www.w3.org/2000/svg">
<g clip-path="url(#clip0_6511_751)">
<g clip-path="url(#clip1_6511_751)">
<g clip-path="url(#clip2_6511_751)">
<mask id="mask0_6511_751" style="mask-type:luminance" maskUnits="userSpaceOnUse" x="0" y="0" width="81" height="81">
<path d="M80.4375 0.876465H0.4375V80.8765H80.4375V0.876465Z" fill="white"/>
</mask>
<g mask="url(#mask0_6511_751)">
<path d="M25.4375 70.3765L18.4375 71.8765L16.9375 72.8765L15.4375 74.8765L14.4375 76.3765L17.4375 77.3765C18.9375 77.8765 20.9375 78.3765 21.9375 78.8765C22.7375 79.2765 30.6042 79.3765 34.4375 79.3765C51.2375 78.9765 64.1042 67.2098 68.4375 61.3765L74.4375 51.3765L76.9375 41.8765L77.9375 28.3765C77.1042 24.8765 75.4375 17.7765 75.4375 17.3765C75.4375 16.9765 74.4375 15.5432 73.9375 14.8765L70.9375 15.3765L69.9375 18.8765V19.8765C69.7708 20.8765 69.4375 22.9765 69.4375 23.3765C69.4375 23.7765 68.1042 27.2098 67.4375 28.8765L64.9375 35.8765L59.9375 44.3765L52.4375 53.8765L45.4375 60.3765L34.9375 66.3765L25.4375 70.3765Z" fill="#FDC040"/>
<path d="M76.0308 14.5051L73.179 4.38206C72.7853 2.98455 71.5983 1.98092 70.1549 1.82508L67.9863 1.59094C66.99 1.48309 65.9908 1.80555 65.2451 2.47484C64.4992 3.14414 64.0711 4.1029 64.0704 5.10512L64.0654 14.3144C62.8778 18.5493 61.3089 22.6642 59.389 26.6093C58.6159 24.8274 57.6768 23.1104 56.5741 21.4842C55.4525 19.8326 54.2047 18.2941 52.8655 16.9117C50.3005 14.2635 46.3847 13.3592 42.8886 14.6086C40.4464 15.4808 37.9118 16.683 35.3529 18.18C35.2358 14.2334 34.318 10.8719 33.5062 8.63259C32.4647 5.75941 31.0342 3.19025 29.7724 1.92762C27.9976 0.152792 24.8634 0.813487 23.1601 2.51611C21.7253 3.95066 20.9612 6.5378 23.5301 9.10775C24.9426 10.5203 26.1141 13.4513 26.8972 17.4799C24.7593 16.3056 22.6462 15.3398 20.5989 14.6087C17.1048 13.3599 13.1884 14.2638 10.6224 16.9114C9.82976 17.729 9.06293 18.6092 8.34362 19.5271C7.94427 20.0367 8.03367 20.7737 8.54322 21.1729C9.05293 21.5721 9.78959 21.483 10.1889 20.9733C10.8578 20.1198 11.5699 19.3024 12.3058 18.5434C14.2335 16.5542 17.179 15.8765 19.8102 16.8167C22.1538 17.6535 24.5975 18.8169 27.0735 20.2743C29.9542 21.9694 33.5331 21.9694 36.4141 20.2743C38.8894 18.8171 41.3331 17.6538 43.6773 16.8167C46.3096 15.876 49.2549 16.5539 51.1815 18.5432C52.4269 19.829 53.5887 21.2616 54.6341 22.8011C56.0305 24.8607 57.1467 27.0754 57.964 29.3887C54.5581 35.6965 50.2346 41.5183 45.1203 46.6326C37.3885 54.3655 28.0304 60.2962 17.8242 63.971C11.4275 60.0132 6.84201 53.8557 4.88571 46.5719C2.88315 39.1156 3.86943 31.3539 7.66308 24.7163C7.98428 24.1542 7.78906 23.438 7.22699 23.1168C6.66508 22.7956 5.94889 22.991 5.62753 23.5529C1.52518 30.7307 0.45763 39.1215 2.62181 47.1795C4.56889 54.4293 8.92882 60.6458 15.0092 64.9206C14.3397 65.1313 13.6675 65.3337 12.9916 65.5251C12.9891 65.5258 12.9866 65.5267 12.9841 65.5273L12.9804 65.5284L12.9782 65.5294C12.7451 65.5959 12.536 65.7332 12.3824 65.9262L8.26922 71.0961C7.90222 71.5574 7.93473 72.2193 8.34518 72.6423L12.9858 77.4258C13.1039 77.5476 13.2461 77.6398 13.401 77.7003C13.4047 77.7018 13.4079 77.7043 13.4118 77.7059C18.9613 79.8127 24.8088 80.8765 30.688 80.8765C33.9731 80.8765 37.2686 80.5442 40.5261 79.876C49.849 77.9638 58.35 73.3802 65.11 66.6211C69.9698 61.7613 73.6741 56.07 76.1197 49.7053C76.3519 49.1011 76.0503 48.4229 75.4459 48.1906C74.841 47.9582 74.1631 48.2601 73.9312 48.8644C71.604 54.9206 68.0785 60.337 63.4523 64.9632C57.0179 71.397 48.9271 75.7594 40.0552 77.5793C31.9927 79.2331 23.6933 78.7245 15.937 76.1183L19.3093 72.6421C19.7554 72.1824 19.7497 71.45 19.2971 70.9972L15.5184 67.2173C27.2528 63.5588 38.0266 57.0435 46.7789 48.2898C55.8686 39.2002 62.541 27.9424 66.114 15.6838L74.0969 16.0112C77.4755 25.0761 77.9274 35.1696 75.3595 44.5232C75.188 45.1475 75.5553 45.7926 76.1796 45.964C76.8037 46.1358 77.4489 45.7683 77.6204 45.1439C80.3828 35.0812 79.8174 24.2034 76.0308 14.5051ZM29.5123 18.8283C28.6509 13.2858 27.1976 9.45896 25.1886 7.44984C23.996 6.25677 23.868 5.12404 24.8183 4.17402C25.7804 3.21182 27.4443 2.91468 28.1146 3.58507C29.8365 5.30832 33.0335 11.7171 33.0205 19.0795C31.8544 19.2997 30.6441 19.2172 29.5123 18.8283ZM13.8271 74.9259L10.7454 71.7493L13.3993 68.4138L16.8226 71.8382L13.8271 74.9259ZM66.8109 4.21982C67.0662 3.99099 67.3947 3.88486 67.7347 3.9219L69.9031 4.15605C70.3895 4.20857 70.7896 4.54681 70.9223 5.01791L73.3496 13.634L66.4106 13.3494L66.415 5.10637C66.4153 4.76344 66.5558 4.44865 66.8109 4.21982Z" fill="#3BB77E"/>
<path d="M68.723 18.6631C66.9617 31.2468 60.6763 43.4926 51.0239 53.145C42.9911 61.1776 33.245 66.8612 22.8389 69.5815C22.2124 69.7453 21.8375 70.3859 22.0013 71.0122C22.139 71.5392 22.6143 71.8883 23.1346 71.8883C23.2328 71.8883 23.3325 71.8758 23.4318 71.8498C34.2405 69.0242 44.3549 63.1295 52.682 54.8027C62.6923 44.7924 69.2138 32.0732 71.045 18.9879C71.1347 18.3467 70.6877 17.7542 70.0464 17.6645C69.4057 17.5749 68.8125 18.0218 68.723 18.6631Z" fill="#3BB77E"/>
</g>
</g>
</g>
</g>
<defs>
<clipPath id="clip0_6511_751">
<rect x="0.4375" y="0.876465" width="80" height="80" rx="10" fill="white"/>
</clipPath>
<clipPath id="clip1_6511_751">
<rect width="80" height="80" fill="white" transform="translate(0.4375 0.876465)"/>
</clipPath>
<clipPath id="clip2_6511_751">
<rect width="80" height="80" fill="white" transform="translate(0.4375 0.876465)"/>
</clipPath>
</defs>
</svg>
