<svg width="81" height="81" viewBox="0 0 81 81" fill="none" xmlns="http://www.w3.org/2000/svg">
<g clip-path="url(#clip0_6511_709)">
<g clip-path="url(#clip1_6511_709)">
<g clip-path="url(#clip2_6511_709)">
<path d="M29.4375 53.8765C39.9309 53.8765 48.4375 45.8176 48.4375 35.8765C48.4375 25.9353 39.9309 17.8765 29.4375 17.8765C18.9441 17.8765 10.4375 25.9353 10.4375 35.8765C10.4375 45.8176 18.9441 53.8765 29.4375 53.8765Z" fill="#FDC040"/>
<path d="M29.6626 55.3677C41.0884 55.3677 50.3839 46.7692 50.3839 36.2001C50.3839 25.631 41.0883 17.0325 29.6626 17.0325C18.2369 17.0325 8.94141 25.631 8.94141 36.2001C8.94141 46.7692 18.2369 55.3677 29.6626 55.3677ZM29.6626 19.3785C39.7948 19.3785 48.0379 26.9246 48.0379 36.2001C48.0379 45.4756 39.7947 53.0217 29.6626 53.0217C19.5305 53.0217 11.2874 45.4756 11.2874 36.2001C11.2874 26.9246 19.5305 19.3785 29.6626 19.3785Z" fill="#3BB77E"/>
<path d="M36.0078 33.226C36.0078 35.1315 37.558 36.6818 39.4636 36.6818C41.3691 36.6818 42.9193 35.1315 42.9193 33.226C42.9193 31.3206 41.3691 29.7703 39.4636 29.7703C37.558 29.7703 36.0078 31.3206 36.0078 33.226ZM39.4635 32.1164C40.0753 32.1164 40.5731 32.6142 40.5731 33.226C40.5731 33.8379 40.0753 34.3357 39.4635 34.3357C38.8515 34.3357 38.3536 33.8379 38.3536 33.226C38.3536 32.6142 38.8516 32.1164 39.4635 32.1164Z" fill="#3BB77E"/>
<path d="M33.8679 30.9586C35.7733 30.9586 37.3236 29.4083 37.3236 27.5029C37.3236 25.5974 35.7733 24.0471 33.8679 24.0471C31.9624 24.0471 30.4121 25.5974 30.4121 27.5029C30.4121 29.4083 31.9624 30.9586 33.8679 30.9586ZM33.8679 26.393C34.4797 26.393 34.9775 26.8909 34.9775 27.5027C34.9775 28.1146 34.4797 28.6124 33.8679 28.6124C33.256 28.6124 32.7582 28.1146 32.7582 27.5027C32.7582 26.8909 33.256 26.393 33.8679 26.393Z" fill="#3BB77E"/>
<path d="M19.8619 36.6818C21.7675 36.6818 23.3179 35.1315 23.3179 33.226C23.3179 31.3206 21.7675 29.7703 19.8619 29.7703C17.9565 29.7703 16.4062 31.3206 16.4062 33.226C16.4062 35.1315 17.9565 36.6818 19.8619 36.6818ZM19.8619 32.1164C20.4739 32.1164 20.9718 32.6142 20.9718 33.226C20.9718 33.8379 20.4739 34.3357 19.8619 34.3357C19.2501 34.3357 18.7523 33.8379 18.7523 33.226C18.7523 32.6142 19.2501 32.1164 19.8619 32.1164Z" fill="#3BB77E"/>
<path d="M25.4558 30.9586C27.3612 30.9586 28.9115 29.4083 28.9115 27.5029C28.9115 25.5974 27.3612 24.0471 25.4558 24.0471C23.5503 24.0471 22 25.5974 22 27.5029C22 29.4083 23.5503 30.9586 25.4558 30.9586ZM25.4558 26.393C26.0676 26.393 26.5654 26.8909 26.5654 27.5027C26.5654 28.1146 26.0676 28.6124 25.4558 28.6124C24.8439 28.6124 24.3461 28.1146 24.3461 27.5027C24.3461 26.8909 24.8439 26.393 25.4558 26.393Z" fill="#3BB77E"/>
<path d="M23.7392 35.6455C23.5762 36.4123 23.1406 37.1136 22.4795 37.6737C20.9946 38.9315 20.2186 40.7689 20.3503 42.7147C20.5555 45.7456 22.998 48.1652 26.0318 48.3427C27.0323 48.4009 28.0365 48.2118 28.9368 47.7947C29.3916 47.584 29.9348 47.584 30.3896 47.7947C31.1832 48.1624 32.0576 48.353 32.9388 48.353C33.0574 48.353 33.1762 48.3496 33.2948 48.3427C36.3285 48.165 38.7709 45.7455 38.9761 42.7146C39.1078 40.7687 38.3317 38.9313 36.847 37.6737C36.1859 37.1136 35.7503 36.4123 35.5875 35.6456C35.3046 34.3145 34.5993 33.1444 33.5478 32.2618C31.333 30.4027 27.9932 30.4027 25.7785 32.2618C24.7272 33.1446 24.0221 34.3146 23.7392 35.6455ZM27.287 34.0586C28.6416 32.9214 30.6847 32.9214 32.0393 34.0586C32.6862 34.6015 33.1195 35.3189 33.2924 36.1331C33.5644 37.4128 34.269 38.5646 35.3304 39.4637C36.2405 40.2346 36.7161 41.3618 36.6352 42.5561C36.5096 44.4111 35.0146 45.8919 33.1575 46.0006C32.534 46.037 31.9339 45.9246 31.3756 45.6659C30.8314 45.4138 30.2473 45.2878 29.6631 45.2878C29.079 45.2878 28.4946 45.4139 27.9505 45.6659C27.3923 45.9246 26.7925 46.0373 26.1688 46.0006C24.3116 45.8919 22.8166 44.4111 22.691 42.5563C22.6101 41.3618 23.0858 40.2346 23.9959 39.4637C25.0572 38.5647 25.762 37.413 26.0339 36.1331C26.2071 35.319 26.6403 34.6016 27.287 34.0586Z" fill="#3BB77E"/>
<path d="M75.8158 63.6775C78.3071 60.4989 79.6781 56.5446 79.6781 52.4925C79.6781 42.4809 71.533 34.3357 61.5213 34.3357C59.6497 34.3357 57.821 34.617 56.0643 35.1712C55.9379 29.3717 55.6372 23.5799 55.1603 17.8191C54.9898 15.7728 55.4363 13.7764 56.4517 12.0457C57.8316 9.69195 59.0674 6.47677 57.1167 4.52596C56.2806 3.69046 54.1371 2.47928 45.214 1.61124C39.6442 1.06947 33.5281 0.876465 29.6615 0.876465C25.7949 0.876465 19.6788 1.06947 14.1088 1.6114C5.18568 2.47943 3.04233 3.69061 2.20589 4.52643C0.255391 6.47678 1.49113 9.69194 2.87123 12.0462C3.88644 13.7766 4.33297 15.7729 4.16233 17.8188C4.09617 18.6099 4.03064 19.4521 3.95651 20.4697C3.90927 21.1158 4.3949 21.6779 5.041 21.725C5.68726 21.7724 6.24922 21.2866 6.29629 20.6405C6.36996 19.6315 6.43471 18.797 6.50024 18.0142C6.71123 15.4833 6.156 13.009 4.89492 10.8592C4.8308 10.7497 4.77074 10.6426 4.71099 10.5356C8.26227 9.04021 19.8596 8.06504 29.6616 8.06504C33.3925 8.06504 39.3128 8.24897 44.7395 8.76495C50.7325 9.33488 53.4133 10.0432 54.6085 10.5415C54.5498 10.6465 54.491 10.7516 54.428 10.859C53.1668 13.009 52.6114 15.4831 52.8222 18.0135C54.0384 32.7057 54.1024 47.6017 53.0194 62.3087C50.5026 62.3081 47.9853 62.3279 45.4813 62.3689C45.1599 58.3784 41.8098 55.2297 37.738 55.2297C33.4544 55.2297 29.9694 58.7147 29.9694 62.9983C29.9694 64.8698 30.6395 66.6543 31.8399 68.0532C31.5396 68.4031 31.2726 68.777 31.041 69.1705C24.0244 69.222 16.9164 68.8795 9.90341 68.1486C8.0699 67.9586 6.63021 66.482 6.48007 64.6369C5.41058 51.5856 5.24652 38.3461 5.9924 25.286C6.02931 24.6392 5.53492 24.0849 4.8882 24.0479C4.24163 24.0113 3.68718 24.5054 3.65011 25.1521C2.89797 38.3203 3.06345 51.6692 4.14169 64.8275C4.38317 67.7975 6.70466 70.1754 9.66083 70.4818C16.2955 71.1733 23.0136 71.5227 29.6641 71.5225C29.821 71.5225 29.9776 71.5203 30.1344 71.5199C30.0267 72.0374 29.9693 72.5687 29.9693 73.1078C29.9693 77.3914 33.4542 80.8763 37.7378 80.8763C41.8096 80.8763 45.1597 77.7278 45.4811 73.7372C50.4149 73.8182 55.3994 73.8182 60.3319 73.7372C60.6533 77.7276 64.0036 80.8763 68.0754 80.8763C69.3254 80.8763 70.5694 80.5718 71.6728 79.9955C72.2471 79.6957 72.4695 78.987 72.1697 78.4127C71.8696 77.8384 71.1609 77.6158 70.5869 77.916C69.8063 78.3235 68.9613 78.5303 68.0754 78.5303C65.0854 78.5303 62.6528 76.0978 62.6528 73.1078C62.6528 72.9721 62.66 72.8241 62.6754 72.6421C62.7034 72.3111 62.5897 71.9838 62.3626 71.7413C62.1355 71.4989 61.8165 71.3641 61.4841 71.3705C55.7933 71.4792 50.0214 71.4792 44.3292 71.3705C43.9988 71.3642 43.678 71.4989 43.4507 71.7413C43.2236 71.9838 43.1099 72.3111 43.1379 72.6421C43.1532 72.8229 43.1604 72.971 43.1604 73.1078C43.1604 76.0978 40.7279 78.5303 37.738 78.5303C34.748 78.5303 32.3155 76.0978 32.3155 73.1078C32.3155 71.502 33.023 69.987 34.2569 68.9513C34.5223 68.7284 34.6758 68.3995 34.6758 68.0529C34.6758 67.7063 34.5225 67.3774 34.2569 67.1545C33.023 66.1188 32.3155 64.6039 32.3155 62.9979C32.3155 60.008 34.748 57.5755 37.738 57.5755C40.7279 57.5755 43.1604 60.008 43.1604 62.9979C43.1604 63.1348 43.1532 63.2829 43.1379 63.4637C43.1099 63.7947 43.2236 64.122 43.4507 64.3644C43.678 64.6069 43.9984 64.7425 44.3292 64.7353C50.0212 64.6267 55.7931 64.6267 61.4841 64.7353C61.8168 64.7425 62.1355 64.6069 62.3626 64.3644C62.5897 64.122 62.7034 63.7947 62.6754 63.4637C62.66 63.2817 62.6528 63.1337 62.6528 62.9979C62.6528 60.008 65.0854 57.5755 68.0754 57.5755C71.0661 57.5755 73.4995 60.008 73.4995 62.9979C73.4995 64.6042 72.7916 66.119 71.5569 67.154C71.2912 67.3769 71.1376 67.706 71.1376 68.0529C71.1376 68.3998 71.291 68.7289 71.5569 68.9517C72.7916 69.9868 73.4995 71.5017 73.4995 73.1078C73.4995 73.7926 73.3737 74.4596 73.1256 75.0902C72.8884 75.6932 73.1851 76.374 73.7879 76.6112C74.3908 76.8483 75.0718 76.5518 75.3089 75.949C75.6648 75.0438 75.8455 74.088 75.8455 73.108C75.8455 71.2361 75.1751 69.4516 73.9741 68.053C75.0291 66.825 75.6742 65.2988 75.8158 63.6775ZM29.6618 5.71885C29.4496 5.71885 10.0889 5.75264 3.76304 8.4132C3.43991 7.37124 3.46306 6.58719 3.8647 6.18555C4.18204 5.86837 5.8751 4.76948 14.336 3.94633C19.8225 3.41269 25.8501 3.2225 29.6615 3.2225C33.4729 3.2225 39.5005 3.41269 44.9869 3.94633C53.4478 4.76948 55.1409 5.86837 55.4579 6.18525C55.8599 6.58719 55.8832 7.37109 55.5601 8.41304C49.234 5.75278 29.8742 5.71885 29.6618 5.71885ZM68.0757 55.2296C64.0039 55.2296 60.6536 58.3781 60.3322 62.3687C58.6833 62.3417 57.0279 62.3271 55.3711 62.3181C55.9697 54.1252 56.2168 45.875 56.1076 37.6332C57.8367 37.0016 59.6541 36.6818 61.5213 36.6818C70.2394 36.6818 77.3321 43.7745 77.3321 52.4925C77.3321 55.2008 76.6294 57.8595 75.3223 60.2005C74.1967 57.2957 71.3738 55.2296 68.0757 55.2296Z" fill="#3BB77E"/>
</g>
</g>
</g>
<defs>
<clipPath id="clip0_6511_709">
<rect x="0.4375" y="0.876465" width="80" height="80" rx="10" fill="white"/>
</clipPath>
<clipPath id="clip1_6511_709">
<rect width="80" height="80" fill="white" transform="translate(0.4375 0.876465)"/>
</clipPath>
<clipPath id="clip2_6511_709">
<rect width="80" height="80" fill="white" transform="translate(0.4375 0.876465)"/>
</clipPath>
</defs>
</svg>
