<svg width="81" height="81" viewBox="0 0 81 81" fill="none" xmlns="http://www.w3.org/2000/svg">
<g clip-path="url(#clip0_6511_723)">
<g clip-path="url(#clip1_6511_723)">
<g clip-path="url(#clip2_6511_723)">
<path d="M59.4375 54.8765H41.4375C38.1238 54.8765 35.4375 57.5628 35.4375 60.8765V72.8765C35.4375 76.1902 38.1238 78.8765 41.4375 78.8765H59.4375C62.7512 78.8765 65.4375 76.1902 65.4375 72.8765V60.8765C65.4375 57.5628 62.7512 54.8765 59.4375 54.8765Z" fill="#FDC040"/>
<path d="M6.4375 8.37646L7.4375 10.8765L10.4375 9.87646L16.4375 9.37646L25.9375 8.87646L35.9375 9.37646L52.9375 10.8765L54.4375 9.37646L55.4375 6.87646C55.6042 6.20979 55.9375 4.77646 55.9375 4.37646C55.9375 3.97646 54.6042 3.87646 53.9375 3.87646L52.4375 4.37646L50.9375 4.87646H47.9375C47.4375 4.37646 46.3375 3.37646 45.9375 3.37646C45.5375 3.37646 44.7708 2.70979 44.4375 2.37646H41.9375L40.4375 3.87646L38.4375 4.87646H36.4375L33.9375 3.37646L31.4375 1.87646L28.9375 2.37646L27.4375 3.87646L24.9375 4.87646L22.4375 4.37646C21.9375 4.20979 20.8375 3.87646 20.4375 3.87646C20.0375 3.87646 19.6042 2.87646 19.4375 2.37646H17.9375L15.9375 2.87646C15.6042 3.20979 14.8375 3.87646 14.4375 3.87646C13.9375 3.87646 12.9375 4.37646 12.9375 4.87646C12.9375 5.37646 11.4375 4.87646 10.9375 4.87646C10.4375 4.87646 9.9375 4.87646 9.4375 4.37646C9.0375 3.97646 8.27083 3.87646 7.9375 3.87646H5.9375L5.4375 5.87646L6.4375 8.37646Z" fill="#FDC040"/>
<path d="M30.5757 52.2431C35.8776 52.2431 40.8748 50.6936 44.6476 47.8798C48.5231 44.9892 50.6574 41.1138 50.6574 36.9675C50.6574 32.8212 48.5231 28.9458 44.6476 26.0553C40.8748 23.2415 35.8776 21.6919 30.5757 21.6919C25.2739 21.6919 20.2766 23.2415 16.5039 26.0553C12.6285 28.9458 10.4941 32.8212 10.4941 36.9675C10.4941 41.1138 12.6284 44.9892 16.5039 47.8798C20.2766 50.6936 25.2739 52.2431 30.5757 52.2431ZM12.8379 36.9675C12.8379 29.8369 20.7951 24.0357 30.5757 24.0357C40.3564 24.0357 48.3136 29.8369 48.3136 36.9675C48.3136 44.0981 40.3564 49.8993 30.5757 49.8993C20.7951 49.8993 12.8379 44.0981 12.8379 36.9675Z" fill="#3BB77E"/>
<path d="M74.6264 69.5827C75.6024 68.8253 76.1335 67.8906 76.1335 66.8687C76.1335 65.847 75.6025 64.9123 74.6264 64.1549C75.4807 63.5626 76.0605 62.8774 76.3582 62.1058C76.6177 61.4332 76.7832 60.3497 76.0974 59.0073C75.5628 57.9615 74.7163 57.2829 73.6489 57.0446C71.939 56.6631 69.6749 57.4331 66.9063 59.3333C65.5986 55.7718 62.2676 53.2221 58.2758 53.0413C57.4384 53.0033 56.5989 52.9736 55.7584 52.9477C56.5659 38.9982 56.3098 24.8659 54.994 10.9108C55.4271 10.2131 56.2559 8.66833 56.7761 6.36579C57.0894 4.97982 56.4995 3.61651 55.2739 2.89259C54.0668 2.17992 52.6116 2.31899 51.5668 3.24713C51.0422 3.71308 50.5466 4.00183 49.6975 4.00183C48.5823 4.00183 48.0843 3.51354 47.3306 2.77447C46.4682 1.92867 45.3951 0.876465 43.3227 0.876465C41.2505 0.876465 40.1775 1.92867 39.3153 2.77415C38.5615 3.51323 38.0635 4.00152 36.9487 4.00152C35.8336 4.00152 35.3358 3.51323 34.5821 2.77415C33.7197 1.92867 32.6465 0.876465 30.5743 0.876465C28.5021 0.876465 27.4291 1.92867 26.5671 2.77415C25.8133 3.51323 25.3153 4.00152 24.2004 4.00152C23.0856 4.00152 22.5878 3.51323 21.8338 2.77415C20.9718 1.92867 19.8988 0.876465 17.8266 0.876465C15.7545 0.876465 14.6817 1.92867 13.8196 2.77415C13.0658 3.51323 12.568 4.00152 11.4535 4.00152C10.6047 4.00152 10.1091 3.71277 9.58472 3.24698C8.54032 2.31899 7.08561 2.17977 5.87824 2.89212C4.65243 3.61573 4.06274 4.97888 4.37587 6.36485C4.89619 8.66833 5.72542 10.2134 6.15856 10.9109C5.9559 13.0596 5.77402 15.2508 5.6198 17.4373C5.57417 18.0829 6.06059 18.6433 6.70622 18.6887C7.35483 18.7337 7.91219 18.2478 7.95781 17.6021C8.10141 15.5668 8.26797 13.5257 8.45438 11.5208C23.1381 9.75274 38.0148 9.75274 52.6993 11.5208C53.9748 25.2579 54.2129 39.1638 53.4141 52.8911C49.7097 52.826 45.9915 52.8741 42.3088 53.041C38.317 53.2219 34.986 55.7715 33.6783 59.333C30.9098 57.4328 28.6454 56.6626 26.9356 57.0443C25.8683 57.2826 25.0217 57.9612 24.4872 59.0072C23.8014 60.3494 23.9668 61.4328 24.2262 62.1055C24.4454 62.6738 24.8189 63.1946 25.3409 63.6665C19.7333 63.508 14.0656 63.0894 8.45438 62.4132C7.21608 49.0782 6.95154 35.5741 7.66843 22.261C7.70327 21.6147 7.20748 21.0625 6.56122 21.0278C5.91105 20.9922 5.36292 21.4888 5.32792 22.135C4.5954 35.7375 4.88041 49.5359 6.17137 63.1555C5.74167 63.8432 4.90119 65.3956 4.37634 67.72C4.06258 69.1064 4.65228 70.4702 5.87855 71.1943C7.08545 71.9071 8.54079 71.7674 9.58472 70.8397C10.1099 70.3738 10.6058 70.085 11.4538 70.085C12.569 70.085 13.0671 70.5733 13.821 71.3126C14.6834 72.1581 15.7565 73.2101 17.8288 73.2101C19.9013 73.2101 20.9744 72.1579 21.8368 71.3126C22.5906 70.5733 23.0889 70.085 24.2039 70.085C24.5819 70.085 24.8894 70.1425 25.158 70.2449C24.7311 70.6701 24.4184 71.1326 24.2258 71.6319C23.9664 72.3046 23.8009 73.3881 24.4867 74.7304C25.0212 75.7762 25.8678 76.4549 26.9352 76.6931C27.2193 76.7566 27.5185 76.7881 27.833 76.7881C29.411 76.7881 31.3693 75.9873 33.6773 74.4034C34.9847 77.9655 38.316 80.5156 42.3083 80.6963C44.9573 80.8163 47.6245 80.8763 50.2922 80.8763C52.9593 80.8763 55.627 80.8163 58.2755 80.6963C62.2677 80.5154 65.5989 77.9654 66.9063 74.4032C69.2143 75.9873 71.1726 76.788 72.7506 76.788C73.065 76.788 73.3645 76.7563 73.6484 76.693C74.7158 76.4547 75.5624 75.7761 76.0969 74.7301C76.7827 73.3879 76.6172 72.3045 76.3577 71.6318C76.0605 70.8601 75.4807 70.1749 74.6264 69.5827ZM7.89375 9.22929C7.53327 8.56115 7.01732 7.42112 6.66201 5.84843C6.5331 5.27765 6.9417 4.98607 7.06983 4.91045C7.22467 4.81904 7.62843 4.64419 8.02828 4.99935C8.73376 5.62593 9.76066 6.34532 11.4535 6.34532C13.5255 6.34532 14.5984 5.29311 15.4606 4.44762C16.2142 3.70855 16.7122 3.22026 17.8267 3.22026C18.9414 3.22026 19.4393 3.70855 20.1932 4.44762C21.0551 5.29311 22.1282 6.34532 24.2004 6.34532C26.2727 6.34532 27.3458 5.29311 28.2079 4.44762C28.9616 3.70855 29.4596 3.22026 30.5743 3.22026C31.6892 3.22026 32.1872 3.70855 32.9409 4.44762C33.8033 5.29311 34.8764 6.34532 36.9487 6.34532C39.0209 6.34532 40.0939 5.29311 40.9561 4.44762C41.7098 3.70855 42.2078 3.22026 43.3227 3.22026C44.4379 3.22026 44.9358 3.70855 45.6896 4.44762C46.5521 5.29311 47.6253 6.34532 49.6977 6.34532C51.3905 6.34532 52.4176 5.62608 53.1233 4.99935C53.5227 4.64435 53.9273 4.81888 54.0823 4.9106C54.2106 4.98638 54.6193 5.27795 54.4901 5.8489C54.1348 7.42206 53.6185 8.56224 53.259 9.22913C38.2029 7.39347 22.9482 7.39347 7.89375 9.22929ZM56.8736 78.4063C55.2957 78.4658 53.7129 78.5057 52.128 78.5222C52.8287 73.3815 54.129 68.1917 56.0028 63.0751C56.2253 62.4672 55.9131 61.7943 55.3053 61.5716C54.6973 61.3491 54.0246 61.6614 53.8018 62.2691C51.831 67.6511 50.4736 73.116 49.7613 78.5296C48.1859 78.5247 46.6117 78.4985 45.0412 78.4513C46.6295 66.9004 50.8661 58.0203 52.3293 55.2168C53.8038 55.234 55.2765 55.2715 56.7448 55.3258C56.4061 56.0179 56.007 56.867 55.5745 57.8551C55.315 58.4479 55.585 59.139 56.1779 59.3986C56.3309 59.4656 56.4903 59.4973 56.6473 59.4973C57.0987 59.4973 57.5289 59.235 57.7214 58.7951C58.3389 57.3849 58.8828 56.2727 59.2708 55.5154C60.6588 55.7879 61.9007 56.4465 62.8824 57.376C61.0208 61.5438 58.1077 69.1814 56.8736 78.4063ZM20.1963 69.6386C19.4424 70.3777 18.9441 70.8661 17.8291 70.8661C16.714 70.8661 16.2159 70.3779 15.4621 69.6388C14.5996 68.7933 13.5265 67.7411 11.4541 67.7411C9.76285 67.7411 8.73564 68.46 8.02875 69.0871C7.62905 69.4421 7.2253 69.2675 7.07061 69.176C6.94217 69.1002 6.53341 68.8085 6.66279 68.2367C7.04467 66.5453 7.61327 65.3532 7.97359 64.7126C13.4923 65.3837 19.0667 65.8145 24.5886 65.9912C24.4987 66.2748 24.4514 66.5679 24.4514 66.8689C24.4514 67.1729 24.4995 67.4692 24.5914 67.7555C24.4659 67.747 24.3378 67.7412 24.2045 67.7412C22.1318 67.7411 21.0587 68.7933 20.1963 69.6386ZM27.4463 74.4056C27.1874 74.3478 26.8541 74.2112 26.5744 73.6639C26.258 73.0443 26.3306 72.6888 26.4131 72.4754C26.6558 71.8465 27.5408 71.2154 28.9052 70.6983C29.3649 70.5241 29.6671 70.0816 29.662 69.59C29.6568 69.0985 29.3454 68.6624 28.8821 68.498C27.4482 67.9889 26.7952 67.2966 26.7952 66.8686C26.7952 66.4406 27.4483 65.7482 28.8821 65.2392C29.3454 65.0748 29.6568 64.6387 29.662 64.1471C29.667 63.6555 29.3649 63.213 28.9052 63.039C27.5408 62.5219 26.6558 61.891 26.4131 61.2619C26.3308 61.0485 26.258 60.693 26.5744 60.0736C26.8541 59.5261 27.1874 59.3895 27.4463 59.3317C27.9983 59.2084 29.6282 59.2245 33.1236 61.8161C33.1131 61.9336 33.1028 62.0511 33.0966 62.1699C32.932 65.2876 32.932 68.4492 33.0966 71.5669C33.1028 71.6857 33.1131 71.8032 33.1236 71.9207C29.6285 74.5125 27.9991 74.5287 27.4463 74.4056ZM35.4369 62.2936C35.6357 58.5248 38.6357 55.5537 42.4149 55.3826C42.4536 55.3808 42.4927 55.3798 42.5314 55.3779C40.9234 58.6822 37.9209 65.6298 36.2365 74.4123C35.7755 73.5175 35.4933 72.5129 35.4369 71.444C35.2769 68.4081 35.2769 65.3295 35.4369 62.2936ZM38.1951 76.7875C39.9329 66.1062 43.8472 57.8931 45.2012 55.2815C46.7006 55.2377 48.2036 55.213 49.7073 55.208C47.8576 58.9679 44.1379 67.5606 42.6878 78.3658C42.5969 78.3619 42.5058 78.3591 42.4149 78.355C40.818 78.2827 39.3612 77.7089 38.1951 76.7875ZM65.1476 71.4438C64.9686 74.8398 62.5145 77.5872 59.2658 78.2229C60.3772 70.3579 62.7265 63.7229 64.4762 59.5883C64.8608 60.4155 65.0967 61.328 65.1476 62.2935C65.3076 65.3295 65.3076 68.408 65.1476 71.4438ZM74.0103 73.6637C73.7306 74.2112 73.3973 74.3478 73.1384 74.4056C72.5861 74.5286 70.9564 74.5126 67.4611 71.9212C67.4716 71.8037 67.4819 71.686 67.4882 71.5673C67.6527 68.4495 67.6527 65.2879 67.4882 62.1702C67.4819 62.0514 67.4716 61.9339 67.4611 61.8164C70.956 59.225 72.5856 59.2086 73.1384 59.332C73.3973 59.3898 73.7306 59.5264 74.0103 60.0736C74.3267 60.6931 74.2539 61.0486 74.1714 61.2621C73.9288 61.891 73.0437 62.5221 71.6793 63.039C71.2198 63.2132 70.9176 63.6557 70.9226 64.1473C70.9278 64.6388 71.2392 65.0749 71.7025 65.2393C73.1365 65.7484 73.7895 66.4408 73.7895 66.8687C73.7895 67.2967 73.1364 67.9891 71.7025 68.4981C71.2392 68.6625 70.9278 69.0986 70.9226 69.5902C70.9174 70.0818 71.2196 70.5243 71.6793 70.6985C73.0437 71.2154 73.9288 71.8465 74.1716 72.4756C74.2538 72.6888 74.3267 73.0443 74.0103 73.6637Z" fill="#3BB77E"/>
<path d="M22.7346 33.0997C27.9378 32.4086 33.2135 32.4086 38.4164 33.0997C38.4688 33.1066 38.5208 33.11 38.5722 33.11C39.1508 33.11 39.6541 32.6816 39.7324 32.0924C39.8177 31.4508 39.3666 30.8616 38.725 30.7764C33.3179 30.0583 27.8339 30.0583 22.426 30.7764C21.7844 30.8616 21.3333 31.4508 21.4186 32.0924C21.5039 32.7339 22.093 33.1847 22.7346 33.0997Z" fill="#3BB77E"/>
<path d="M39.7324 42.1478C39.6473 41.5063 39.0576 41.0556 38.4164 41.1405C33.2135 41.8316 27.9378 41.8316 22.7346 41.1405C22.0933 41.0553 21.5038 41.5063 21.4186 42.1478C21.3333 42.7894 21.7844 43.3786 22.426 43.4638C25.1298 43.8229 27.8525 44.0024 30.5754 44.0024C33.2984 44.0024 36.0212 43.8229 38.7249 43.4638C39.3668 43.3786 39.8177 42.7894 39.7324 42.1478Z" fill="#3BB77E"/>
<path d="M42.907 37.1199C42.907 36.4727 42.3824 35.948 41.7351 35.948H19.416C18.7687 35.948 18.2441 36.4727 18.2441 37.1199C18.2441 37.7671 18.7687 38.2918 19.416 38.2918H41.7351C42.3823 38.2918 42.907 37.7671 42.907 37.1199Z" fill="#3BB77E"/>
</g>
</g>
</g>
<defs>
<clipPath id="clip0_6511_723">
<rect x="0.4375" y="0.876465" width="80" height="80" rx="10" fill="white"/>
</clipPath>
<clipPath id="clip1_6511_723">
<rect width="80" height="80" fill="white" transform="translate(0.4375 0.876465)"/>
</clipPath>
<clipPath id="clip2_6511_723">
<rect width="80" height="80" fill="white" transform="translate(0.4375 0.876465)"/>
</clipPath>
</defs>
</svg>
