<svg width="117" height="88" viewBox="0 0 117 88" fill="none" xmlns="http://www.w3.org/2000/svg">
<g clip-path="url(#clip0_6511_666)">
<g clip-path="url(#clip1_6511_666)">
<g clip-path="url(#clip2_6511_666)">
<g clip-path="url(#clip3_6511_666)">
<path d="M28.4375 31.8765L27.4375 26.3765V21.3765C27.6042 20.2098 28.0375 17.8765 28.4375 17.8765C28.8375 17.8765 31.4375 16.8765 33.4375 16.3765L37.4375 15.8765C38.4375 15.8765 38.9375 15.8765 43.9375 14.8765C44.3297 14.7981 46.9375 14.3765 47.9375 14.3765L46.4375 12.3765L48.4375 14.3765L50.4375 16.3765L50.9375 17.8765C50.2708 18.0432 48.7375 18.3765 47.9375 18.3765H43.9375L41.9375 19.3765V20.8765C41.9375 21.2765 41.6042 24.7098 41.4375 26.3765L40.9375 31.3765L38.9375 31.8765H29.4375H28.4375Z" fill="#FDC040"/>
<path d="M65.4375 18.3766L67.4375 15.8766L73.9375 11.3766L81.4375 8.37656C83.7708 7.7099 89.0375 6.67656 91.4375 7.87656C94.4375 9.37656 94.9375 9.87656 97.4375 14.3766C97.2708 17.8766 96.6375 25.1766 95.4375 26.3766L92.9375 30.8766L91.4375 31.8766H83.9375H72.9375H69.4375V28.3766C69.4375 27.8766 68.9375 24.3766 68.9375 23.8766V20.8766L68.4375 18.8766L67.4375 18.3766H65.4375Z" fill="#FDC040"/>
<path d="M75.8737 14.8291C75.178 15.5248 74.7949 16.4497 74.7949 17.4335C74.7949 18.4172 75.178 19.3421 75.8735 20.0378L84.3874 28.5517C85.0831 29.2473 86.0079 29.6303 86.9916 29.6303C87.9754 29.6303 88.9002 29.2472 89.5957 28.5517C90.2914 27.856 90.6745 26.9311 90.6745 25.9474C90.6745 24.9636 90.2914 24.0387 89.5959 23.343L81.082 14.829C79.6461 13.3931 77.3093 13.3935 75.8737 14.8291ZM87.9386 25.0005C88.1915 25.2533 88.3308 25.5897 88.3308 25.9474C88.3308 26.305 88.1915 26.6413 87.9385 26.8943C87.6857 27.1472 87.3492 27.2865 86.9916 27.2865C86.6339 27.2865 86.2976 27.1472 86.0447 26.8943L77.5307 18.3802C77.2779 18.1274 77.1385 17.791 77.1385 17.4333C77.1385 17.0756 77.2779 16.7394 77.5309 16.4864C77.7919 16.2253 78.1347 16.0948 78.4778 16.0948C78.8206 16.0948 79.1638 16.2253 79.4247 16.4864L87.9386 25.0005Z" fill="#3BB77E"/>
<path d="M98.1526 36.4039C97.6626 33.983 95.9148 32.0412 93.6791 31.217C99.2233 21.9674 99.992 13.3055 95.5566 8.8699C93.6109 6.92436 90.7929 5.92823 87.4014 5.99073C86.7543 6.00261 86.2393 6.53685 86.2512 7.1839C86.2629 7.82377 86.7853 8.33441 87.4225 8.33441C87.4298 8.33441 87.4372 8.33441 87.4445 8.33426C90.2192 8.28285 92.3935 9.02131 93.8993 10.5271C96.228 12.8558 96.2908 16.3939 95.9336 18.952C95.4283 22.5696 93.7916 26.6493 91.1956 30.7854C84.4365 30.6565 77.6482 30.5674 70.8489 30.5187C70.8047 26.5273 70.5578 22.4873 70.1089 18.4907C70.0475 17.9451 69.6156 17.5151 69.0696 17.4563C68.7201 17.4188 68.3701 17.3854 68.0204 17.3507C72.9676 13.1672 78.2567 10.2204 83.1253 8.96428C83.7521 8.80256 84.1289 8.16347 83.9672 7.53673C83.8056 6.90999 83.1661 6.53294 82.5397 6.69482C80.674 7.17625 78.7551 7.88627 76.8209 8.80146C77.1976 7.16343 77.3771 5.19977 76.658 3.73456C76.2249 2.85155 75.5077 2.2495 74.5842 1.9934C73.2159 1.61432 71.0903 1.81339 68.7288 4.91585C68.6146 5.06601 68.5041 5.21727 68.3979 5.36774C68.3851 5.32321 68.3721 5.27883 68.3587 5.2343C67.8946 3.69018 66.6814 1.09961 63.7673 1.09961C62.7552 1.09961 61.8728 1.50306 61.215 2.26622C60.3563 3.26266 59.9807 4.81038 59.8459 6.35293C58.8203 5.00413 57.578 3.92003 56.2342 3.92003C55.3612 3.92003 54.565 4.36474 53.9927 5.17227C52.4848 7.29953 52.4629 11.9097 53.8636 16.7399C53.5128 16.7443 53.1622 16.7522 52.8115 16.7596C50.5155 14.0804 47.7401 12.2366 46.5261 11.4988V8.9299C47.0763 8.83349 47.4946 8.35457 47.4946 7.77674V4.46802C47.4946 2.68483 46.0439 1.23415 44.2607 1.23415H36.9733C35.1901 1.23415 33.7394 2.68483 33.7394 4.46802V7.77674C33.7394 8.35457 34.158 8.83349 34.7082 8.9299L34.7073 11.4983C33.125 12.4593 28.8983 15.2917 26.5327 19.4045C26.0502 20.2399 25.8268 21.2027 25.8872 22.191C26.0007 23.9922 26.2824 27.4939 26.8948 30.7638C26.4149 30.7726 25.9346 30.7806 25.455 30.7898C22.1999 30.8512 19.3683 33.2124 18.7223 36.4034C18.3426 38.273 18.3426 40.169 18.7221 42.0377C19.1962 44.3831 20.8577 46.3188 23.0521 47.1734C23.1809 49.5589 23.4014 52.9515 23.7623 56.8073C22.795 59.5472 21.8474 62.2881 20.9283 65.0234C20.1375 67.3796 21.1963 69.9945 23.3926 71.1067C24.2283 71.5285 25.1069 71.8558 26.0062 72.0833C26.8467 74.4667 28.3467 76.5229 30.3793 78.0597C32.6237 79.7566 35.2982 80.6535 38.1136 80.6535H78.7616C81.577 80.6535 84.2514 79.7566 86.4959 78.0597C88.5286 76.5227 90.0287 74.4664 90.8692 72.0827C91.7727 71.8532 92.6511 71.5255 93.483 71.105C95.6798 69.9948 96.7389 67.3796 95.9467 65.0218C95.0268 62.2849 94.0796 59.5441 93.113 56.8062C93.4738 52.9506 93.6943 49.5581 93.8231 47.1727C96.02 46.3161 97.6794 44.3815 98.1527 42.0388C98.5323 40.1689 98.5323 38.2729 98.1526 36.4039ZM67.8808 19.69C68.2559 23.2886 68.4643 26.9168 68.5052 30.5049C59.8127 30.4545 51.106 30.4687 42.4222 30.549C42.4621 26.947 42.6707 23.3039 43.0471 19.6898C51.2912 18.8673 59.6363 18.8673 67.8808 19.69ZM55.9048 6.52763C55.9901 6.40731 56.1165 6.26387 56.2342 6.26387C57.0779 6.26387 58.8477 8.67114 60.1063 11.5303C60.3135 12.0369 60.8473 12.3347 61.3911 12.2405C61.9527 12.143 62.3627 11.6558 62.3627 11.0858C62.3627 11.0145 62.3559 10.9431 62.3428 10.8728C61.757 6.9128 62.4081 4.47193 62.9907 3.79612C63.2038 3.54877 63.4361 3.44329 63.7674 3.44329C66.4691 3.44329 66.5595 8.81881 66.5597 8.87162C66.5597 9.42555 66.9477 9.90338 67.4896 10.0178C68.0324 10.1323 68.5799 9.85118 68.8038 9.34445C69.6417 7.44921 72.0016 3.71034 73.9576 4.25223C74.2361 4.32942 74.4144 4.48349 74.5534 4.76725C75.052 5.78323 74.7852 8.03033 73.9122 10.3264C70.8128 12.1081 67.7216 14.3873 64.7903 17.0729C61.9698 16.8661 59.1411 16.7533 56.3117 16.7346C54.6788 11.6153 55.0613 7.71767 55.9048 6.52763ZM44.1823 10.9992H37.0514L37.0522 8.94865H44.1825L44.1823 10.9992ZM36.9733 3.57783H44.2607C44.7515 3.57783 45.1508 3.97706 45.1508 4.46786V6.60435H36.0833V4.46802C36.0833 3.97722 36.4825 3.57783 36.9733 3.57783ZM29.2055 30.3695C28.6113 27.2139 28.337 23.7986 28.2266 22.0459C28.1945 21.5205 28.3106 21.0125 28.5634 20.5749C30.7987 16.6885 35.1188 13.9757 36.1923 13.3429H45.0411C45.726 13.746 47.736 14.9975 49.6819 16.8625C47.0677 16.981 44.4579 17.1772 41.8588 17.4565C41.3127 17.5151 40.8806 17.9451 40.8194 18.4909C40.3686 22.506 40.1215 26.5642 40.0789 30.5727C36.4806 30.611 32.8866 30.6595 29.3002 30.7202C29.2617 30.6059 29.2283 30.4893 29.2055 30.3695ZM25.426 47.6509C25.4358 47.6512 25.4455 47.6521 25.4554 47.6523L25.4929 47.6529C26.0183 47.6627 26.5438 47.6713 27.0695 47.6807C26.5998 48.9433 26.1333 50.2072 25.6724 51.473C25.5691 50.0453 25.4885 48.7573 25.426 47.6509ZM78.7614 78.3095H38.1135C33.975 78.3095 30.2276 75.8255 28.5463 72.1197C30.0858 71.7358 31.4209 70.6277 32.0337 69.0648C32.7091 67.3433 33.3227 65.7573 33.9097 64.2165C34.1402 63.6116 33.8368 62.9346 33.2319 62.7041C32.627 62.4738 31.95 62.7771 31.7195 63.3819C31.1351 64.9157 30.5241 66.4945 29.8516 68.2091C29.366 69.4478 28.0422 70.1573 26.7693 69.8583C25.9696 69.6718 25.1888 69.3879 24.45 69.0149C23.2857 68.4254 22.727 67.0299 23.1501 65.7695C26.1548 56.8282 29.4322 47.8237 32.8913 39.0063C33.3777 37.7674 34.7024 37.0574 35.9718 37.3547C36.7794 37.5442 37.5603 37.8286 38.2943 38.2005C39.4588 38.7887 40.0171 40.1836 39.5931 41.4453C37.6267 47.2962 35.5335 53.2042 33.3713 59.0054C33.1452 59.6118 33.4536 60.2866 34.0601 60.5128C34.6666 60.739 35.3414 60.4304 35.5675 59.824C37.0409 55.8705 38.4813 51.8677 39.8729 47.867C46.035 47.9339 52.2356 47.9684 58.4374 47.9684C64.6397 47.9684 70.8409 47.934 77.0035 47.867C79.4775 54.9799 82.1032 62.0869 84.841 69.0637C85.454 70.6266 86.7892 71.7347 88.3289 72.1188C86.6479 75.825 82.9 78.3095 78.7614 78.3095ZM92.4257 69.0131C91.6888 69.3854 90.9076 69.6698 90.1039 69.8581C88.834 70.1558 87.5092 69.4462 87.023 68.2074C83.571 59.4102 80.2936 50.4057 77.2818 41.4439C76.8579 40.1826 77.4163 38.7876 78.5809 38.1991C79.3175 37.8268 80.0988 37.5424 80.9026 37.3541C81.0974 37.3085 81.2935 37.2864 81.4876 37.2864C82.5594 37.2864 83.5719 37.956 83.9835 39.0048C87.4355 47.802 90.7128 56.8065 93.7246 65.7684C94.1485 67.0297 93.5901 68.4246 92.4257 69.0131ZM89.8063 47.6807C90.331 47.6713 90.8559 47.6627 91.3806 47.6529L91.4225 47.6521C91.4314 47.652 91.4403 47.651 91.4492 47.6509C91.3866 48.7568 91.3059 50.0444 91.2028 51.4715C90.7418 50.2058 90.2756 48.9425 89.8063 47.6807ZM95.8553 41.5733C95.5009 43.3268 94.1496 44.7386 92.4055 45.1714C92.0767 45.2552 91.7292 45.3014 91.3758 45.3088L91.3369 45.3095C90.5359 45.3245 89.7351 45.3384 88.9341 45.352C88.0247 42.9393 87.102 40.5359 86.1653 38.1486C85.257 35.8331 82.7637 34.5105 80.3679 35.0721C79.383 35.3029 78.4259 35.6512 77.5235 36.1075C75.3267 37.2177 74.2676 39.8329 75.0599 42.1907C75.4339 43.3037 75.8121 44.4173 76.1941 45.5311C64.4012 45.6536 52.4725 45.6536 40.6795 45.5311C41.0617 44.417 41.4411 43.3034 41.8144 42.1922C42.6074 39.8337 41.5481 37.2183 39.352 36.109C38.4532 35.6537 37.4961 35.3051 36.5067 35.0728C34.1108 34.5116 31.6184 35.8345 30.7091 38.1501C29.7721 40.5384 28.8497 42.9413 27.9411 45.3522C27.1395 45.3386 26.3377 45.3245 25.5361 45.3097L25.5016 45.3091C25.1452 45.3016 24.798 45.2553 24.4623 45.1698C22.7251 44.7387 21.3735 43.327 21.0189 41.5724C20.7022 40.0122 20.7022 38.4301 21.0191 36.8692C21.4491 34.7454 23.3333 33.1742 25.4994 33.1333C47.3554 32.7138 69.519 32.7138 91.3753 33.1333C93.5412 33.1742 95.4253 34.7454 95.8555 36.87C96.1725 38.4299 96.1725 40.012 95.8553 41.5733Z" fill="#3BB77E"/>
<path d="M42.9464 51.98H42.8673C40.1834 51.9864 38.0176 54.1048 37.9366 56.8027C37.8415 59.9802 37.8415 63.2025 37.9366 66.3799C38.0176 69.0777 40.1833 71.1961 42.8682 71.2026H42.9464C45.6302 71.1961 47.7961 69.0778 47.877 66.3799C47.9722 63.2025 47.9722 59.9802 47.877 56.8027C47.7959 54.1046 45.6302 51.9864 42.9464 51.98ZM45.5341 66.3096C45.4921 67.7119 44.3286 68.8553 42.9417 68.8586H42.8729C41.4849 68.8553 40.3214 67.7117 40.2794 66.3096C40.1855 63.1787 40.1855 60.0038 40.2794 56.8729C40.3214 55.4706 41.4849 54.3272 42.8737 54.3239H42.9398C44.3278 54.3272 45.4921 55.4706 45.5341 56.8729C45.628 60.0038 45.628 63.1787 45.5341 66.3096Z" fill="#3BB77E"/>
<path d="M58.4775 51.98H58.3985C55.7146 51.9864 53.5488 54.1048 53.4678 56.8027C53.3727 59.9802 53.3727 63.2025 53.4678 66.3799C53.5488 69.0777 55.7145 71.1961 58.3994 71.2026H58.4775C61.1615 71.1961 63.3272 69.0777 63.4082 66.3799C63.5033 63.2025 63.5033 59.9802 63.4082 56.8027C63.3272 54.1048 61.1615 51.9864 58.4775 51.98ZM61.0653 66.3096C61.0233 67.7119 59.8599 68.8553 58.473 68.8586H58.4043C57.0162 68.8553 55.8528 67.7117 55.8107 66.3096C55.7168 63.1787 55.7168 60.0038 55.8107 56.8729C55.8528 55.4706 57.0162 54.3272 58.405 54.3239H58.4711C59.8591 54.3272 61.0233 55.4706 61.0653 56.8729C61.1592 60.0038 61.1592 63.1787 61.0653 66.3096Z" fill="#3BB77E"/>
<path d="M74.0067 51.98H73.9278C71.2438 51.9864 69.0781 54.1048 68.9972 56.8027C68.902 59.9802 68.902 63.2025 68.9972 66.3799C69.0781 69.0777 71.2438 71.1962 73.9287 71.2026H74.0069C76.6909 71.1961 78.8566 69.0777 78.9375 66.3799C79.0327 63.2025 79.0327 59.9802 78.9375 56.8027C78.8566 54.1048 76.6909 51.9864 74.0067 51.98ZM76.5946 66.3096C76.5526 67.7119 75.3893 68.8553 74.0022 68.8586H73.9336C72.5456 68.8553 71.3822 67.7117 71.3402 66.3096C71.2461 63.1787 71.2461 60.0038 71.3402 56.8729C71.3822 55.4706 72.5456 54.3272 73.9344 54.3239H74.0005C75.3885 54.3272 76.5527 55.4706 76.5948 56.8729C76.6885 60.0038 76.6885 63.1787 76.5946 66.3096Z" fill="#3BB77E"/>
</g>
</g>
</g>
</g>
<defs>
<clipPath id="clip0_6511_666">
<rect width="116" height="87" fill="white" transform="translate(0.4375 0.876465)"/>
</clipPath>
<clipPath id="clip1_6511_666">
<rect x="18.4375" y="0.876465" width="80" height="80" rx="10" fill="white"/>
</clipPath>
<clipPath id="clip2_6511_666">
<rect width="80" height="80" fill="white" transform="translate(18.4375 0.876465)"/>
</clipPath>
<clipPath id="clip3_6511_666">
<rect width="80" height="80" fill="white" transform="translate(18.4375 0.876465)"/>
</clipPath>
</defs>
</svg>
