<svg width="81" height="81" viewBox="0 0 81 81" fill="none" xmlns="http://www.w3.org/2000/svg">
<g clip-path="url(#clip0_6511_765)">
<g clip-path="url(#clip1_6511_765)">
<path d="M70.4375 78.8765C75.4081 78.8765 79.4375 74.847 79.4375 69.8765C79.4375 64.9059 75.4081 60.8765 70.4375 60.8765C65.4669 60.8765 61.4375 64.9059 61.4375 69.8765C61.4375 74.847 65.4669 78.8765 70.4375 78.8765Z" fill="#FDC040"/>
<path d="M2.4375 35.8765L3.4375 51.3765L12.4375 60.3765L13.4375 55.8765L14.4375 39.3765V24.3765L12.4375 22.3765L10.4375 21.3765H5.4375L2.4375 23.3765V26.8765V35.8765Z" fill="#FDC040"/>
<path d="M50.1926 32.2435L50.9104 30.8769L48.5536 29.6389L47.8358 31.0062C46.5296 33.4977 44.3646 35.4312 41.7425 36.4494V24.6216C44.8255 23.6691 47.4145 21.5496 48.9567 18.7149L49.5724 17.5752L47.2285 16.31L46.6135 17.4484C45.542 19.4177 43.8204 20.9541 41.7425 21.7947V12.948H39.0794V21.7947C37.0015 20.9541 35.2798 19.4177 34.209 17.4484L33.594 16.31L31.2501 17.5752L31.8652 18.7149C33.4074 21.5496 35.9963 23.6691 39.0794 24.6216V36.4494C36.4573 35.4312 34.2929 33.4977 32.9867 31.0062L32.2689 29.6389L29.9121 30.8769L30.6299 32.2435C32.3977 35.6172 35.4398 38.1463 39.0794 39.2685V51.0963C36.4573 50.0781 34.2929 48.1445 32.9867 45.6531L32.2689 44.2858L29.9121 45.5237L30.6299 46.8904C32.3977 50.2641 35.4398 52.7932 39.0794 53.9154V72.867H41.7425V53.9154C45.3827 52.7932 48.4242 50.2641 50.1926 46.8904L50.9104 45.5237L48.5536 44.2858L47.8358 45.6531C46.5296 48.1445 44.3646 50.0781 41.7425 51.0963V39.2685C45.3827 38.1463 48.4242 35.6172 50.1926 32.2435Z" fill="#3BB77E"/>
<path d="M73.4332 60.2376C74.751 59.0985 75.7406 57.6272 76.2984 55.9764L73.7686 55.1351C73.2758 56.6064 72.3168 57.8768 71.036 58.7526V52.894H68.373V58.7526C67.0941 57.8781 66.1357 56.6103 65.6423 55.1416L63.1125 55.9836C63.6703 57.6337 64.6599 59.105 65.9778 60.2441C61.1496 62.0457 58.3039 67.0454 59.2193 72.1167C60.1347 77.1873 64.5487 80.8763 69.7019 80.8763C74.8551 80.8763 79.2697 77.1873 80.1851 72.1167C81.1005 67.0454 78.2541 62.0457 73.426 60.2441L73.4332 60.2376ZM69.7045 78.1931C65.2925 78.1931 61.7153 74.6166 61.7153 70.2039C61.7153 65.7919 65.2925 62.2147 69.7045 62.2147C74.1171 62.2147 77.6937 65.7919 77.6937 70.2039C77.6898 74.6146 74.1152 78.1886 69.7045 78.1931Z" fill="#3BB77E"/>
<path d="M76.353 2.46103C76.4005 2.08199 76.2828 1.70099 76.0299 1.41492C75.7776 1.12885 75.4142 0.964355 75.0319 0.964355H71.0373C70.3969 0.964355 69.8469 1.42077 69.7285 2.05078L69.7058 2.17236L69.6837 2.05078C69.5653 1.42077 69.0153 0.964355 68.3742 0.964355H64.3796C63.998 0.964355 63.6346 1.12885 63.3816 1.41492C63.1294 1.70099 63.0117 2.08199 63.0592 2.46103L65.7112 23.683V34.5193C65.6188 37.2903 65.217 40.0424 64.5129 42.7243C64.3549 43.4167 64.338 44.1352 64.4635 44.8347C64.866 47.0212 66.5759 48.7338 68.7617 49.1395C69.0699 49.1928 69.3813 49.2201 69.6941 49.2207C71.1082 49.2227 72.4644 48.6622 73.465 47.6636C74.4656 46.6643 75.028 45.3087 75.028 43.8946C75.028 43.6358 75.0091 43.3777 74.9721 43.1222L74.6847 41.2263C74.1106 38.0438 73.7816 34.8222 73.7004 31.5896V23.683L76.353 2.46103ZM65.8887 3.62742H67.269L71.0373 23.7246V27.9078L68.3307 23.172L65.8887 3.62742ZM71.4183 45.9316C70.8084 46.4452 70.0003 46.6584 69.2162 46.5122C68.1363 46.2996 67.293 45.453 67.0856 44.3725C67.0206 44.0194 67.0284 43.6573 67.1084 43.3075C67.8593 40.4351 68.2839 37.4866 68.3742 34.5193V28.6138L71.1004 33.3834C71.2753 36.1466 71.5945 38.8981 72.0561 41.6281L72.3409 43.5097C72.3597 43.6358 72.3695 43.7639 72.3688 43.892C72.3688 44.6787 72.021 45.4257 71.4183 45.9316ZM72.1029 14.9708L71.0178 9.18371L71.0945 9.19867L72.1426 3.62742H73.5235L72.1029 14.9708Z" fill="#3BB77E"/>
<path d="M61.7167 23.6004C61.7316 20.0291 59.6895 16.7679 56.4692 15.2224C55.8412 14.9403 55.5427 14.2173 55.7891 13.5743C57.2683 9.64338 55.9361 5.20862 52.5351 2.74385C49.1341 0.279084 44.5049 0.393512 41.2301 3.02277C40.7541 3.41222 40.0702 3.41222 39.5949 3.02277C37.6353 1.44092 35.1172 0.722495 32.6173 1.03262C29.7794 1.38176 27.2594 3.01432 25.7796 5.46153C24.3005 7.90809 24.0261 10.8989 25.0358 13.5743C25.2822 14.2173 24.9831 14.9403 24.3551 15.2224C21.7915 16.4668 19.9385 18.8159 19.3261 21.5992C18.713 24.3819 19.4086 27.292 21.2128 29.4981C21.5672 29.9428 21.5672 30.5734 21.2128 31.0188C18.4048 34.4497 18.4048 39.3851 21.2128 42.816C21.5639 43.2821 21.5483 43.9278 21.1758 44.3764C18.9418 47.1415 18.4757 50.9365 19.973 54.16C21.4703 57.3835 24.6711 59.4751 28.2248 59.5518L29.9757 71.8022C30.7195 76.9944 35.1673 80.8505 40.4121 80.8505C45.6577 80.8505 50.1054 76.9944 50.8492 71.8022L52.6001 59.5518C56.1545 59.4751 59.3559 57.3829 60.8533 54.1581C62.3499 50.9326 61.8818 47.137 59.6466 44.3725C59.274 43.9239 59.2584 43.2776 59.6089 42.8121C62.4176 39.3812 62.4176 34.4458 59.6089 31.0142C59.2552 30.5695 59.2552 29.9389 59.6089 29.4941C60.969 27.8304 61.7134 25.7492 61.7167 23.6004ZM57.5517 32.7053C58.5218 33.8944 59.0523 35.3814 59.0536 36.9158C59.0595 38.4521 58.5276 39.9423 57.5504 41.1275C56.3951 42.5696 56.4055 44.6241 57.5758 46.0544C59.1836 48.0498 59.5035 50.7909 58.3982 53.1029C57.293 55.4148 54.9589 56.8868 52.3959 56.8887C52.1385 56.8809 51.881 56.8562 51.6268 56.8159C51.279 56.7678 50.9272 56.8608 50.6477 57.0727C50.3687 57.2853 50.186 57.6 50.1392 57.9472L48.2141 71.4277C47.6569 75.3085 44.3326 78.19 40.4121 78.19C36.4923 78.19 33.1674 75.3085 32.6108 71.4277L30.6922 57.9544C30.5589 57.2866 29.9666 56.8101 29.2859 56.8224C29.2261 56.8224 29.1669 56.8263 29.1078 56.8341C26.9908 57.0695 24.8908 56.2652 23.4728 54.6756C21.2922 52.2472 21.1998 48.594 23.2557 46.0583C24.4259 44.628 24.4363 42.5741 23.281 41.1314C22.2999 39.9462 21.7661 38.4547 21.7707 36.9158C21.7726 35.3814 22.3025 33.8944 23.2726 32.7053C24.4337 31.2808 24.4337 29.236 23.2726 27.8109C21.9846 26.2355 21.4885 24.1576 21.9267 22.1701C22.3643 20.1832 23.688 18.5058 25.5189 17.6183C27.3861 16.7321 28.26 14.5606 27.5259 12.6289C27.1202 11.562 26.9986 10.408 27.1716 9.27994C27.6358 6.3412 29.9809 4.05913 32.932 3.67684C34.7187 3.45058 36.5209 3.96161 37.924 5.09224C39.3803 6.25213 41.4446 6.25213 42.901 5.09224C44.3027 3.95966 46.105 3.44668 47.8929 3.67163C50.8434 4.05588 53.1885 6.336 53.6547 9.27473C53.8263 10.4028 53.7041 11.5562 53.299 12.6231C52.565 14.5554 53.4382 16.7269 55.3054 17.6124C57.1363 18.5006 58.46 20.178 58.8982 22.1649C59.3358 24.1518 58.8397 26.2303 57.5517 27.8057C56.3879 29.2315 56.3879 31.2795 57.5517 32.7053Z" fill="#3BB77E"/>
<path d="M0.718983 26.5657L2.94839 75.5938C3.07778 78.541 5.50483 80.8634 8.45397 80.8634C11.4038 80.8634 13.8302 78.541 13.9602 75.5938L16.189 26.5657C16.2781 24.7479 15.6136 22.9742 14.3516 21.6629C14.1969 21.5003 14.0161 21.3768 13.8484 21.2318L15.1117 1.04681L12.4486 0.881666L11.2653 19.8586C10.7822 19.7273 10.2861 19.6512 9.7855 19.6311V0.964237H7.12244V19.6311C6.64912 19.6486 6.17905 19.7169 5.72069 19.8346L4.45937 0.876465L1.7963 1.05201L3.12784 21.025L3.31313 21.0133C3.04462 21.211 2.79105 21.4281 2.55439 21.6629C1.29308 22.9749 0.629261 24.7485 0.718983 26.5657ZM4.48213 23.5035C5.23372 22.7116 6.27853 22.2649 7.37015 22.2688H9.53779C10.6294 22.2675 11.6743 22.7135 12.4284 23.5022C13.1833 24.2908 13.5825 25.3545 13.5324 26.4448L12.9323 39.5787H8.45397V42.2418H12.8107L11.8413 63.5463H8.45397V66.2094H11.7204L11.2998 75.4742C11.2334 76.9982 9.97925 78.199 8.45397 78.199C6.92934 78.199 5.67453 76.9982 5.60886 75.4742L4.58225 52.8941H8.45397V50.231H4.45937L3.61416 31.5895H8.45397V28.9265H3.49258L3.37945 26.4448C3.32549 25.3538 3.72469 24.2895 4.48213 23.5035Z" fill="#3BB77E"/>
<path d="M64.3789 70.2039C64.3782 71.5146 64.8613 72.7792 65.7357 73.7551L67.72 71.9788C67.1277 71.317 66.9047 70.4035 67.1251 69.5433C67.3449 68.6825 67.9795 67.9888 68.8169 67.6929L67.93 65.1814C65.804 65.9362 64.3821 67.9472 64.3789 70.2039Z" fill="#3BB77E"/>
</g>
</g>
<defs>
<clipPath id="clip0_6511_765">
<rect width="80" height="80" fill="white" transform="translate(0.4375 0.876465)"/>
</clipPath>
<clipPath id="clip1_6511_765">
<rect width="80" height="80" fill="white" transform="translate(0.4375 0.876465)"/>
</clipPath>
</defs>
</svg>
