<svg width="17" height="17" viewBox="0 0 17 17" fill="none" xmlns="http://www.w3.org/2000/svg">
<g clip-path="url(#clip0_6511_941)">
<g clip-path="url(#clip1_6511_941)">
<mask id="mask0_6511_941" style="mask-type:luminance" maskUnits="userSpaceOnUse" x="1" y="1" width="16" height="16">
<path d="M16.1819 1.33496H1.12305V16.3938H16.1819V1.33496Z" fill="white"/>
</mask>
<g mask="url(#mask0_6511_941)">
<path d="M7.39755 16.3938H1.12305V15.1389H7.39755V16.3938ZM6.14266 12.6291H1.12305V13.884H6.14266V12.6291ZM4.88776 10.1193H1.12305V11.3742H4.88776V10.1193ZM8.65246 1.33496C6.6562 1.33712 4.74232 2.13108 3.33075 3.54266C1.91917 4.95423 1.12521 6.86811 1.12305 8.86437H2.37795C2.37795 7.62339 2.74594 6.41028 3.4354 5.37844C4.12485 4.3466 5.10479 3.54239 6.2513 3.06748C7.39783 2.59258 8.65942 2.46833 9.87659 2.71043C11.0937 2.95253 12.2117 3.55011 13.0892 4.42762C13.9668 5.30513 14.5643 6.42314 14.8064 7.64028C15.0485 8.85741 14.9242 10.119 14.4494 11.2656C13.9745 12.412 13.1702 13.392 12.1384 14.0815C11.1065 14.7709 9.89344 15.1389 8.65246 15.1389V16.3938C10.6494 16.3938 12.5645 15.6005 13.9765 14.1885C15.3886 12.7764 16.1819 10.8613 16.1819 8.86437C16.1819 6.86745 15.3886 4.95232 13.9765 3.54027C12.5645 2.12823 10.6494 1.33496 8.65246 1.33496ZM8.02501 5.72712V9.12414L10.0912 11.1904L10.9784 10.3031L9.27991 8.60461V5.72712H8.02501Z" fill="#3BB77E"/>
</g>
</g>
</g>
<defs>
<clipPath id="clip0_6511_941">
<rect width="16" height="16" fill="white" transform="translate(0.4375 0.516602)"/>
</clipPath>
<clipPath id="clip1_6511_941">
<rect width="16" height="16" fill="white" transform="translate(0.4375 0.516602)"/>
</clipPath>
</defs>
</svg>
