<svg width="17" height="17" viewBox="0 0 17 17" fill="none" xmlns="http://www.w3.org/2000/svg">
<g clip-path="url(#clip0_6511_923)">
<g clip-path="url(#clip1_6511_923)">
<mask id="mask0_6511_923" style="mask-type:luminance" maskUnits="userSpaceOnUse" x="0" y="0" width="16" height="16">
<path d="M15.8108 0.92627H0.751953V15.9851H15.8108V0.92627Z" fill="white"/>
</mask>
<g mask="url(#mask0_6511_923)">
<path d="M13.9288 8.72171V7.82821C13.9288 6.33053 13.3339 4.89417 12.2749 3.83514C11.2158 2.77612 9.77945 2.18115 8.28175 2.18115C6.78406 2.18115 5.34771 2.77612 4.28868 3.83514C3.22965 4.89417 2.6347 6.33053 2.6347 7.82821V8.72171C1.9766 9.01149 1.43802 9.51854 1.10913 10.158C0.780229 10.7974 0.680978 11.5305 0.827988 12.2343C0.974997 12.9382 1.35934 13.5702 1.91668 14.0246C2.47403 14.4789 3.17054 14.728 3.88959 14.7302H5.1445V8.45566H3.88959V7.82821C3.88959 6.66334 4.35234 5.54618 5.17603 4.72249C5.99972 3.8988 7.11688 3.43606 8.28175 3.43606C9.44663 3.43606 10.5638 3.8988 11.3875 4.72249C12.2111 5.54618 12.6739 6.66334 12.6739 7.82821V8.45566H11.419V13.4753H8.90921V14.7302H12.6739C13.393 14.728 14.0894 14.4789 14.6468 14.0246C15.2042 13.5702 15.5885 12.9382 15.7356 12.2343C15.8826 11.5305 15.7833 10.7974 15.4543 10.158C15.1255 9.51854 14.5869 9.01149 13.9288 8.72171ZM3.88959 13.4753C3.39037 13.4753 2.91158 13.2769 2.55857 12.924C2.20557 12.5709 2.00724 12.0922 2.00724 11.593C2.00724 11.0937 2.20557 10.6149 2.55857 10.2619C2.91158 9.90889 3.39037 9.71056 3.88959 9.71056V13.4753ZM12.6739 13.4753V9.71056C13.1731 9.71056 13.6519 9.90889 14.0049 10.2619C14.358 10.6149 14.5563 11.0937 14.5563 11.593C14.5563 12.0922 14.358 12.5709 14.0049 12.924C13.6519 13.2769 13.1731 13.4753 12.6739 13.4753Z" fill="#3BB77E"/>
</g>
</g>
</g>
<defs>
<clipPath id="clip0_6511_923">
<rect width="16" height="16" fill="white" transform="translate(0.4375 0.516602)"/>
</clipPath>
<clipPath id="clip1_6511_923">
<rect width="16" height="16" fill="white" transform="translate(0.4375 0.516602)"/>
</clipPath>
</defs>
</svg>
