<svg width="37" height="37" viewBox="0 0 37 37" fill="none" xmlns="http://www.w3.org/2000/svg">
<g clip-path="url(#clip0_6511_153)">
<path d="M31.7959 19.5425V17.4065C31.7959 13.8261 30.3736 10.3923 27.8419 7.86055C25.3101 5.32881 21.8764 3.90649 18.2959 3.90649C14.7155 3.90649 11.2817 5.32881 8.75001 7.86055C6.21826 10.3923 4.79595 13.8261 4.79595 17.4065V19.5425C3.22269 20.2352 1.93515 21.4474 1.14888 22.9761C0.362611 24.5048 0.125338 26.2571 0.476783 27.9399C0.828228 29.6226 1.74706 31.1335 3.07945 32.2197C4.41185 33.3059 6.07693 33.9014 7.79595 33.9065H10.7959V18.9065H7.79595V17.4065C7.79595 14.6217 8.90219 11.951 10.8713 9.98187C12.8405 8.01274 15.5112 6.90649 18.2959 6.90649C21.0807 6.90649 23.7514 8.01274 25.7206 9.98187C27.6897 11.951 28.7959 14.6217 28.7959 17.4065V18.9065H25.7959V30.9065H19.7959V33.9065H28.7959C30.515 33.9014 32.18 33.3059 33.5124 32.2197C34.8448 31.1335 35.7637 29.6226 36.1151 27.9399C36.4666 26.2571 36.2293 24.5048 35.443 22.9761C34.6567 21.4474 33.3692 20.2352 31.7959 19.5425ZM7.79595 30.9065C6.60247 30.9065 5.45788 30.4324 4.61397 29.5885C3.77005 28.7446 3.29595 27.6 3.29595 26.4065C3.29595 25.213 3.77005 24.0684 4.61397 23.2245C5.45788 22.3806 6.60247 21.9065 7.79595 21.9065V30.9065ZM28.7959 30.9065V21.9065C29.9894 21.9065 31.134 22.3806 31.9779 23.2245C32.8218 24.0684 33.2959 25.213 33.2959 26.4065C33.2959 27.6 32.8218 28.7446 31.9779 29.5885C31.134 30.4324 29.9894 30.9065 28.7959 30.9065Z" fill="#253D4E"/>
</g>
<defs>
<clipPath id="clip0_6511_153">
<rect width="36" height="36" fill="white" transform="translate(0.296875 0.906494)"/>
</clipPath>
</defs>
</svg>
