<svg width="17" height="31" viewBox="0 0 17 31" fill="none" xmlns="http://www.w3.org/2000/svg">
<g clip-path="url(#clip0_6511_1024)">
<g clip-path="url(#clip1_6511_1024)">
<path fill-rule="evenodd" clip-rule="evenodd" d="M6.87306 15.5684V21.2975C6.87306 21.3749 6.93758 21.4523 7.0279 21.4523H9.15693C9.23435 21.4523 9.31177 21.3878 9.31177 21.2975V15.4652H10.8473C10.9247 15.4652 10.9892 15.4007 11.0021 15.3233L11.1311 13.5813C11.144 13.491 11.0666 13.4136 10.9763 13.4136H9.29887V12.1749C9.29887 11.8781 9.53112 11.6459 9.8279 11.6459H11.015C11.0924 11.6459 11.1698 11.5813 11.1698 11.491V9.74908C11.1698 9.67166 11.1053 9.59424 11.015 9.59424H9.00209C7.8279 9.59424 6.87306 10.5491 6.87306 11.7233V13.4136H5.815C5.73758 13.4136 5.66016 13.4781 5.66016 13.5684V15.3233C5.66016 15.4007 5.72467 15.4781 5.815 15.4781H6.87306V15.5684Z" fill="white"/>
</g>
</g>
<defs>
<clipPath id="clip0_6511_1024">
<rect width="16" height="30" fill="white" transform="translate(0.408203 0.516602)"/>
</clipPath>
<clipPath id="clip1_6511_1024">
<rect width="16" height="30" fill="white" transform="translate(0.408203 0.516602)"/>
</clipPath>
</defs>
</svg>
