<?xml version="1.0" encoding="UTF-8"?>
<svg version="1.1" xmlns="http://www.w3.org/2000/svg" width="1300" height="807">
<path d="M0 0 C429 0 858 0 1300 0 C1300 266.31 1300 532.62 1300 807 C871 807 442 807 0 807 C0 540.69 0 274.38 0 0 Z " fill="#FEF1D8" transform="translate(0,0)"/>
<path d="M0 0 C0.66 0.33 1.32 0.66 2 1 C1.01 20.14 0.02 39.28 -1 59 C0.32 57.02 1.64 55.04 3 53 C3.66 52.34 4.32 51.68 5 51 C5.99 51 6.98 51 8 51 C8 51.99 8 52.98 8 54 C7.24332031 54.73605469 6.48664063 55.47210937 5.70703125 56.23046875 C2.69617859 59.31083605 1.22519878 62.37290761 -0.3125 66.3125 C-0.57611328 66.95767578 -0.83972656 67.60285156 -1.11132812 68.26757812 C-1.75215181 69.84050898 -2.37769715 71.41965015 -3 73 C16.49820356 73.26572664 35.44747991 72.78187274 54.75732422 69.83642578 C66.83984292 67.99508689 78.78622328 67.27821815 91 67 C92.11858398 66.96712891 92.11858398 66.96712891 93.25976562 66.93359375 C111.55113894 66.41542453 126.59380711 70.23202513 142.45703125 79.09765625 C145.87852933 80.99001448 149.38471456 82.51407602 153 84 C153 85.32 153 86.64 153 88 C147.60022428 86.69026717 142.89364414 85.12333157 138.1875 82.125 C124.97735748 73.78830095 111.45139495 71.64770005 96.125 71.8125 C94.20506226 71.82543091 94.20506226 71.82543091 92.24633789 71.83862305 C73.14753639 71.93952425 73.14753639 71.93952425 54.20701599 74.10861206 C43.20675475 76.00252911 32.43102655 76.4664086 21.28442383 76.39111328 C18.37991781 76.37467409 15.47673618 76.39125987 12.57226562 76.41015625 C10.71353861 76.4081793 8.85481242 76.40434705 6.99609375 76.3984375 C6.13374619 76.40451019 5.27139862 76.41058289 4.38291931 76.4168396 C-1.52697431 76.34663992 -1.52697431 76.34663992 -3.73400879 74.72929382 C-5.29473598 72.59740234 -5.33402614 71.56002976 -5.22631836 68.94311523 C-5.19899628 68.14420868 -5.17167419 67.34530212 -5.14352417 66.52218628 C-5.07247971 65.27370407 -5.07247971 65.27370407 -5 64 C-4.95996857 63.20272491 -4.91993713 62.40544983 -4.87869263 61.58401489 C-4.73433618 59.02413419 -4.5602139 56.46767677 -4.37890625 53.91015625 C-4.31468979 52.96675888 -4.25047333 52.02336151 -4.18431091 51.05137634 C-3.97990354 48.05487957 -3.77144596 45.05868341 -3.5625 42.0625 C-3.29137485 38.13682701 -3.0223658 34.21101231 -2.75390625 30.28515625 C-2.68805328 29.33355621 -2.62220032 28.38195618 -2.55435181 27.40151978 C-2.23967298 22.79618798 -1.94887036 18.19170349 -1.71435547 13.58154297 C-1.67148911 12.7419957 -1.62862274 11.90244843 -1.5844574 11.03746033 C-1.50653222 9.46326033 -1.43280427 7.88884518 -1.36390686 6.31422424 C-1.10876682 1.10876682 -1.10876682 1.10876682 0 0 Z " fill="#F4EACE" transform="translate(1147,520)"/>
<path d="M0 0 C1.47726562 0.02707031 1.47726562 0.02707031 2.984375 0.0546875 C4.10585938 0.08949219 4.10585938 0.08949219 5.25 0.125 C2.09119944 2.23086704 -0.82339111 3.35279473 -4.375 4.6875 C-25.71159914 13.06816153 -46.02154351 25.63576103 -62.2890625 41.83203125 C-64.4266774 43.82374545 -66.07123587 45.03714509 -68.75 46.125 C-68.75 46.785 -68.75 47.445 -68.75 48.125 C-71.125 50.75 -71.125 50.75 -73.75 53.125 C-74.41 53.125 -75.07 53.125 -75.75 53.125 C-75.75 53.785 -75.75 54.445 -75.75 55.125 C-76.41 55.125 -77.07 55.125 -77.75 55.125 C-77.75 55.785 -77.75 56.445 -77.75 57.125 C-78.41 57.125 -79.07 57.125 -79.75 57.125 C-79.976875 57.66125 -80.20375 58.1975 -80.4375 58.75 C-82.71544882 62.87200263 -85.15118471 66.59206157 -89.75 68.125 C-88.29135396 63.64132099 -85.80053346 60.44343865 -82.75 56.9375 C-82.26233154 56.37015137 -81.77466309 55.80280273 -81.2722168 55.21826172 C-74.33852448 47.24120952 -66.82451308 39.93739522 -58.75 33.125 C-58.03457031 32.485625 -57.31914063 31.84625 -56.58203125 31.1875 C-42.67792532 19.1623273 -26.35690701 9.86656567 -9.75 2.125 C-9.06679688 1.73054687 -8.38359375 1.33609375 -7.6796875 0.9296875 C-5.05215855 -0.16600271 -2.83217004 -0.06743262 0 0 Z " fill="#F4EBCE" transform="translate(973.75,-0.125)"/>
<path d="M0 0 C0.66 0 1.32 0 2 0 C0.66699853 2.90072277 -0.83344731 5.16731827 -2.93359375 7.56640625 C-3.50013672 8.21673828 -4.06667969 8.86707031 -4.65039062 9.53710938 C-5.24013672 10.20548828 -5.82988281 10.87386719 -6.4375 11.5625 C-7.02337891 12.23474609 -7.60925781 12.90699219 -8.21289062 13.59960938 C-13.96771978 20.17749014 -13.96771978 20.17749014 -16 22 C-16.66 22 -17.32 22 -18 22 C-18.495 23.485 -18.495 23.485 -19 25 C-20.35546875 26.40234375 -20.35546875 26.40234375 -22.1875 27.9375 C-23.27998047 28.85982422 -23.27998047 28.85982422 -24.39453125 29.80078125 C-25.68423828 30.88939453 -25.68423828 30.88939453 -27 32 C-28.00575439 32.88723228 -29.00954568 33.77669317 -30.01171875 34.66796875 C-42.72772383 45.90365388 -56.00502479 56.89282765 -72 63 C-72.72574219 63.30035156 -73.45148437 63.60070312 -74.19921875 63.91015625 C-81.77981925 66.78356482 -90.03282658 67.71025092 -98 69 C-97.67 68.01 -97.34 67.02 -97 66 C-95.21264648 65.32739258 -95.21264648 65.32739258 -92.87109375 64.89453125 C-91.57703613 64.63265015 -91.57703613 64.63265015 -90.25683594 64.36547852 C-89.32645508 64.18299561 -88.39607422 64.0005127 -87.4375 63.8125 C-73.01494458 60.69023022 -60.50037626 54.51233456 -48.890625 45.33203125 C-47 44 -47 44 -45 44 C-45 43.34 -45 42.68 -45 42 C-43.17683597 40.51195381 -41.3428941 39.12611796 -39.4375 37.75 C-33.17678238 33.11200838 -27.52836635 27.98166622 -21.93920898 22.55957031 C-21.33794189 21.98174805 -20.7366748 21.40392578 -20.1171875 20.80859375 C-19.58722168 20.29095459 -19.05725586 19.77331543 -18.51123047 19.23999023 C-17 18 -17 18 -14 17 C-13.30238647 15.68259437 -12.63910062 14.34676376 -12 13 C-10.44921875 11.2890625 -10.44921875 11.2890625 -8.6875 9.625 C-6.35011225 7.37039473 -4.20736188 5.10536183 -2.1875 2.5625 C-1.465625 1.716875 -0.74375 0.87125 0 0 Z " fill="#F4EBCE" transform="translate(1036,443)"/>
<path d="M0 0 C0.495 0.99 0.495 0.99 1 2 C0.19897461 3.68896484 0.19897461 3.68896484 -1.09765625 5.7109375 C-1.57009766 6.46246094 -2.04253906 7.21398438 -2.52929688 7.98828125 C-3.03525391 8.77589844 -3.54121094 9.56351563 -4.0625 10.375 C-11.56498166 22.10835624 -16.83249422 33.60950115 -20.75 47 C-21.51050339 49.56407376 -22.27812086 52.12587289 -23.046875 54.6875 C-23.37526367 55.80511719 -23.70365234 56.92273438 -24.04199219 58.07421875 C-24.85169513 60.547073 -25.75512349 62.72349613 -27 65 C-26.34 65 -25.68 65 -25 65 C-26 68 -26 68 -28 69 C-28.86030087 72.60335442 -29.47756952 76.22713694 -30.12109375 79.875 C-30.41113281 80.90625 -30.70117188 81.9375 -31 83 C-32.485 83.495 -32.485 83.495 -34 84 C-36.91487269 71.18228169 -28.4423721 55.39956709 -23.96533203 43.55761719 C-23.1193375 41.31618099 -22.2901735 39.06940507 -21.46484375 36.8203125 C-16.54097923 23.84544944 -9.94027602 9.94027602 0 0 Z " fill="#F4EBCE" transform="translate(730,25)"/>
<path d="M0 0 C-0.49608646 4.14653402 -2.54310204 5.7281262 -5.6875 8.3125 C-22.08592249 21.17732693 -40.93323191 24.31084935 -61 27 C-60.505 25.515 -60.505 25.515 -60 24 C-57.52246094 23.09619141 -57.52246094 23.09619141 -54.234375 22.3515625 C-53.03296875 22.06796875 -51.8315625 21.784375 -50.59375 21.4921875 C-48.69109375 21.06292969 -48.69109375 21.06292969 -46.75 20.625 C-34.78813042 17.89951073 -22.66315868 15.11737193 -12.5 7.9375 C-11.5615625 7.28652344 -10.623125 6.63554687 -9.65625 5.96484375 C-7.82642821 4.61131381 -6.03592461 3.20352967 -4.28125 1.75390625 C-2 0 -2 0 0 0 Z " fill="#F4EACE" transform="translate(1300,272)"/>
<path d="M0 0 C0.66 0.66 1.32 1.32 2 2 C0.92298828 1.89171875 0.92298828 1.89171875 -0.17578125 1.78125 C-10.12908942 0.88879896 -20.01454075 0.90510123 -30 1 C-29.36610352 1.07516846 -28.73220703 1.15033691 -28.07910156 1.2277832 C-1.66794042 4.40086404 -1.66794042 4.40086404 5 7 C5.495 7.99 5.495 7.99 6 9 C0.90714229 8.41923552 -3.98849939 7.59901329 -9 6.5 C-19.8598772 4.27634911 -30.95296646 4.25044001 -42 4 C-42 3.34 -42 2.68 -42 2 C-45.63 2 -49.26 2 -53 2 C-49.96350723 -0.02432851 -48.90612962 -0.31763639 -45.421875 -0.6328125 C-44.5155835 -0.71692383 -43.60929199 -0.80103516 -42.67553711 -0.88769531 C-41.71010986 -0.96600586 -40.74468262 -1.04431641 -39.75 -1.125 C-38.75943604 -1.2084668 -37.76887207 -1.29193359 -36.74829102 -1.37792969 C-24.4913738 -2.35220002 -12.04564114 -3.03482716 0 0 Z " fill="#F5EBCF" transform="translate(183,519)"/>
<path d="M0 0 C0 0.66 0 1.32 0 2 C-0.70608398 2.14099121 -1.41216797 2.28198242 -2.13964844 2.42724609 C-5.34431504 3.0706032 -8.54714193 3.72270167 -11.75 4.375 C-12.86117187 4.59671875 -13.97234375 4.8184375 -15.1171875 5.046875 C-16.18710937 5.26601563 -17.25703125 5.48515625 -18.359375 5.7109375 C-19.83615723 6.00943604 -19.83615723 6.00943604 -21.34277344 6.31396484 C-23.83070296 6.95629137 -25.81134612 7.66318371 -28 9 C-28.33 9.66 -28.66 10.32 -29 11 C-18.83939281 10.08506381 -9.56841835 8.79786933 0 5 C-0.18359375 6.86328125 -0.18359375 6.86328125 -1 9 C-9.18055401 13.5287777 -19.75537104 15.0252502 -29 14 C-31.265625 12.98828125 -31.265625 12.98828125 -33 12 C-32.74609375 9.6328125 -32.74609375 9.6328125 -32 7 C-24.30381838 1.14144094 -9.46551477 0 0 0 Z " fill="#F4EBCF" transform="translate(856,370)"/>
<path d="M0 0 C0.91257568 0.30043213 1.82515137 0.60086426 2.76538086 0.91040039 C7.17609871 2.41276415 11.18236564 3.91364001 15.0625 6.5625 C11.39714459 7.78428514 10.28726017 7.19781166 6.6953125 5.9453125 C5.11943359 5.40583984 5.11943359 5.40583984 3.51171875 4.85546875 C2.41472656 4.47003906 1.31773437 4.08460938 0.1875 3.6875 C-1.97564074 2.93744055 -4.13967428 2.18994985 -6.3046875 1.4453125 C-7.26487793 1.10902832 -8.22506836 0.77274414 -9.21435547 0.42626953 C-15.63524887 -1.61040976 -21.69017928 -1.62911437 -28.375 -1.625 C-29.4479834 -1.62564453 -30.5209668 -1.62628906 -31.62646484 -1.62695312 C-38.61519253 -1.58056543 -45.25097381 -1.13579487 -52.1328125 0.125 C-55.10884329 0.58922764 -57.93034991 0.63388635 -60.9375 0.5625 C-60.9375 -0.0975 -60.9375 -0.7575 -60.9375 -1.4375 C-39.50280694 -5.665932 -21.09506014 -6.94745328 0 0 Z " fill="#F5EBCF" transform="translate(188.9375,537.4375)"/>
<path d="M0 0 C0 0.66 0 1.32 0 2 C0.99 2.33 1.98 2.66 3 3 C-0.92536567 5.44029387 -4.98029741 7.52804342 -9.125 9.5625 C-30.13305789 20.01385568 -49.31425075 30.20125471 -66 47 C-66.66 46.67 -67.32 46.34 -68 46 C-54.67017825 29.30360211 -35.75547745 19.70322708 -17 10.3125 C-16.36973907 9.99632721 -15.73947815 9.68015442 -15.09011841 9.35440063 C-4.3772985 4 -4.3772985 4 -2 4 C-2 3.34 -2 2.68 -2 2 C-2.99 1.67 -3.98 1.34 -5 1 C-3 0 -3 0 0 0 Z " fill="#F5EBCF" transform="translate(108,469)"/>
<path d="M0 0 C0 3.65362776 -0.7833381 4.30245998 -3.0625 7.0625 C-11.63826376 16.89184068 -11.63826376 16.89184068 -15 29 C-14.34 29 -13.68 29 -13 29 C-13.37470761 32.27869156 -13.87438246 33.84690363 -16 36.4375 C-18.28152851 39.3607084 -18.66101098 41.35586806 -19 45 C-19.66 44.67 -20.32 44.34 -21 44 C-22.15811388 45.05270463 -22.15811388 45.05270463 -23 47 C-22.34 47 -21.68 47 -21 47 C-21.54226981 50.79588866 -23.20127563 52.47211993 -26 55 C-27.08159595 51.7780533 -26.97208792 50.17698911 -25.56640625 47.1015625 C-25.24736328 46.37453125 -24.92832031 45.6475 -24.59960938 44.8984375 C-24.25736328 44.14820313 -23.91511719 43.39796875 -23.5625 42.625 C-21.20197781 37.44533988 -19.83704485 33.77675993 -20 28 C-17.38461657 21.03667957 -12.65681691 14.91963802 -8.3125 8.9375 C-7.83707764 8.28209229 -7.36165527 7.62668457 -6.87182617 6.95141602 C-4.73717862 4.07922833 -3.00292841 2.00195227 0 0 Z M-24 47 C-23 49 -23 49 -23 49 Z " fill="#F6ECD1" transform="translate(73,567)"/>
<path d="M0 0 C4.35840725 4.35840725 3.12144405 13.06530015 3.13894653 18.90724182 C3.1369223 20.02195358 3.13489807 21.13666534 3.1328125 22.28515625 C3.13376923 23.45904404 3.13472595 24.63293182 3.13571167 25.84239197 C3.13639013 28.32095392 3.13455921 30.79951767 3.13037109 33.27807617 C3.12505192 37.02592076 3.13031008 40.77364366 3.13671875 44.52148438 C3.14643815 75.21715202 3.14643815 75.21715202 1 85 C0.67 85 0.34 85 0 85 C0 56.95 0 28.9 0 0 Z " fill="#F5EBCF" transform="translate(1159,451)"/>
<path d="M0 0 C0.66 0 1.32 0 2 0 C0.26769533 13.09907092 -15.26449303 28.36264952 -23.92578125 37.734375 C-25.81245969 39.79515371 -27.59272426 41.9119155 -29.375 44.0625 C-36.85489506 52.58889414 -46.77238157 60.03146946 -57 65 C-57.99 64.67 -58.98 64.34 -60 64 C-58.44152344 63.07380859 -58.44152344 63.07380859 -56.8515625 62.12890625 C-48.47969336 57.07682958 -40.98362153 51.90985088 -34 45 C-33.2678125 44.31679688 -32.535625 43.63359375 -31.78125 42.9296875 C-19.52816026 31.23747863 -6.83947981 15.5442723 0 0 Z " fill="#F5EBCF" transform="translate(334,742)"/>
<path d="M0 0 C0.33 0 0.66 0 1 0 C1.95634987 24.72341517 -1.81491343 53.62982687 -13 76 C-13.66 76 -14.32 76 -15 76 C-14.81751709 75.46922852 -14.63503418 74.93845703 -14.44702148 74.39160156 C-6.65411984 51.41413012 -2.63184645 27.88048998 -1.25708008 3.67016602 C-1 1 -1 1 0 0 Z " fill="#F5EBCF" transform="translate(352,662)"/>
<path d="M0 0 C0.66 0 1.32 0 2 0 C1.70068321 4.78906865 -0.72017171 7.5436737 -3.625 11.1328125 C-5.19030864 13.05775029 -5.19030864 13.05775029 -6 16 C-2.44327147 15.56625262 0.31228282 14.86539533 3.625 13.4375 C7 12 7 12 11 12 C11 12.99 11 13.98 11 15 C5.29564738 18.16908479 -0.38121957 20.70733284 -7 21 C-9.171875 20.0390625 -9.171875 20.0390625 -11 19 C-11.66 19 -12.32 19 -13 19 C-11.43787681 14.13696175 -8.63739719 10.62343368 -5.5 6.6875 C-4.75169922 5.71973633 -4.75169922 5.71973633 -3.98828125 4.73242188 C-2.71003595 3.11319693 -1.36010191 1.55110388 0 0 Z " fill="#F4EACE" transform="translate(849,408)"/>
<path d="M0 0 C0.99 0.495 0.99 0.495 2 1 C3.15570704 4.46712111 3.32835293 7.5414956 3.5625 11.1875 C3.64628906 12.45980469 3.73007813 13.73210937 3.81640625 15.04296875 C3.87699219 16.01878906 3.93757813 16.99460937 4 18 C4.66 14.7 5.32 11.4 6 8 C6.33 8 6.66 8 7 8 C7.30470113 17.44573505 6.14169926 26.6421436 5 36 C3.515 36.495 3.515 36.495 2 37 C2.495 32.545 2.495 32.545 3 28 C2.01 28 1.02 28 0 28 C0 18.76 0 9.52 0 0 Z " fill="#F5EBCF" transform="translate(1217,348)"/>
<path d="M0 0 C1.26695423 3.85737127 0.45920495 5.80359394 -1.34936523 9.43066406 C-1.70844971 10.11354492 -2.06753418 10.79642578 -2.4375 11.5 C-2.80367432 12.21124023 -3.16984863 12.92248047 -3.54711914 13.65527344 C-9.25914915 24.53882451 -16.56264533 34.25955916 -24 44 C-24.54011719 44.7734375 -25.08023438 45.546875 -25.63671875 46.34375 C-26.08660156 46.8903125 -26.53648437 47.436875 -27 48 C-27.66 48 -28.32 48 -29 48 C-28.45561964 43.8163361 -25.9427954 41.10258796 -23.375 37.9375 C-14.16355902 26.26770545 -6.44070802 13.39667267 0 0 Z " fill="#F4EBCE" transform="translate(274,694)"/>
<path d="M0 0 C0.66 0.33 1.32 0.66 2 1 C0.32647308 4.46526003 -1.36640758 7.92073596 -3.0625 11.375 C-3.76149414 12.82326172 -3.76149414 12.82326172 -4.47460938 14.30078125 C-7.77861995 20.99870746 -11.59721772 26.9783656 -16 33 C-16.85446643 34.23448686 -17.7040631 35.47237089 -18.546875 36.71484375 C-19.27390625 37.77832031 -20.0009375 38.84179688 -20.75 39.9375 C-21.48734375 41.01902344 -22.2246875 42.10054688 -22.984375 43.21484375 C-25.94397793 47.3043726 -25.94397793 47.3043726 -28 49 C-28.66 49 -29.32 49 -30 49 C-28.50346651 45.72868306 -26.61188177 43.04714148 -24.4375 40.1875 C-16.97754425 30.04303938 -10.92465381 18.96574686 -4.7265625 8.0234375 C-3.18621234 5.32608224 -1.6096549 2.65642434 0 0 Z " fill="#F4EBCE" transform="translate(526,340)"/>
<path d="M0 0 C6.49338073 1.32068761 12.69279527 3.11331631 18.984375 5.1953125 C21.82133141 5.95232419 24.08481074 6.16195496 27 6 C27.33 6.99 27.66 7.98 28 9 C27.67 9.66 27.34 10.32 27 11 C17.52530959 10.54882427 8.98724843 7.82545745 0 5 C0 3.33333333 0 1.66666667 0 0 Z " fill="#F6ECD0" transform="translate(952,228)"/>
<path d="M0 0 C0.66 0 1.32 0 2 0 C1.37802877 6.33881314 0.71457113 12.67094142 0 19 C3.24644267 10.7027769 3.24644267 10.7027769 5 2 C5.66 2 6.32 2 7 2 C7.81958334 10.52366679 4.70406679 17.94389981 0 25 C-0.99 25 -1.98 25 -3 25 C-4.08416337 19.48522232 -3.7813322 15.15979143 -2.625 9.6875 C-2.48578125 8.97271484 -2.3465625 8.25792969 -2.203125 7.52148438 C-1.1663437 2.3326874 -1.1663437 2.3326874 0 0 Z " fill="#F4EBCF" transform="translate(1043,32)"/>
<path d="M0 0 C0.33 0 0.66 0 1 0 C0.88509058 5.74547091 -0.77716681 10.28713105 -3.25 15.4375 C-3.5375415 16.06479004 -3.82508301 16.69208008 -4.12133789 17.33837891 C-5.65420126 20.39406232 -6.42209025 21.80763861 -9.734375 22.91015625 C-10.48203125 22.93980469 -11.2296875 22.96945313 -12 23 C-12.37952295 16.80112515 -11.8352113 12.5522888 -9 7 C-8.34 7 -7.68 7 -7 7 C-7.33 9.97 -7.66 12.94 -8 16 C-7.59007812 15.18015625 -7.18015625 14.3603125 -6.7578125 13.515625 C-4.50520833 9.01041667 -2.25260417 4.50520833 0 0 Z " fill="#F4EBCE" transform="translate(1067,40)"/>
<path d="M0 0 C0.66 0 1.32 0 2 0 C0.583041 5.67663698 -2.26448716 9.29701509 -5.9375 13.6875 C-6.51072998 14.38359375 -7.08395996 15.0796875 -7.67456055 15.796875 C-12.77058878 21.90114816 -18.22460565 27.53710194 -24 33 C-24.33 32.01 -24.66 31.02 -25 30 C-24.59910156 29.62230469 -24.19820313 29.24460937 -23.78515625 28.85546875 C-17.37958738 22.65325128 -11.78011766 15.79896023 -6.49609375 8.625 C-5.88483643 7.79585083 -5.88483643 7.79585083 -5.26123047 6.94995117 C-4.11561004 5.38504766 -2.98134542 3.81184981 -1.84765625 2.23828125 C-1.23792969 1.49964844 -0.62820313 0.76101563 0 0 Z " fill="#F4EACE" transform="translate(342,760)"/>
<path d="M0 0 C1 2 1 2 0.07421875 4.86328125 C-0.38339844 6.00152344 -0.84101562 7.13976562 -1.3125 8.3125 C-1.98732422 10.00826172 -1.98732422 10.00826172 -2.67578125 11.73828125 C-3.49677404 13.76049063 -4.32594213 15.77942683 -5.16796875 17.79296875 C-6.11758545 19.91879557 -6.11758545 19.91879557 -6 22 C-6.66 22 -7.32 22 -8 22 C-8 22.99 -8 23.98 -8 25 C-8.804375 25.61875 -9.60875 26.2375 -10.4375 26.875 C-13.22055996 28.70482526 -13.22055996 28.70482526 -13.36328125 31.3515625 C-14.22805738 34.94860678 -15.9444103 36.14264061 -18.75 38.5 C-20.09964844 39.65822266 -20.09964844 39.65822266 -21.4765625 40.83984375 C-22.30929687 41.55269531 -23.14203125 42.26554687 -24 43 C-25.7105995 44.63147485 -27.35600482 46.30120498 -29 48 C-29.66 47.67 -30.32 47.34 -31 47 C-30.47792969 46.5359375 -29.95585938 46.071875 -29.41796875 45.59375 C-17.53458866 34.43877324 -9.86729175 20.6091914 -3 6 C-2.00542861 3.99729489 -1.00736417 1.99630094 0 0 Z " fill="#F6ECD1" transform="translate(1139,157)"/>
<path d="M0 0 C0 0.66 0 1.32 0 2 C-0.55872803 2.30703857 -1.11745605 2.61407715 -1.69311523 2.93041992 C-4.27469304 4.34923526 -6.85609729 5.76836612 -9.4375 7.1875 C-10.31599609 7.67025391 -11.19449219 8.15300781 -12.09960938 8.65039062 C-13.86691936 9.62208504 -15.63351946 10.59507167 -17.39941406 11.56933594 C-19.10125961 12.50557466 -20.806236 13.43615019 -22.51464844 14.36035156 C-27.14939437 16.88475208 -31.21883166 19.57375649 -35.2734375 22.9609375 C-35.84320313 23.30382812 -36.41296875 23.64671875 -37 24 C-37.99 23.67 -38.98 23.34 -40 23 C-32.17953707 15.96551324 -23.49615726 11.13181202 -14.25732422 6.22119141 C-12.6742216 5.36474762 -11.10379505 4.48465098 -9.54345703 3.58740234 C-8.74665527 3.12930176 -7.94985352 2.67120117 -7.12890625 2.19921875 C-6.40904541 1.77858154 -5.68918457 1.35794434 -4.94750977 0.92456055 C-3 0 -3 0 0 0 Z " fill="#F4EBCE" transform="translate(80,496)"/>
<path d="M0 0 C0.66 0.33 1.32 0.66 2 1 C-2.1868308 15.85488336 -6.72134545 30.49573339 -12 45 C-12.66 45 -13.32 45 -14 45 C-11.90158269 36.03910717 -9.28835706 27.31039908 -6.4375 18.5625 C-6.03853516 17.32306641 -5.63957031 16.08363281 -5.22851562 14.80664062 C-3.61150473 9.809834 -2.00306438 4.85752933 0 0 Z " fill="#F5EBCF" transform="translate(336,703)"/>
<path d="M0 0 C0.66 0.33 1.32 0.66 2 1 C2 1.66 2 2.32 2 3 C2.56823486 3.26643311 3.13646973 3.53286621 3.72192383 3.80737305 C6.12661396 5.06628542 8.24309976 6.50155254 10.44921875 8.08203125 C11.29806641 8.68466797 12.14691406 9.28730469 13.02148438 9.90820312 C14.78035324 11.16453803 16.53818945 12.42232008 18.29492188 13.68164062 C23.68805663 17.50601124 29.14164403 20.93235502 35 24 C35 24.66 35 25.32 35 26 C21.62150622 22.10296127 9.90545451 11.37029041 -1 3 C-0.67 2.01 -0.34 1.02 0 0 Z " fill="#F4EBCF" transform="translate(821,465)"/>
<path d="M0 0 C-0.84304688 0.34933594 -1.68609375 0.69867188 -2.5546875 1.05859375 C-3.65039062 1.51363281 -4.74609375 1.96867187 -5.875 2.4375 C-6.96554687 2.88996094 -8.05609375 3.34242187 -9.1796875 3.80859375 C-10.80558624 4.49543463 -12.42131774 5.21065887 -14 6 C-9.16371695 5.00956295 -4.52381127 4.04301154 0 2 C0 2.99 0 3.98 0 5 C-6.3327492 8.28874656 -11.87391001 9.70245971 -19 10 C-19 8.68 -19 7.36 -19 6 C-16.23699702 3.31519522 -13.08037251 2.06804922 -9.5 0.75 C-8.5615625 0.39421875 -7.623125 0.0384375 -6.65625 -0.328125 C-3.92325523 -1.01941191 -2.60719656 -0.95925156 0 0 Z " fill="#F5EBCF" transform="translate(1107,94)"/>
<path d="M0 0 C0.66 0.33 1.32 0.66 2 1 C0.6875 3.5 0.6875 3.5 -1 6 C-1.99 6 -2.98 6 -4 6 C-4.33 6.66 -4.66 7.32 -5 8 C-5.9075 7.79375 -6.815 7.5875 -7.75 7.375 C-11.11027897 6.9872755 -12.24075815 7.19588033 -15 9 C-13.35 8.67 -11.7 8.34 -10 8 C-11.33934244 10.67868487 -12.51692397 10.74954078 -15.3125 11.6875 C-16.09238281 11.95949219 -16.87226562 12.23148438 -17.67578125 12.51171875 C-20.18274511 13.03839183 -21.60132343 12.8178554 -24 12 C-23.401875 11.79375 -22.80375 11.5875 -22.1875 11.375 C-19.18981233 9.49073918 -18.38638224 7.18867916 -17 4 C-16.34 4 -15.68 4 -15 4 C-15 4.66 -15 5.32 -15 6 C-14.16855469 5.65066406 -13.33710937 5.30132812 -12.48046875 4.94140625 C-10.85044922 4.25884766 -10.85044922 4.25884766 -9.1875 3.5625 C-8.10855469 3.11003906 -7.02960938 2.65757812 -5.91796875 2.19140625 C-3.9704874 1.39624987 -1.99561057 0.66520352 0 0 Z " fill="#F7EDD2" transform="translate(1078,225)"/>
<path d="M0 0 C2.66866187 0.20391768 5.28532316 0.47553371 7.9375 0.8125 C8.67935547 0.89564453 9.42121094 0.97878906 10.18554688 1.06445312 C15.7563891 1.7563891 15.7563891 1.7563891 18 4 C15.72886197 3.85899143 13.45809275 3.71203245 11.1875 3.5625 C9.92292969 3.48128906 8.65835937 3.40007812 7.35546875 3.31640625 C4 3 4 3 1 2 C1 2.66 1 3.32 1 4 C1.60585937 4.18175781 2.21171875 4.36351562 2.8359375 4.55078125 C4.59375 5.078125 6.3515625 5.60546875 8.109375 6.1328125 C9.06328125 6.41898438 10.0171875 6.70515625 11 7 C13.72135417 7.81640625 16.44270833 8.6328125 19.1640625 9.44921875 C19.76992187 9.63097656 20.37578125 9.81273437 21 10 C21 10.99 21 11.98 21 13 C13.26720692 10.95819508 6.01556524 8.92871653 -1 5 C-1 1 -1 1 0 0 Z " fill="#F5EBCF" transform="translate(1052,138)"/>
<path d="M0 0 C0.33 0.66 0.66 1.32 1 2 C0.34 1.67 -0.32 1.34 -1 1 C-0.67 0.67 -0.34 0.34 0 0 Z M-2 2 C-1.67 2.99 -1.34 3.98 -1 5 C-2.01635742 6.82177734 -2.01635742 6.82177734 -3.60546875 8.8359375 C-4.17716797 9.57070312 -4.74886719 10.30546875 -5.33789062 11.0625 C-5.94826172 11.825625 -6.55863281 12.58875 -7.1875 13.375 C-7.77853516 14.13039062 -8.36957031 14.88578125 -8.97851562 15.6640625 C-10.64148021 17.78494487 -12.31734967 19.89471831 -14 22 C-14.80050781 23.00289062 -15.60101562 24.00578125 -16.42578125 25.0390625 C-16.94527344 25.68617188 -17.46476563 26.33328125 -18 27 C-18.66 26.67 -19.32 26.34 -20 26 C-19.67 25.34 -19.34 24.68 -19 24 C-19.61875 24.825 -20.2375 25.65 -20.875 26.5 C-21.926875 27.7375 -21.926875 27.7375 -23 29 C-23.66 29 -24.32 29 -25 29 C-23.65739083 26.06949729 -22.12851462 23.79086409 -20 21.375 C-19.484375 20.78460938 -18.96875 20.19421875 -18.4375 19.5859375 C-17.32548788 18.35909804 -16.17083432 17.17083432 -15 16 C-15 16.66 -15 17.32 -15 18 C-9.82773385 13.3126338 -6.01074507 7.68271819 -2 2 Z " fill="#F6ECD0" transform="translate(822,117)"/>
<path d="M0 0 C0 0.66 0 1.32 0 2 C-2.64 2.33 -5.28 2.66 -8 3 C-8.309375 3.804375 -8.61875 4.60875 -8.9375 5.4375 C-10 8 -10 8 -11 9 C-11.04063832 10.66617115 -11.042721 12.33388095 -11 14 C-9.68 13.67 -8.36 13.34 -7 13 C-7.33 13.99 -7.66 14.98 -8 16 C-8.99 16.33 -9.98 16.66 -11 17 C-14 15 -14 15 -14.9375 12.3125 C-15.03675079 7.05220829 -12.63640066 3.80568349 -9.1875 0 C-5.94269388 -1.48333994 -3.40829206 -0.72098486 0 0 Z " fill="#F4EBCE" transform="translate(78,669)"/>
<path d="M0 0 C0.99 0 1.98 0 3 0 C3 1.32 3 2.64 3 4 C4.65 4.33 6.3 4.66 8 5 C5.73740392 7.53816868 3.62022714 8.80410385 0.5 10.125 C-0.2734375 10.45757812 -1.046875 10.79015625 -1.84375 11.1328125 C-3.5397042 11.81488104 -5.2658344 12.4219448 -7 13 C-7.33 11.35 -7.66 9.7 -8 8 C-6.8553125 7.4121875 -6.8553125 7.4121875 -5.6875 6.8125 C-2.73714585 4.82272627 -1.78657299 3.00469094 0 0 Z " fill="#F4EACE" transform="translate(403,32)"/>
<path d="M0 0 C0.66 0 1.32 0 2 0 C1.42794699 4.27980399 -1.14659076 7.36359586 -3.625 10.75 C-4.29571533 11.6783667 -4.29571533 11.6783667 -4.97998047 12.62548828 C-8.40370376 17.31180913 -12.02735973 21.76427097 -16 26 C-16.66 25.67 -17.32 25.34 -18 25 C-17.5968457 24.45585449 -17.19369141 23.91170898 -16.77832031 23.35107422 C-14.93408005 20.86013167 -13.09202483 18.36758122 -11.25 15.875 C-10.29867188 14.59109375 -10.29867188 14.59109375 -9.328125 13.28125 C-5.36955906 7.92210122 -5.36955906 7.92210122 -1.671875 2.3828125 C-1.12015625 1.59648437 -0.5684375 0.81015625 0 0 Z " fill="#F4EBCE" transform="translate(1124,174)"/>
<path d="M0 0 C0 1.32 0 2.64 0 4 C-2.125 5.78125 -2.125 5.78125 -5 7.5 C-6.0003125 8.09941406 -7.000625 8.69882813 -8.03125 9.31640625 C-18.05336427 15 -18.05336427 15 -22 15 C-22 14.34 -22 13.68 -22 13 C-21.00097656 12.51789063 -20.00195312 12.03578125 -18.97265625 11.5390625 C-17.66911549 10.90135911 -16.36573849 10.26332089 -15.0625 9.625 C-14.40314453 9.30789062 -13.74378906 8.99078125 -13.06445312 8.6640625 C-9.38695193 7.04522631 -9.38695193 7.04522631 -7 4 C-8.65 4.33 -10.3 4.66 -12 5 C-9.9330412 2.9330412 -8.69369158 2.35542451 -6 1.375 C-5.29875 1.11460937 -4.5975 0.85421875 -3.875 0.5859375 C-2 0 -2 0 0 0 Z " fill="#F5EBD0" transform="translate(987,157)"/>
<path d="M0 0 C-2.53682858 2.71803062 -4.67915966 4.39704428 -8 6 C-10.29791336 7.35007388 -12.59218046 8.70526823 -14.87890625 10.07421875 C-17 11 -17 11 -20 10 C-18.83752017 8.80332958 -17.66951528 7.61160711 -16.4765625 6.4453125 C-15.04744838 5.04644418 -13.64809539 3.61737029 -12.25 2.1875 C-8.01643665 -0.66201379 -4.9475836 -0.49475836 0 0 Z " fill="#F4EACE" transform="translate(214,0)"/>
<path d="M0 0 C0 0.33 0 0.66 0 1 C-2.49943204 1.48229332 -4.99948243 1.96089426 -7.5 2.4375 C-8.19609375 2.57220703 -8.8921875 2.70691406 -9.609375 2.84570312 C-16.75037406 4.20117054 -23.70439762 5.13849586 -31 5.0625 C-32.134375 5.05347656 -33.26875 5.04445313 -34.4375 5.03515625 C-35.283125 5.02355469 -36.12875 5.01195312 -37 5 C-36.67 4.34 -36.34 3.68 -36 3 C-34.13330078 2.62109375 -34.13330078 2.62109375 -31.6953125 2.4375 C-30.80642334 2.36378174 -29.91753418 2.29006348 -29.00170898 2.21411133 C-28.05239502 2.14345459 -27.10308105 2.07279785 -26.125 2 C-19.33571524 1.43894463 -12.71448961 0.78869303 -6.05859375 -0.73046875 C-3.76814846 -1.03035627 -2.18535102 -0.69871767 0 0 Z " fill="#F5EBCF" transform="translate(224,789)"/>
<path d="M0 0 C12.43260503 1.78565243 22.63828773 13.35956399 31 22 C30.67 22.99 30.34 23.98 30 25 C29.64550781 24.53851563 29.29101562 24.07703125 28.92578125 23.6015625 C21.52528422 14.53460972 11.87855267 7.75378234 1.73046875 2.05859375 C1.15941406 1.70925781 0.58835937 1.35992187 0 1 C0 0.67 0 0.34 0 0 Z " fill="#F5EBCF" transform="translate(1094,39)"/>
<path d="M0 0 C5.28 0 10.56 0 16 0 C16 0.99 16 1.98 16 3 C13.69 3.33 11.38 3.66 9 4 C9 4.33 9 4.66 9 5 C2.565 5.495 2.565 5.495 -4 6 C-3 4 -3 4 0 3 C0 2.01 0 1.02 0 0 Z " fill="#F6ECD0" transform="translate(177,774)"/>
<path d="M0 0 C1 3 1 3 0.03125 5.12548828 C-0.4740625 5.93228027 -0.979375 6.73907227 -1.5 7.5703125 C-2.05816406 8.4675 -2.61632812 9.3646875 -3.19140625 10.2890625 C-4.08666016 11.69285156 -4.08666016 11.69285156 -5 13.125 C-5.84884766 14.49398437 -5.84884766 14.49398437 -6.71484375 15.890625 C-10.4769816 21.87933422 -14.54891406 27.5054794 -19 33 C-19.33 32.01 -19.66 31.02 -20 30 C-18.62890625 27.7578125 -18.62890625 27.7578125 -16.5625 25.125 C-12.62286038 19.92964337 -9.21739583 14.62810671 -5.859375 9.04296875 C-3.98114832 5.9691482 -2.01627959 2.98427222 0 0 Z " fill="#F5EBCF" transform="translate(274,706)"/>
<path d="M0 0 C0.33 0.66 0.66 1.32 1 2 C0.28972656 3.05960938 -0.42054687 4.11921875 -1.15234375 5.2109375 C-2.08078995 6.59891768 -3.00917204 7.98694074 -3.9375 9.375 C-4.40607422 10.07367188 -4.87464844 10.77234375 -5.35742188 11.4921875 C-5.80537109 12.1625 -6.25332031 12.8328125 -6.71484375 13.5234375 C-7.12855225 14.14138184 -7.54226074 14.75932617 -7.96850586 15.39599609 C-9.05943417 17.02917268 -9.05943417 17.02917268 -10 19 C-10.99 19 -11.98 19 -13 19 C-13.2475 19.598125 -13.495 20.19625 -13.75 20.8125 C-15.16370012 23.28647521 -16.65055383 24.43370255 -19 26 C-18.3921075 22.42559208 -16.95150156 20.35977816 -14.6875 17.5625 C-14.05457031 16.77488281 -13.42164063 15.98726562 -12.76953125 15.17578125 C-12.18558594 14.45777344 -11.60164063 13.73976562 -11 13 C-10.29875 12.0925 -9.5975 11.185 -8.875 10.25 C-6.72824527 7.67389432 -4.37008098 5.37008098 -2 3 C-1.34 2.01 -0.68 1.02 0 0 Z " fill="#F5EBCF" transform="translate(1120,171)"/>
<path d="M0 0 C4.57165028 0.68328209 8.97808751 1.74693086 13.4375 2.9375 C20.32453786 4.7398817 27.10654774 5.78461072 34.18359375 6.5078125 C35.11300781 6.67023438 36.04242187 6.83265625 37 7 C37.495 7.99 37.495 7.99 38 9 C31.57146971 9.17981903 25.83240216 8.63777413 19.5625 7.25 C18.73645264 7.07243164 17.91040527 6.89486328 17.05932617 6.71191406 C11.11604148 5.38091771 5.49988829 3.6580437 0 1 C0 0.67 0 0.34 0 0 Z " fill="#F5EBCF" transform="translate(881,502)"/>
<path d="M0 0 C0.66 0 1.32 0 2 0 C2.4505519 3.07877133 2.50042912 5.21010698 0.8046875 7.88671875 C-1.84571667 11.06320817 -4.10235918 13.43480565 -8 15 C-8.99 15 -9.98 15 -11 15 C-11 15.66 -11 16.32 -11 17 C-13.91517292 15.92598892 -15.77810176 15.22189824 -18 13 C-17.625 10.875 -17.625 10.875 -17 9 C-16.67 9.99 -16.34 10.98 -16 12 C-10.2717423 12.45826062 -7.5001506 11.55825861 -3 8 C-0.4345406 5.4345406 -0.45953913 3.52313332 0 0 Z " fill="#F4EBCE" transform="translate(110,15)"/>
<path d="M0 0 C0.99 0 1.98 0 3 0 C4.49828872 3.88235819 3.43110582 6.43449288 2.0625 10.25 C1.68222656 11.32765625 1.30195312 12.4053125 0.91015625 13.515625 C0.60980469 14.33546875 0.30945313 15.1553125 0 16 C-0.66 16 -1.32 16 -2 16 C-1.34 12.04 -0.68 8.08 0 4 C-1.65 7.3 -3.3 10.6 -5 14 C-6.12837492 9.48650033 -5.87706931 9.07631749 -3.625 5.3125 C-3.16351562 4.52488281 -2.70203125 3.73726562 -2.2265625 2.92578125 C-1 1 -1 1 0 0 Z " fill="#F5EBCF" transform="translate(982,211)"/>
<path d="M0 0 C1 3 1 3 0.28735352 4.80932617 C-0.09493408 5.46392822 -0.47722168 6.11853027 -0.87109375 6.79296875 C-1.48500977 7.8612793 -1.48500977 7.8612793 -2.11132812 8.95117188 C-2.54896484 9.68916016 -2.98660156 10.42714844 -3.4375 11.1875 C-3.87126953 11.93708984 -4.30503906 12.68667969 -4.75195312 13.45898438 C-5.82557231 15.31127243 -6.91162681 17.1563425 -8 19 C-8.66 19 -9.32 19 -10 19 C-8.40376856 14.60616294 -6.21975667 10.71004193 -3.875 6.6875 C-3.50246094 6.04232422 -3.12992187 5.39714844 -2.74609375 4.73242188 C-1.83367787 3.15324055 -0.91724491 1.57638136 0 0 Z M-11 19 C-10.67 19.99 -10.34 20.98 -10 22 C-12.73456852 26.81284059 -16.33552232 30.87135515 -20 35 C-20 30.99338309 -18.46079042 29.60290616 -16.0625 26.4375 C-13.29557496 22.86509981 -13.29557496 22.86509981 -11 19 Z " fill="#F5EBCF" transform="translate(343,744)"/>
<path d="M0 0 C0.99 0.33 1.98 0.66 3 1 C2.29875 1.680625 1.5975 2.36125 0.875 3.0625 C-4.89459145 8.8809863 -9.2497431 14.68202083 -13 22 C-13.66 21.67 -14.32 21.34 -15 21 C-12.80108353 12.20433414 -6.40309168 6.06209863 0 0 Z " fill="#F4EBCF" transform="translate(751,196)"/>
<path d="M0 0 C1.39456452 0.00667256 2.78911118 0.01863093 4.18359375 0.03515625 C4.89451172 0.03966797 5.60542969 0.04417969 6.33789062 0.04882812 C8.09899388 0.06064761 9.86005411 0.07858362 11.62109375 0.09765625 C11.29109375 1.41765625 10.96109375 2.73765625 10.62109375 4.09765625 C8.49671036 4.17844266 6.37146145 4.23674766 4.24609375 4.28515625 C3.06273437 4.31996094 1.879375 4.35476563 0.66015625 4.390625 C-0.84417969 4.24560547 -0.84417969 4.24560547 -2.37890625 4.09765625 C-3.03890625 3.10765625 -3.69890625 2.11765625 -4.37890625 1.09765625 C-3.37890625 0.09765625 -3.37890625 0.09765625 0 0 Z " fill="#F5EBCF" transform="translate(161.37890625,403.90234375)"/>
<path d="M0 0 C-8.0625015 4.17522399 -17.82027274 7 -27 7 C-26.67 6.01 -26.34 5.02 -26 4 C-25.40461426 3.88406494 -24.80922852 3.76812988 -24.19580078 3.64868164 C-21.50493604 3.12296202 -18.8149682 2.59278705 -16.125 2.0625 C-15.18785156 1.88009766 -14.25070312 1.69769531 -13.28515625 1.50976562 C-12.38925781 1.33251953 -11.49335937 1.15527344 -10.5703125 0.97265625 C-9.74289551 0.81031494 -8.91547852 0.64797363 -8.06298828 0.48071289 C-2.62300178 -0.78690053 -2.62300178 -0.78690053 0 0 Z " fill="#F4EBCF" transform="translate(1077,111)"/>
<path d="M0 0 C0 0.99 0 1.98 0 3 C-1.91197039 3.70045456 -3.82980435 4.384919 -5.75 5.0625 C-6.81734375 5.44535156 -7.8846875 5.82820312 -8.984375 6.22265625 C-11.92280042 6.98010011 -13.22348948 7.07151741 -16 6 C-15.67 5.01 -15.34 4.02 -15 3 C-9.72006588 0.54209963 -5.78159553 -0.36134972 0 0 Z " fill="#F4EACE" transform="translate(529,733)"/>
<path d="M0 0 C2.29199177 0.14063135 4.58359186 0.28765943 6.875 0.4375 C8.15117187 0.51871094 9.42734375 0.59992188 10.7421875 0.68359375 C14 1 14 1 16 2 C16 2.99 16 3.98 16 5 C10.22192976 5.2358396 5.48675196 4.86783046 0 3 C0 2.01 0 1.02 0 0 Z " fill="#F4EACE" transform="translate(131,401)"/>
<path d="M0 0 C4.07690223 0.52835511 6.25617734 1.64675717 9.3125 4.375 C10.00988281 4.98085938 10.70726562 5.58671875 11.42578125 6.2109375 C13 8 13 8 13 11 C11.68 11 10.36 11 9 11 C9 10.34 9 9.68 9 9 C8.443125 8.7525 7.88625 8.505 7.3125 8.25 C4.55839521 6.76129471 2.30825486 5.11590028 0 3 C0 2.01 0 1.02 0 0 Z " fill="#F4EACE" transform="translate(1037,305)"/>
<path d="M0 0 C0.99 0.33 1.98 0.66 3 1 C1.90169097 2.09830903 0.8022584 3.19550456 -0.30078125 4.2890625 C-1.625775 5.62319414 -2.93195315 6.97602099 -4.23046875 8.3359375 C-5.02066406 9.15320312 -5.81085938 9.97046875 -6.625 10.8125 C-7.75808594 11.99779297 -7.75808594 11.99779297 -8.9140625 13.20703125 C-11 15 -11 15 -14 15 C-12.40153531 10.75091664 -9.1869608 8.17774261 -5.875 5.25 C-5.31167969 4.74339844 -4.74835938 4.23679687 -4.16796875 3.71484375 C-2.78348469 2.47115468 -1.39238512 1.23483695 0 0 Z " fill="#F5EBCF" transform="translate(1285,30)"/>
<path d="M0 0 C1.07765625 0.00902344 2.1553125 0.01804687 3.265625 0.02734375 C4.08546875 0.03894531 4.9053125 0.05054688 5.75 0.0625 C5.75 1.0525 5.75 2.0425 5.75 3.0625 C2.46480525 4.15756492 0.01336585 4.16210608 -3.4375 4.125 C-5.06751953 4.11146484 -5.06751953 4.11146484 -6.73046875 4.09765625 C-7.56191406 4.08605469 -8.39335938 4.07445312 -9.25 4.0625 C-9.58 3.0725 -9.91 2.0825 -10.25 1.0625 C-6.78777385 -0.00473961 -3.60960734 -0.03923486 0 0 Z " fill="#F4EBCF" transform="translate(924.25,611.9375)"/>
<path d="M0 0 C0 0.99 0 1.98 0 3 C-1.74552473 3.84266711 -3.4966208 4.67380038 -5.25 5.5 C-6.22453125 5.9640625 -7.1990625 6.428125 -8.203125 6.90625 C-11 8 -11 8 -15 8 C-13.25050318 3.72943339 -11.09149779 2.63783868 -7.04296875 0.75 C-4.59993699 -0.14686826 -2.5801153 -0.32251441 0 0 Z " fill="#F4EACE" transform="translate(669,601)"/>
<path d="M0 0 C0 3 0 3 -1.22167969 4.54638672 C-1.78274414 5.08537598 -2.34380859 5.62436523 -2.921875 6.1796875 C-3.53546875 6.77910156 -4.1490625 7.37851562 -4.78125 7.99609375 C-5.75578125 8.92615234 -5.75578125 8.92615234 -6.75 9.875 C-10.76474767 13.75102671 -14.63244568 17.52693542 -18 22 C-18.66 21.67 -19.32 21.34 -20 21 C-13.59669232 13.71129669 -6.9151883 6.79885803 0 0 Z M-21 22 C-20.67 22.66 -20.34 23.32 -20 24 C-20.99 25.32 -21.98 26.64 -23 28 C-23.66 27.67 -24.32 27.34 -25 27 C-23.68 25.35 -22.36 23.7 -21 22 Z " fill="#F5EBD0" transform="translate(86,540)"/>
<path d="M0 0 C9.99525928 4.91125086 18.3637534 11.95098332 26 20 C25.67 20.99 25.34 21.98 25 23 C20 18 20 18 17.75 15.625 C13.05249403 11.14101703 7.92021171 7.1694117 2.4375 3.6875 C1.633125 3.130625 0.82875 2.57375 0 2 C0 1.34 0 0.68 0 0 Z " fill="#F5EBCF" transform="translate(294,507)"/>
<path d="M0 0 C4.62 0 9.24 0 14 0 C13.67 0.99 13.34 1.98 13 3 C9.71480525 4.09506492 7.26336585 4.09960608 3.8125 4.0625 C2.18248047 4.04896484 2.18248047 4.04896484 0.51953125 4.03515625 C-0.31191406 4.02355469 -1.14335937 4.01195312 -2 4 C-1.34 2.68 -0.68 1.36 0 0 Z " fill="#F4EBCE" transform="translate(186,403)"/>
<path d="M0 0 C-1 3 -1 3 -3.14453125 4.16796875 C-4.02496094 4.50441406 -4.90539062 4.84085937 -5.8125 5.1875 C-6.68519531 5.53167969 -7.55789063 5.87585938 -8.45703125 6.23046875 C-11 7 -11 7 -15 7 C-13.97668915 4.25382681 -13.30743298 3.17560066 -10.72265625 1.69921875 C-9.84480469 1.36535156 -8.96695312 1.03148437 -8.0625 0.6875 C-6.74958984 0.16736328 -6.74958984 0.16736328 -5.41015625 -0.36328125 C-3 -1 -3 -1 0 0 Z " fill="#F4EACE" transform="translate(300,370)"/>
<path d="M0 0 C-0.5 1.875 -0.5 1.875 -2 4 C-6.16575502 5.703747 -10.51767658 6.28014521 -15 6 C-14.67 4.68 -14.34 3.36 -14 2 C-12.23225581 1.46877637 -10.46065917 0.95035927 -8.6875 0.4375 C-7.70136719 0.14746094 -6.71523438 -0.14257812 -5.69921875 -0.44140625 C-3 -1 -3 -1 0 0 Z " fill="#F4EBCE" transform="translate(365,64)"/>
<path d="M0 0 C0.99 0.33 1.98 0.66 3 1 C2.38400666 11.939192 2.38400666 11.939192 -1 16 C-1.66 16 -2.32 16 -3 16 C-2.40984815 10.49191603 -1.43336231 5.35121931 0 0 Z " fill="#F4EBCE" transform="translate(114,368)"/>
<path d="M0 0 C-0.36277169 2.82711727 -0.89149044 3.89365198 -2.9609375 5.921875 C-3.75757813 6.52515625 -4.55421875 7.1284375 -5.375 7.75 C-6.16648437 8.36359375 -6.95796875 8.9771875 -7.7734375 9.609375 C-10 11 -10 11 -13 11 C-12.67440623 7.99656363 -12.11191572 7.09711205 -9.78515625 5.078125 C-8.88667969 4.47484375 -7.98820312 3.8715625 -7.0625 3.25 C-6.16660156 2.63640625 -5.27070312 2.0228125 -4.34765625 1.390625 C-2 0 -2 0 0 0 Z " fill="#F4EACE" transform="translate(1058,334)"/>
<path d="M0 0 C0 0.99 0 1.98 0 3 C-2.3359375 4.82421875 -2.3359375 4.82421875 -5.375 6.6875 C-6.37273438 7.31011719 -7.37046875 7.93273437 -8.3984375 8.57421875 C-11 10 -11 10 -13 10 C-13 8.68 -13 7.36 -13 6 C-11.171875 4.296875 -11.171875 4.296875 -8.75 2.75 C-7.96109375 2.22921875 -7.1721875 1.7084375 -6.359375 1.171875 C-4 0 -4 0 0 0 Z " fill="#F4EACE" transform="translate(1029,578)"/>
<path d="M0 0 C0.99 0 1.98 0 3 0 C2.62834433 5.94649079 0.85341397 10.37830412 -3 15 C-3.66 15 -4.32 15 -5 15 C-4.43174347 9.45949887 -2.37113483 4.96284034 0 0 Z " fill="#F4EACE" transform="translate(1091,496)"/>
<path d="M0 0 C0 0.99 0 1.98 0 3 C-2.12392506 3.6700834 -4.24917524 4.33596797 -6.375 5 C-7.55835938 5.37125 -8.74171875 5.7425 -9.9609375 6.125 C-13 7 -13 7 -15 7 C-14.80078125 5.109375 -14.80078125 5.109375 -14 3 C-11.85546875 1.953125 -11.85546875 1.953125 -9.1875 1.25 C-7.87845703 0.88648438 -7.87845703 0.88648438 -6.54296875 0.515625 C-4 0 -4 0 0 0 Z " fill="#F4EBCE" transform="translate(44,437)"/>
<path d="M0 0 C4.95 0.33 9.9 0.66 15 1 C15 2.32 15 3.64 15 5 C13.24929483 4.88529863 11.49942464 4.75780972 9.75 4.625 C8.77546875 4.55539062 7.8009375 4.48578125 6.796875 4.4140625 C4.10366811 4.01534751 2.33036721 3.36492937 0 2 C0 1.34 0 0.68 0 0 Z " fill="#F4EBCE" transform="translate(970,360)"/>
<path d="M0 0 C5.41038391 0.40577879 9.92857155 2.42458314 14 6 C14 6.99 14 7.98 14 9 C10.06946815 8.43450607 7.46592463 7.28617442 4.1875 5.0625 C3.39730469 4.53785156 2.60710938 4.01320313 1.79296875 3.47265625 C1.20128906 2.98667969 0.60960937 2.50070312 0 2 C0 1.34 0 0.68 0 0 Z " fill="#F4EACE" transform="translate(1015,291)"/>
<path d="M0 0 C-0.54723683 3.37462715 -1.0549 5.08235 -3 8 C-3.66 8 -4.32 8 -5 8 C-4.5359375 7.1028125 -4.5359375 7.1028125 -4.0625 6.1875 C-2.89790296 3.91043228 -2.89790296 3.91043228 -2 1 C-3.32 0.67 -4.64 0.34 -6 0 C-3 -1 -3 -1 0 0 Z M-6 1 C-6 1.66 -6 2.32 -6 3 C-7.5390625 4.26171875 -7.5390625 4.26171875 -9.625 5.6875 C-13.28893317 8.31851584 -16.01813153 11.12395745 -18.7734375 14.6796875 C-19.38058594 15.33324219 -19.38058594 15.33324219 -20 16 C-20.66 16 -21.32 16 -22 16 C-20.55053895 12.66026243 -18.71827612 10.47695341 -16.125 7.9375 C-15.44695313 7.26589844 -14.76890625 6.59429687 -14.0703125 5.90234375 C-8.73511294 1 -8.73511294 1 -6 1 Z " fill="#F5EBD0" transform="translate(974,180)"/>
<path d="M0 0 C-0.33 0.99 -0.66 1.98 -1 3 C-5.7300622 4.8621508 -10.96242242 5.25833731 -16 5 C-16 4.01 -16 3.02 -16 2 C-10.42932723 0.40837921 -5.78898419 -0.20674944 0 0 Z " fill="#F4EACE" transform="translate(1231,179)"/>
<path d="M0 0 C5.23880078 0.55145271 9.97350697 1.42922093 15 3 C14.67 3.99 14.34 4.98 14 6 C11.87439563 5.69163768 9.74952935 5.37818386 7.625 5.0625 C5.84996094 4.80146484 5.84996094 4.80146484 4.0390625 4.53515625 C1 4 1 4 -1 3 C-0.67 2.01 -0.34 1.02 0 0 Z " fill="#F4EACE" transform="translate(836,602)"/>
<path d="M0 0 C-0.5546875 1.953125 -0.5546875 1.953125 -2 4 C-5.2578125 4.609375 -5.2578125 4.609375 -9.125 4.75 C-10.40632812 4.80671875 -11.68765625 4.8634375 -13.0078125 4.921875 C-14.48894531 4.96054687 -14.48894531 4.96054687 -16 5 C-16 4.01 -16 3.02 -16 2 C-14.27192682 1.66104344 -12.54248026 1.32908475 -10.8125 1 C-9.84957031 0.814375 -8.88664063 0.62875 -7.89453125 0.4375 C-5.2065794 0.03122388 -2.71228981 -0.07933572 0 0 Z " fill="#F4EACE" transform="translate(19,443)"/>
<path d="M0 0 C-0.9992545 2.55723195 -1.66381944 3.7897249 -4.0234375 5.265625 C-4.79945312 5.59046875 -5.57546875 5.9153125 -6.375 6.25 C-7.53128906 6.75273437 -7.53128906 6.75273437 -8.7109375 7.265625 C-11 8 -11 8 -15 8 C-14.80078125 6.140625 -14.80078125 6.140625 -14 4 C-11.85546875 2.734375 -11.85546875 2.734375 -9.1875 1.75 C-7.87845703 1.24726563 -7.87845703 1.24726563 -6.54296875 0.734375 C-4 0 -4 0 0 0 Z " fill="#F4EACE" transform="translate(69,427)"/>
<path d="M0 0 C3.57405801 0.59433774 5.50113335 1.98599852 8.1875 4.375 C8.88230469 4.98085938 9.57710937 5.58671875 10.29296875 6.2109375 C12 8 12 8 13 11 C8.92309777 10.47164489 6.74382266 9.35324283 3.6875 6.625 C2.99011719 6.01914062 2.29273438 5.41328125 1.57421875 4.7890625 C0 3 0 3 0 0 Z " fill="#F4EBCE" transform="translate(59,370)"/>
<path d="M0 0 C-0.5859375 1.921875 -0.5859375 1.921875 -2 4 C-5.0390625 4.828125 -5.0390625 4.828125 -8.625 5.25 C-10.40777344 5.47429687 -10.40777344 5.47429687 -12.2265625 5.703125 C-13.59941406 5.85007812 -13.59941406 5.85007812 -15 6 C-15 4.68 -15 3.36 -15 2 C-13.43883181 1.66048381 -11.87598662 1.32867456 -10.3125 1 C-9.44238281 0.814375 -8.57226562 0.62875 -7.67578125 0.4375 C-5.06287036 0.01027953 -2.64186962 -0.07616201 0 0 Z " fill="#F4EACE" transform="translate(1012,359)"/>
<path d="M0 0 C3.10221616 0.63438578 5.48225798 1.67311319 8.1875 3.3125 C9.22970703 3.92544922 9.22970703 3.92544922 10.29296875 4.55078125 C12.32506306 6.27596886 12.62925496 7.40478472 13 10 C7.77559896 9.67347493 3.61964725 6.6106655 0 3 C0 2.01 0 1.02 0 0 Z " fill="#F4EACE" transform="translate(947,348)"/>
<path d="M0 0 C2.85179471 0.35962898 3.89395384 0.88985856 5.921875 2.99609375 C6.52515625 3.80175781 7.1284375 4.60742188 7.75 5.4375 C8.36359375 6.24058594 8.9771875 7.04367187 9.609375 7.87109375 C11 10 11 10 11 12 C9.68 12 8.36 12 7 12 C7 11.34 7 10.68 7 10 C6.34 10 5.68 10 5 10 C0 4.76190476 0 4.76190476 0 0 Z " fill="#F4EACE" transform="translate(1057,323)"/>
<path d="M0 0 C3.91784128 1.33110544 6.38894988 2.95695562 9.3125 5.875 C10.00988281 6.55304688 10.70726562 7.23109375 11.42578125 7.9296875 C13 10 13 10 13 14 C9.57014962 12.85671654 8.52324062 11.32872972 6.33984375 8.5546875 C4.88233204 6.76016666 4.88233204 6.76016666 2.1875 4.8125 C1.465625 4.214375 0.74375 3.61625 0 3 C0 2.01 0 1.02 0 0 Z " fill="#F4EACE" transform="translate(939,64)"/>
<path d="M0 0 C-0.9992545 2.55723195 -1.66381944 3.7897249 -4.0234375 5.265625 C-4.79945313 5.59046875 -5.57546875 5.9153125 -6.375 6.25 C-7.53128906 6.75273438 -7.53128906 6.75273438 -8.7109375 7.265625 C-11 8 -11 8 -15 8 C-14 5 -14 5 -11.85546875 3.61328125 C-10.97503906 3.18402344 -10.09460938 2.75476563 -9.1875 2.3125 C-7.87845703 1.65701172 -7.87845703 1.65701172 -6.54296875 0.98828125 C-4 0 -4 0 0 0 Z " fill="#F4EACE" transform="translate(504,741)"/>
<path d="M0 0 C0.33 0.66 0.66 1.32 1 2 C0.61666504 2.55985596 0.23333008 3.11971191 -0.16162109 3.6965332 C-1.89960237 6.23505994 -3.63730424 8.77377781 -5.375 11.3125 C-6.27992188 12.63411133 -6.27992188 12.63411133 -7.203125 13.98242188 C-7.78320312 14.82998047 -8.36328125 15.67753906 -8.9609375 16.55078125 C-9.76217041 17.72120972 -9.76217041 17.72120972 -10.57958984 18.9152832 C-11.72977105 20.60338862 -12.8669148 22.3003722 -14 24 C-14.66 24 -15.32 24 -16 24 C-14.59757517 19.99513735 -12.6854228 16.99702851 -10.125 13.625 C-7.75844943 10.45245032 -5.52087519 7.35077118 -3.625 3.875 C-2 1 -2 1 0 0 Z " fill="#F5EBCF" transform="translate(280,711)"/>
<path d="M0 0 C1.32 0 2.64 0 4 0 C2.54718935 5.32697239 -1.08111378 8.36402802 -5 12 C-5.99 11.67 -6.98 11.34 -8 11 C-6 8 -4 5 -2 2 C-1.34 2 -0.68 2 0 2 C0 1.34 0 0.68 0 0 Z " fill="#F4EBCE" transform="translate(601,648)"/>
<path d="M0 0 C0 0.99 0 1.98 0 3 C-2.12292296 3.52923572 -4.24842051 4.04815377 -6.375 4.5625 C-7.55835938 4.85253906 -8.74171875 5.14257812 -9.9609375 5.44140625 C-13 6 -13 6 -15 5 C-14.67 4.01 -14.34 3.02 -14 2 C-9.18912503 0.45073518 -5.08003559 -0.25400178 0 0 Z " fill="#F4EACE" transform="translate(225,398)"/>
<path d="M0 0 C0.66 0 1.32 0 2 0 C1.54417083 4.86217784 -0.7013442 9.41682402 -4 13 C-5.32 13 -6.64 13 -8 13 C-7.38821244 9.34603593 -5.8335544 7.13957441 -3.5625 4.25 C-2.94503906 3.45078125 -2.32757812 2.6515625 -1.69140625 1.828125 C-1.13324219 1.22484375 -0.57507812 0.6215625 0 0 Z " fill="#F4EBCE" transform="translate(1107,274)"/>
<path d="M0 0 C0.98484375 0.00902344 1.9696875 0.01804688 2.984375 0.02734375 C4.10585937 0.04474609 4.10585937 0.04474609 5.25 0.0625 C4.92 1.0525 4.59 2.0425 4.25 3.0625 C1.08321116 4.3335735 -2.12733787 4.16515074 -5.5 4.125 C-6.48484375 4.11597656 -7.4696875 4.10695312 -8.484375 4.09765625 C-9.23203125 4.08605469 -9.9796875 4.07445312 -10.75 4.0625 C-10.42 3.0725 -10.09 2.0825 -9.75 1.0625 C-6.58321116 -0.2085735 -3.37266213 -0.04015074 0 0 Z " fill="#F4EBCE" transform="translate(1251.75,174.9375)"/>
<path d="M0 0 C4.62 0 9.24 0 14 0 C14 1.32 14 2.64 14 4 C9.38 4 4.76 4 0 4 C0 2.68 0 1.36 0 0 Z " fill="#F4EACE" transform="translate(370,40)"/>
<path d="M0 0 C5.06998019 0.65419099 9.41990777 2.8546409 14 5 C14 5.99 14 6.98 14 8 C8.55432314 6.97137215 3.88182883 5.75385216 -1 3 C-0.67 2.01 -0.34 1.02 0 0 Z " fill="#F4EACE" transform="translate(344,33)"/>
<path d="M0 0 C0 0.66 0 1.32 0 2 C-5.22512279 3.46670113 -9.5814234 4.22577402 -15 4 C-15.33 3.01 -15.66 2.02 -16 1 C-14.0852312 0.63571223 -12.16807707 0.28394694 -10.25 -0.0625 C-9.18265625 -0.25972656 -8.1153125 -0.45695313 -7.015625 -0.66015625 C-4.25228095 -0.97156937 -2.59053383 -0.8991416 0 0 Z " fill="#F4EBCE" transform="translate(957,610)"/>
<path d="M0 0 C4.97093824 0.41153737 9.44508386 0.79600832 14 3 C13.67 3.99 13.34 4.98 13 6 C11.041036 5.69147815 9.08284287 5.3780582 7.125 5.0625 C6.03445313 4.88847656 4.94390625 4.71445312 3.8203125 4.53515625 C1 4 1 4 -1 3 C-0.67 2.01 -0.34 1.02 0 0 Z " fill="#F4EACE" transform="translate(863,607)"/>
<path d="M0 0 C5.8022175 -0.36263859 9.63999211 0.74315457 15 3 C15 3.66 15 4.32 15 5 C9.06997733 5.37851209 4.52760359 4.10575375 -1 2 C-0.67 1.34 -0.34 0.68 0 0 Z " fill="#F4EACE" transform="translate(810,597)"/>
<path d="M0 0 C-0.15089942 4.97968095 -2.88119311 7.32187142 -6.2109375 10.64453125 C-8 12 -8 12 -11 12 C-9.43035549 6.8201731 -5.8629386 0 0 0 Z " fill="#F4EACE" transform="translate(1067,542)"/>
<path d="M0 0 C4.9723422 1.49170266 9.41845739 3.60457417 14 6 C13.67 6.66 13.34 7.32 13 8 C7.79459302 7.03603575 3.40086567 6.12319499 -1 3 C-0.67 2.01 -0.34 1.02 0 0 Z " fill="#F4EACE" transform="translate(82,385)"/>
<path d="M0 0 C0.33 0.66 0.66 1.32 1 2 C-1.86022381 8.19003661 -6.70455448 15.35227724 -12.875 18.4375 C-13.57625 18.623125 -14.2775 18.80875 -15 19 C-13.7260411 16.96166576 -12.38938077 14.96147874 -11 13 C-10.34 13 -9.68 13 -9 13 C-8.7215625 12.42636719 -8.443125 11.85273438 -8.15625 11.26171875 C-7.02333973 9.0456544 -5.80417322 6.93178149 -4.5 4.8125 C-4.0771875 4.11769531 -3.654375 3.42289063 -3.21875 2.70703125 C-2 1 -2 1 0 0 Z " fill="#F4EBCE" transform="translate(500,184)"/>
<path d="M0 0 C5.95507399 0.3916035 10.62819824 1.37124595 16 4 C15.67 4.66 15.34 5.32 15 6 C10.17202681 5.40881961 5.5875989 4.6515356 1 3 C0.67 2.01 0.34 1.02 0 0 Z " fill="#F3EACE" transform="translate(323,64)"/>
<path d="M0 0 C-0.55011562 3.76745848 -2.02377592 5.30609364 -4.875 7.75 C-5.57367187 8.36359375 -6.27234375 8.9771875 -6.9921875 9.609375 C-9 11 -9 11 -12 11 C-11.44988438 7.23254152 -9.97622408 5.69390636 -7.125 3.25 C-6.42632813 2.63640625 -5.72765625 2.0228125 -5.0078125 1.390625 C-3 0 -3 0 0 0 Z " fill="#F4EBCE" transform="translate(624,629)"/>
<path d="M0 0 C5.45769811 -0.11138159 10.61509359 0.08342019 16 1 C15.67 1.99 15.34 2.98 15 4 C9.87416389 4.10251672 5.05002222 4.03590199 0 3 C0 2.01 0 1.02 0 0 Z " fill="#F3EACD" transform="translate(888,611)"/>
<path d="M0 0 C-2.25890379 2.51954654 -4.417897 3.87332733 -7.5 5.25 C-8.2734375 5.60578125 -9.046875 5.9615625 -9.84375 6.328125 C-12 7 -12 7 -15 6 C-15 5.34 -15 4.68 -15 4 C-13.25705322 3.13153169 -11.50531337 2.28069373 -9.75 1.4375 C-8.77546875 0.96183594 -7.8009375 0.48617187 -6.796875 -0.00390625 C-3.90143703 -1.03510273 -2.80033839 -1.11346788 0 0 Z " fill="#F3EACE" transform="translate(1007,593)"/>
<path d="M0 0 C0 0.99 0 1.98 0 3 C-1.9363704 3.50435694 -3.87414146 4.00333874 -5.8125 4.5 C-6.89144531 4.7784375 -7.97039063 5.056875 -9.08203125 5.34375 C-12 6 -12 6 -15 6 C-15 5.01 -15 4.02 -15 3 C-9.89665983 1.094753 -5.53657294 -0.42589023 0 0 Z " fill="#F4EACE" transform="translate(694,593)"/>
<path d="M0 0 C4.29 0.33 8.58 0.66 13 1 C13 2.32 13 3.64 13 5 C11.22880197 4.85866501 9.45804713 4.71176792 7.6875 4.5625 C6.70136719 4.48128906 5.71523438 4.40007813 4.69921875 4.31640625 C2 4 2 4 -1 3 C-0.67 2.01 -0.34 1.02 0 0 Z " fill="#F4EBCE" transform="translate(759,589)"/>
<path d="M0 0 C0 3.25440983 -0.37466113 3.93806022 -2.1171875 6.5390625 C-2.55933594 7.20164062 -3.00148438 7.86421875 -3.45703125 8.546875 C-3.92496094 9.23265625 -4.39289063 9.9184375 -4.875 10.625 C-5.33519531 11.31851562 -5.79539062 12.01203125 -6.26953125 12.7265625 C-9.73294827 17.86647413 -9.73294827 17.86647413 -12 19 C-10.21965318 13.40462428 -10.21965318 13.40462428 -8.8125 10.8125 C-7.6797224 8.83312397 -7.6797224 8.83312397 -9 6 C-8.67 5.34 -8.34 4.68 -8 4 C-7.401875 3.855625 -6.80375 3.71125 -6.1875 3.5625 C-3.58775458 2.89399403 -2.05662055 1.68936688 0 0 Z " fill="#F6ECD1" transform="translate(1051,425)"/>
<path d="M0 0 C-0.33 0.99 -0.66 1.98 -1 3 C-6.27993412 5.45790037 -10.21840447 6.36134972 -16 6 C-13.63078826 3.28787603 -11.32893261 2.07761003 -8 0.75 C-7.13375 0.39421875 -6.2675 0.0384375 -5.375 -0.328125 C-3 -1 -3 -1 0 0 Z " fill="#F4EACE" transform="translate(251,390)"/>
<path d="M0 0 C-2.72106694 2.72106694 -4.84776311 2.60655572 -8.625 3.125 C-10.40777344 3.37636719 -10.40777344 3.37636719 -12.2265625 3.6328125 C-13.14179688 3.75398438 -14.05703125 3.87515625 -15 4 C-15.33 3.01 -15.66 2.02 -16 1 C-14.08833753 0.4409289 -12.17038424 -0.09666462 -10.25 -0.625 C-9.18265625 -0.92664063 -8.1153125 -1.22828125 -7.015625 -1.5390625 C-3.78111062 -2.03345719 -2.66125745 -1.79570284 0 0 Z " fill="#F3EACE" transform="translate(351,356)"/>
<path d="M0 0 C0 0.99 0 1.98 0 3 C-2.3359375 4.82421875 -2.3359375 4.82421875 -5.375 6.6875 C-6.37273438 7.31011719 -7.37046875 7.93273437 -8.3984375 8.57421875 C-11 10 -11 10 -13 10 C-12.66960927 6.91635318 -12.02342865 6.02152903 -9.6875 3.875 C-4.13333333 0 -4.13333333 0 0 0 Z " fill="#F4EBCE" transform="translate(953,282)"/>
<path d="M0 0 C1.32 0 2.64 0 4 0 C3.38821244 3.65396407 1.8335544 5.86042559 -0.4375 8.75 C-1.05496094 9.54921875 -1.67242188 10.3484375 -2.30859375 11.171875 C-2.86675781 11.77515625 -3.42492188 12.3784375 -4 13 C-4.66 13 -5.32 13 -6 13 C-5.54417083 8.13782216 -3.2986558 3.58317598 0 0 Z " fill="#F4EACE" transform="translate(1121,253)"/>
<path d="M0 0 C1.76923828 0.01353516 1.76923828 0.01353516 3.57421875 0.02734375 C4.47785156 0.03894531 5.38148437 0.05054688 6.3125 0.0625 C2.38728486 2.33162204 -1.09442173 2.45822016 -5.54296875 2.71875 C-6.25066406 2.8321875 -6.95835938 2.945625 -7.6875 3.0625 C-8.0175 3.7225 -8.3475 4.3825 -8.6875 5.0625 C-4.0675 5.7225 0.5525 6.3825 5.3125 7.0625 C5.3125 7.3925 5.3125 7.7225 5.3125 8.0625 C3.58369018 8.11699838 1.85437288 8.15551688 0.125 8.1875 C-0.83792969 8.21070313 -1.80085938 8.23390625 -2.79296875 8.2578125 C-5.81562778 8.0538544 -7.95519985 7.33124632 -10.6875 6.0625 C-10.3575 4.4125 -10.0275 2.7625 -9.6875 1.0625 C-6.26517028 -0.07827657 -3.60076783 -0.03565117 0 0 Z " fill="#F5EBCF" transform="translate(1107.6875,128.9375)"/>
<path d="M0 0 C0.66 0.33 1.32 0.66 2 1 C2.34615998 6.65394631 1.43425238 10.03006806 -1 15 C-1.99 15 -2.98 15 -4 15 C-3.5253725 12.6865641 -3.04517721 10.37426981 -2.5625 8.0625 C-2.29566406 6.77472656 -2.02882813 5.48695312 -1.75390625 4.16015625 C-1 1 -1 1 0 0 Z " fill="#F4EACE" transform="translate(414,7)"/>
<path d="M0 0 C-0.55570855 3.740665 -2.009785 5.3425749 -4.8125 7.8125 C-5.49957031 8.43769531 -6.18664062 9.06289063 -6.89453125 9.70703125 C-9 11 -9 11 -11.26171875 10.69921875 C-11.83535156 10.46847656 -12.40898437 10.23773437 -13 10 C-11.33333333 8.33333333 -9.66666667 6.66666667 -8 5 C-7.13375 4.071875 -6.2675 3.14375 -5.375 2.1875 C-3 0 -3 0 0 0 Z " fill="#F4EACE" transform="translate(437,784)"/>
<path d="M0 0 C-0.35119173 2.83417891 -0.78491224 3.81648089 -2.99609375 5.703125 C-3.80175781 6.21359375 -4.60742188 6.7240625 -5.4375 7.25 C-6.24058594 7.77078125 -7.04367187 8.2915625 -7.87109375 8.828125 C-10 10 -10 10 -12 10 C-11.61993645 7.35107221 -11.19914355 6.19467845 -9.2578125 4.296875 C-8.55398438 3.78640625 -7.85015625 3.2759375 -7.125 2.75 C-6.42632812 2.22921875 -5.72765625 1.7084375 -5.0078125 1.171875 C-3 0 -3 0 0 0 Z " fill="#F3EACD" transform="translate(457,768)"/>
<path d="M0 0 C0.66 0 1.32 0 2 0 C0.55395683 6.38669065 0.55395683 6.38669065 -1.75 8.9375 C-4.72081007 10.34038253 -6.75236975 10.4145911 -10 10 C-11.875 8.625 -11.875 8.625 -13 7 C-13 6.34 -13 5.68 -13 5 C-12.01 5 -11.02 5 -10 5 C-10 5.66 -10 6.32 -10 7 C-7.13265479 6.9688059 -7.13265479 6.9688059 -4 6 C-1.73674754 3.02236957 -1.73674754 3.02236957 0 0 Z " fill="#F5EBCF" transform="translate(156,568)"/>
<path d="M0 0 C-0.33 0.99 -0.66 1.98 -1 3 C-3.94140625 4.16796875 -3.94140625 4.16796875 -7.5625 5.1875 C-9.35880859 5.70376953 -9.35880859 5.70376953 -11.19140625 6.23046875 C-12.58166016 6.61138672 -12.58166016 6.61138672 -14 7 C-14 5.68 -14 4.36 -14 3 C-4.58997722 -0.44419134 -4.58997722 -0.44419134 0 0 Z " fill="#F4EACE" transform="translate(325,361)"/>
<path d="M0 0 C-0.1953125 1.828125 -0.1953125 1.828125 -1 4 C-3.1796875 5.484375 -3.1796875 5.484375 -5.875 6.75 C-7.20144531 7.39195312 -7.20144531 7.39195312 -8.5546875 8.046875 C-11 9 -11 9 -14 9 C-14 8.01 -14 7.02 -14 6 C-12.04414675 4.99515796 -10.08523763 3.99626195 -8.125 3 C-6.48917969 2.1646875 -6.48917969 2.1646875 -4.8203125 1.3125 C-2 0 -2 0 0 0 Z " fill="#F4EBCE" transform="translate(1036,349)"/>
<path d="M0 0 C-0.5767005 3.89272839 -2.45176908 6.07702923 -5 9 C-5.515625 9.598125 -6.03125 10.19625 -6.5625 10.8125 C-8 12 -8 12 -11 12 C-10.40364189 8.42185133 -9.000066 6.45577139 -6.625 3.75 C-6.01914063 3.04359375 -5.41328125 2.3371875 -4.7890625 1.609375 C-3 0 -3 0 0 0 Z " fill="#F3EACD" transform="translate(1077,316)"/>
<path d="M0 0 C-0.1953125 1.85546875 -0.1953125 1.85546875 -1 4 C-3.1796875 5.30078125 -3.1796875 5.30078125 -5.875 6.3125 C-6.75929688 6.65925781 -7.64359375 7.00601563 -8.5546875 7.36328125 C-11 8 -11 8 -14 7 C-13 4 -13 4 -10.8203125 2.83203125 C-9.93085937 2.49558594 -9.04140625 2.15914062 -8.125 1.8125 C-7.24070312 1.46832031 -6.35640625 1.12414062 -5.4453125 0.76953125 C-3 0 -3 0 0 0 Z " fill="#F3EACD" transform="translate(1204,185)"/>
<path d="M0 0 C-0.51743537 4.03054923 -2.43129462 5.65263855 -5.4375 8.25 C-6.24058594 8.95640625 -7.04367187 9.6628125 -7.87109375 10.390625 C-10 12 -10 12 -12 12 C-12 11.34 -12 10.68 -12 10 C-10.46875 8.4921875 -10.46875 8.4921875 -8.5 6.875 C-7.8503125 6.33617187 -7.200625 5.79734375 -6.53125 5.2421875 C-5.77328125 4.62730469 -5.77328125 4.62730469 -5 4 C-5.78375 4.515625 -6.5675 5.03125 -7.375 5.5625 C-8.24125 6.036875 -9.1075 6.51125 -10 7 C-10.66 6.67 -11.32 6.34 -12 6 C-10.75945552 4.98829382 -9.5071298 3.99102203 -8.25 3 C-7.55390625 2.443125 -6.8578125 1.88625 -6.140625 1.3125 C-4 0 -4 0 0 0 Z " fill="#F5EBCF" transform="translate(952,183)"/>
<path d="M0 0 C4.455 0.99 4.455 0.99 9 2 C9 2.99 9 3.98 9 5 C4.90996141 6.14982602 0.96822949 6.11094256 -3.25 6.0625 C-3.99507812 6.05798828 -4.74015625 6.05347656 -5.5078125 6.04882812 C-7.3385764 6.03709246 -9.16929873 6.0191585 -11 6 C-11 5.67 -11 5.34 -11 5 C-6.71 4.34 -2.42 3.68 2 3 C1.34 2.67 0.68 2.34 0 2 C0 1.34 0 0.68 0 0 Z " fill="#F5EBCF" transform="translate(928,125)"/>
<path d="M0 0 C0.66 0.33 1.32 0.66 2 1 C1.73445312 1.68964844 1.46890625 2.37929687 1.1953125 3.08984375 C-1.03546362 9.02501087 -2.77617746 14.77890211 -4 21 C-4.66 20.67 -5.32 20.34 -6 20 C-5.60146354 13.41727705 -4.86760841 7.02334972 -2 1 C-1.34 0.67 -0.68 0.34 0 0 Z " fill="#F4EBCF" transform="translate(894,111)"/>
<path d="M0 0 C-0.33 0.99 -0.66 1.98 -1 3 C-6.08086796 3.84681133 -10.84828377 4.09038099 -16 4 C-15.67 3.01 -15.34 2.02 -15 1 C-10.03926578 -0.32286246 -5.08888488 -0.08893197 0 0 Z " fill="#F4EACE" transform="translate(555,729)"/>
<path d="M0 0 C-1 3 -1 3 -2.890625 3.94921875 C-10.75674619 6.41063747 -10.75674619 6.41063747 -15 6 C-14.67 5.01 -14.34 4.02 -14 3 C-11.34765625 1.796875 -11.34765625 1.796875 -8.0625 0.75 C-6.44021484 0.21632813 -6.44021484 0.21632813 -4.78515625 -0.328125 C-2 -1 -2 -1 0 0 Z " fill="#F3EACE" transform="translate(982,603)"/>
<path d="M0 0 C5.28 0 10.56 0 16 0 C16 0.99 16 1.98 16 3 C10.72 3 5.44 3 0 3 C0 2.01 0 1.02 0 0 Z " fill="#F3EACD" transform="translate(964,278)"/>
<path d="M0 0 C0.66 0.33 1.32 0.66 2 1 C-1.21327731 4.73259486 -4.76171963 6.46198587 -9.25 8.25 C-9.8996875 8.518125 -10.549375 8.78625 -11.21875 9.0625 C-12.80885754 9.71725016 -14.40394958 10.35987282 -16 11 C-14.94007569 7.68037594 -13.85190728 6.90907543 -10.8125 5.04296875 C-9.54783626 4.41195975 -8.27669326 3.79380112 -7 3.1875 C-6.03707031 2.70120117 -6.03707031 2.70120117 -5.0546875 2.20507812 C-3.4029813 1.39823001 -1.70343441 0.69097646 0 0 Z " fill="#F5EBCF" transform="translate(1095,234)"/>
<path d="M0 0 C-0.33 0.99 -0.66 1.98 -1 3 C-5.62 3.33 -10.24 3.66 -15 4 C-15 3.01 -15 2.02 -15 1 C-12.87630763 0.63807496 -10.7509887 0.28568253 -8.625 -0.0625 C-6.84996094 -0.35833984 -6.84996094 -0.35833984 -5.0390625 -0.66015625 C-2 -1 -2 -1 0 0 Z " fill="#F4EACE" transform="translate(1283,172)"/>
<path d="M0 0 C-0.19140625 1.796875 -0.19140625 1.796875 -1 4 C-3.21484375 5.703125 -3.21484375 5.703125 -5.9375 7.25 C-7.28134766 8.03117187 -7.28134766 8.03117187 -8.65234375 8.828125 C-11 10 -11 10 -13 10 C-12.64582169 7.19099964 -12.21351117 6.18543998 -10.0390625 4.296875 C-8.84410156 3.53117187 -8.84410156 3.53117187 -7.625 2.75 C-6.83351563 2.22921875 -6.04203125 1.7084375 -5.2265625 1.171875 C-3 0 -3 0 0 0 Z " fill="#F4EBCE" transform="translate(388,51)"/>
<path d="M0 0 C-1.41043479 3.36165806 -3.01526034 5.09505232 -5.9375 7.25 C-6.97197266 8.03117188 -6.97197266 8.03117188 -8.02734375 8.828125 C-10 10 -10 10 -13 10 C-12.80859375 8.203125 -12.80859375 8.203125 -12 6 C-9.78515625 4.296875 -9.78515625 4.296875 -7.0625 2.75 C-5.71865234 1.96882812 -5.71865234 1.96882812 -4.34765625 1.171875 C-2 0 -2 0 0 0 Z " fill="#F4EACE" transform="translate(645,613)"/>
<path d="M0 0 C10.55808656 0.77904328 10.55808656 0.77904328 15 3 C15 3.66 15 4.32 15 5 C9.5814234 5.22577402 5.22512279 4.46670113 0 3 C0 2.01 0 1.02 0 0 Z " fill="#F4EACE" transform="translate(784,592)"/>
<path d="M0 0 C0.99386719 0.00902344 1.98773437 0.01804687 3.01171875 0.02734375 C4.15060547 0.04474609 4.15060547 0.04474609 5.3125 0.0625 C5.3125 1.0525 5.3125 2.0425 5.3125 3.0625 C0.3625 3.3925 -4.5875 3.7225 -9.6875 4.0625 C-9.3575 3.0725 -9.0275 2.0825 -8.6875 1.0625 C-5.53819107 0.01273036 -3.29935544 -0.03881595 0 0 Z " fill="#F4EACE" transform="translate(714.6875,588.9375)"/>
<path d="M0 0 C0.66 0 1.32 0 2 0 C1.53851564 4.92249987 -0.80390169 9.27737682 -4 13 C-4.99 13 -5.98 13 -7 13 C-6.35952602 9.55251042 -5.00294981 7.15355815 -3.0625 4.25 C-2.53785156 3.45078125 -2.01320313 2.6515625 -1.47265625 1.828125 C-0.74369141 0.92320312 -0.74369141 0.92320312 0 0 Z " fill="#F4EACE" transform="translate(1080,520)"/>
<path d="M0 0 C0.99 0.33 1.98 0.66 3 1 C2.57855998 3.1490452 2.13737951 5.29422788 1.6875 7.4375 C1.44386719 8.63246094 1.20023438 9.82742188 0.94921875 11.05859375 C0.63597656 12.02925781 0.32273437 12.99992187 0 14 C-0.99 14.33 -1.98 14.66 -3 15 C-2.22095672 4.44191344 -2.22095672 4.44191344 0 0 Z " fill="#F4EACE" transform="translate(1099,471)"/>
<path d="M0 0 C-0.33 0.99 -0.66 1.98 -1 3 C-5.62 3 -10.24 3 -15 3 C-15.33 2.01 -15.66 1.02 -16 0 C-11.17247654 -1.24581251 -4.59543291 -2.29771645 0 0 Z " fill="#F3EACD" transform="translate(377,353)"/>
<path d="M0 0 C-1.21395953 3.64187858 -2.09006077 3.91745993 -5.375 5.6875 C-6.56222656 6.34298828 -6.56222656 6.34298828 -7.7734375 7.01171875 C-10 8 -10 8 -13 8 C-12.73828125 6.140625 -12.73828125 6.140625 -12 4 C-10.29296875 2.734375 -10.29296875 2.734375 -8.1875 1.75 C-7.50042969 1.41484375 -6.81335938 1.0796875 -6.10546875 0.734375 C-4 0 -4 0 0 0 Z " fill="#F4EBCE" transform="translate(75,329)"/>
<path d="M0 0 C-0.55959523 3.82246588 -2.21317357 5.58971741 -4.9375 8.25 C-5.64777344 8.95640625 -6.35804687 9.6628125 -7.08984375 10.390625 C-9 12 -9 12 -11 12 C-10.40364189 8.42185133 -9.000066 6.45577139 -6.625 3.75 C-6.01914063 3.04359375 -5.41328125 2.3371875 -4.7890625 1.609375 C-3 0 -3 0 0 0 Z " fill="#F4EACE" transform="translate(1159,212)"/>
<path d="M0 0 C-0.38006355 2.64892779 -0.80085645 3.80532155 -2.7421875 5.703125 C-3.44601562 6.21359375 -4.14984375 6.7240625 -4.875 7.25 C-5.92300781 8.03117188 -5.92300781 8.03117188 -6.9921875 8.828125 C-9 10 -9 10 -12 10 C-11.64880827 7.16582109 -11.21508776 6.18351911 -9.00390625 4.296875 C-8.19824219 3.78640625 -7.39257812 3.2759375 -6.5625 2.75 C-5.35787109 1.96882812 -5.35787109 1.96882812 -4.12890625 1.171875 C-2 0 -2 0 0 0 Z " fill="#F4EACE" transform="translate(1180,196)"/>
<path d="M0 0 C0.33 0.66 0.66 1.32 1 2 C-3 6 -3 6 -4.5625 7.5 C-6.10300302 8.95935935 -6.10300302 8.95935935 -7 11 C-6.34 11 -5.68 11 -5 11 C-5.33 12.32 -5.66 13.64 -6 15 C-7.65 15.33 -9.3 15.66 -11 16 C-6.49480249 4.22245322 -6.49480249 4.22245322 -4 1 C-1.8125 0.1875 -1.8125 0.1875 0 0 Z " fill="#F7EDD2" transform="translate(574,88)"/>
<path d="M0 0 C4.95 0 9.9 0 15 0 C15 0.99 15 1.98 15 3 C10.05 3 5.1 3 0 3 C0 2.01 0 1.02 0 0 Z " fill="#F3EACD" transform="translate(731,588)"/>
<path d="M0 0 C0.66 0.33 1.32 0.66 2 1 C0.12459748 5.77375186 -3.20614205 8.2027298 -7.8125 10.25 C-8.534375 10.4975 -9.25625 10.745 -10 11 C-9.65978036 7.82461668 -8.97533396 6.97723135 -6.5625 4.75 C-4 3 -4 3 -2 3 C-2 2.34 -2 1.68 -2 1 C-1.34 0.67 -0.68 0.34 0 0 Z " fill="#F4EACE" transform="translate(88,412)"/>
<path d="M0 0 C0.33 0 0.66 0 1 0 C0.88487847 1.72985242 0.75744323 3.45888751 0.625 5.1875 C0.55539062 6.15042969 0.48578125 7.11335938 0.4140625 8.10546875 C-0.00215853 11.01508938 -0.79874096 13.32890774 -2 16 C-2.66 15.67 -3.32 15.34 -4 15 C-3.39425587 4.24281984 -3.39425587 4.24281984 0 0 Z " fill="#F4EACE" transform="translate(934,300)"/>
<path d="M0 0 C1.98361438 0.58939975 3.96183541 1.19697789 5.9375 1.8125 C7.03964844 2.14894531 8.14179687 2.48539062 9.27734375 2.83203125 C10.17582031 3.21746094 11.07429687 3.60289062 12 4 C12.33 4.99 12.66 5.98 13 7 C7.33895411 6.50341703 3.12325529 5.45489316 -2 3 C-1.34 2.01 -0.68 1.02 0 0 Z " fill="#F4EACE" transform="translate(992,280)"/>
<path d="M0 0 C0.99 0 1.98 0 3 0 C2.38024215 3.355762 1.15537152 5.52263528 -0.875 8.25 C-1.38804688 8.95640625 -1.90109375 9.6628125 -2.4296875 10.390625 C-2.94789062 10.92171875 -3.46609375 11.4528125 -4 12 C-4.99 12 -5.98 12 -7 12 C-6.38024215 8.644238 -5.15537152 6.47736472 -3.125 3.75 C-2.61195312 3.04359375 -2.09890625 2.3371875 -1.5703125 1.609375 C-0.79300781 0.81273437 -0.79300781 0.81273437 0 0 Z " fill="#F3EACE" transform="translate(1138,232)"/>
<path d="M0 0 C0.33 0 0.66 0 1 0 C1.24991456 6.65050424 0.73955334 12.56986533 -1 19 C-2.32 19.33 -3.64 19.66 -5 20 C-4.35587386 17.22875964 -3.70977252 14.45800555 -3.0625 11.6875 C-2.88009766 10.90181641 -2.69769531 10.11613281 -2.50976562 9.30664062 C-2.33251953 8.54931641 -2.15527344 7.79199219 -1.97265625 7.01171875 C-1.81031494 6.31522217 -1.64797363 5.61872559 -1.48071289 4.90112305 C-1.06234435 3.2465594 -0.53968631 1.61905892 0 0 Z " fill="#F4EBCE" transform="translate(886,110)"/>
<path d="M0 0 C-1.46966358 3.39859703 -3.38037514 5.64963709 -6 8.25 C-6.70125 8.95640625 -7.4025 9.6628125 -8.125 10.390625 C-10 12 -10 12 -12 12 C-12.33 11.01 -12.66 10.02 -13 9 C-11.40423801 7.49106184 -9.79810089 5.99308924 -8.1875 4.5 C-7.29417969 3.6646875 -6.40085937 2.829375 -5.48046875 1.96875 C-3 0 -3 0 0 0 Z " fill="#F4EBCE" transform="translate(455,8)"/>
<path d="M0 0 C-0.35536481 2.81228361 -0.80350348 3.82581484 -2.9609375 5.73828125 C-4.15589844 6.51751953 -4.15589844 6.51751953 -5.375 7.3125 C-6.16648437 7.84488281 -6.95796875 8.37726562 -7.7734375 8.92578125 C-10 10 -10 10 -13 9 C-4.5 0 -4.5 0 0 0 Z " fill="#F4EACE" transform="translate(479,753)"/>
<path d="M0 0 C5.99291003 0.41330414 9.25036599 1.31903365 14 5 C13.67 5.99 13.34 6.98 13 8 C8.71 6.02 4.42 4.04 0 2 C0 1.34 0 0.68 0 0 Z " fill="#F4EACE" transform="translate(592,733)"/>
<path d="M0 0 C0.66 0 1.32 0 2 0 C1.44988438 3.76745848 -0.02377592 5.30609364 -2.875 7.75 C-3.57367187 8.36359375 -4.27234375 8.9771875 -4.9921875 9.609375 C-7 11 -7 11 -10 11 C-10 10.01 -10 9.02 -10 8 C-8.3203125 6.46484375 -8.3203125 6.46484375 -6.125 4.9375 C-3.88986913 3.36329493 -1.93742034 1.93742034 0 0 Z " fill="#F3EACD" transform="translate(1047,561)"/>
<path d="M0 0 C0.66 0.33 1.32 0.66 2 1 C1.71253906 1.56847656 1.42507813 2.13695313 1.12890625 2.72265625 C-2.85431394 10.55041452 -2.85431394 10.55041452 -5 19 C-5.99 19.33 -6.98 19.66 -8 20 C-8.33 19.34 -8.66 18.68 -9 18 C-8.39501953 16.22827148 -8.39501953 16.22827148 -7.3828125 14.12109375 C-6.84333984 12.98704102 -6.84333984 12.98704102 -6.29296875 11.83007812 C-5.90753906 11.04052734 -5.52210938 10.25097656 -5.125 9.4375 C-4.74730469 8.64408203 -4.36960937 7.85066406 -3.98046875 7.03320312 C-1.16333128 1.16333128 -1.16333128 1.16333128 0 0 Z " fill="#F7EDD1" transform="translate(835,92)"/>
<path d="M0 0 C4.91319147 1.53537234 9.32235164 4.41360843 13 8 C13 8.99 13 9.98 13 11 C9.37159027 10.38416899 7.13879117 8.86239708 4.25 6.625 C3.45078125 6.01914063 2.6515625 5.41328125 1.828125 4.7890625 C0.92320312 3.90347656 0.92320312 3.90347656 0 3 C0 2.01 0 1.02 0 0 Z " fill="#F4EBCE" transform="translate(923,69)"/>
<path d="M0 0 C-0.2265625 1.828125 -0.2265625 1.828125 -1 4 C-2.9609375 5.484375 -2.9609375 5.484375 -5.375 6.75 C-6.16648437 7.17796875 -6.95796875 7.6059375 -7.7734375 8.046875 C-10 9 -10 9 -13 9 C-13 8.01 -13 7.02 -13 6 C-11.21118264 4.99491199 -9.41885304 3.99607264 -7.625 3 C-6.62726563 2.443125 -5.62953125 1.88625 -4.6015625 1.3125 C-2 0 -2 0 0 0 Z " fill="#F3EACE" transform="translate(434,25)"/>
<path d="M0 0 C0.66 0.33 1.32 0.66 2 1 C0.35821735 5.77609498 -2.26546702 9.79382904 -5 14 C-5.99 13.67 -6.98 13.34 -8 13 C-5.78568122 8.22173317 -3.11878714 4.21457722 0 0 Z " fill="#F4EACE" transform="translate(587,668)"/>
<path d="M0 0 C0.66 0 1.32 0 2 0 C1.51679152 6.2054142 0.66681876 11.99945246 -1 18 C-1.66 18 -2.32 18 -3 18 C-2.57045059 11.74892565 -1.98598493 5.95795479 0 0 Z " fill="#F4EBCF" transform="translate(1219,533)"/>
<path d="M0 0 C0.33 0.66 0.66 1.32 1 2 C-2.22914452 5.68579122 -5.88653531 7.68356245 -10.25 9.75 C-10.8996875 10.06582031 -11.549375 10.38164062 -12.21875 10.70703125 C-13.80893701 11.47873965 -15.40399229 12.24040275 -17 13 C-15.51727973 8.96176774 -13.39145156 7.8308235 -9.625 5.9375 C-6.16425935 4.17914525 -3.03727522 2.42550178 0 0 Z " fill="#F4EBCF" transform="translate(472,219)"/>
<path d="M0 0 C0.33 0 0.66 0 1 0 C1 4.95 1 9.9 1 15 C-0.65 15 -2.3 15 -4 15 C-3.5253725 12.6865641 -3.04517721 10.37426981 -2.5625 8.0625 C-2.29566406 6.77472656 -2.02882813 5.48695313 -1.75390625 4.16015625 C-1 1 -1 1 0 0 Z " fill="#F5EBCF" transform="translate(531,792)"/>
<path d="M0 0 C0 0.66 0 1.32 0 2 C-2.62353518 3.00399524 -5.24867795 4.00334445 -7.875 5 C-8.62136719 5.28617188 -9.36773438 5.57234375 -10.13671875 5.8671875 C-15.7734375 8 -15.7734375 8 -18 8 C-17.67 7.01 -17.34 6.02 -17 5 C-14.69384528 3.95308833 -12.51663184 3.10255004 -10.125 2.3125 C-9.48691406 2.08755859 -8.84882812 1.86261719 -8.19140625 1.63085938 C-5.33402021 0.649565 -3.04143468 0 0 0 Z " fill="#F4EBCF" transform="translate(1076,235)"/>
<path d="M0 0 C0.66 0 1.32 0 2 0 C2.33 0.99 2.66 1.98 3 3 C5.70123724 4.04119351 8.28814435 4.90328845 11.0625 5.6875 C12.20041992 6.02491211 12.20041992 6.02491211 13.36132812 6.36914062 C15.23766304 6.9237805 17.11844855 7.46332298 19 8 C19 8.33 19 8.66 19 9 C12.36984999 9.60274091 5.92895613 8.02993973 0 5 C-0.9140625 2.921875 -0.9140625 2.921875 -1 1 C-0.67 0.67 -0.34 0.34 0 0 Z " fill="#F5EBCF" transform="translate(1057,130)"/>
<path d="M0 0 C0.66 0.33 1.32 0.66 2 1 C1.14277344 1.51949219 0.28554687 2.03898438 -0.59765625 2.57421875 C-6.54336924 6.19463244 -12.41055131 9.84041028 -18 14 C-18.66 13.67 -19.32 13.34 -20 13 C-14.11264512 7.38647558 -7.44831721 3.26059201 0 0 Z " fill="#F5EBCF" transform="translate(103,525)"/>
<path d="M0 0 C0 0.66 0 1.32 0 2 C-1.49609375 3.21875 -1.49609375 3.21875 -3.4375 4.5 C-6.22531847 6.2865363 -6.22531847 6.2865363 -8 9 C-4.535 8.505 -4.535 8.505 -1 8 C-1 8.66 -1 9.32 -1 10 C-3.64 10.33 -6.28 10.66 -9 11 C-9.33 9.35 -9.66 7.7 -10 6 C-8.90398831 4.99106869 -7.79786082 3.99311775 -6.6875 3 C-6.07261719 2.443125 -5.45773437 1.88625 -4.82421875 1.3125 C-3 0 -3 0 0 0 Z " fill="#F5EBCF" transform="translate(1110,78)"/>
<path d="M0 0 C0 0.66 0 1.32 0 2 C-1.98 2.99 -1.98 2.99 -4 4 C-0.535 3.505 -0.535 3.505 3 3 C3 3.66 3 4.32 3 5 C-0.82989106 6.80230168 -3.78121808 7.19622241 -8 7 C-8 5.68 -8 4.36 -8 3 C-5.12645755 0.82542733 -3.63563409 0 0 0 Z " fill="#F5EBCF" transform="translate(1097,68)"/>
<path d="M0 0 C0.33 0.66 0.66 1.32 1 2 C0.67 2.66 0.34 3.32 0 4 C0.66 4.33 1.32 4.66 2 5 C1.34 7.31 0.68 9.62 0 12 C-0.99 12 -1.98 12 -3 12 C-3.66 11.34 -4.32 10.68 -5 10 C-3.35 6.7 -1.7 3.4 0 0 Z " fill="#F7EDD2" transform="translate(1008,160)"/>
<path d="M0 0 C0.928125 0.20625 1.85625 0.4125 2.8125 0.625 C3.1425 1.615 3.4725 2.605 3.8125 3.625 C1.1725 3.625 -1.4675 3.625 -4.1875 3.625 C-4.1875 4.615 -4.1875 5.605 -4.1875 6.625 C-5.1775 6.295 -6.1675 5.965 -7.1875 5.625 C-6.875 3.75 -6.875 3.75 -6.1875 1.625 C-3.1875 -0.375 -3.1875 -0.375 0 0 Z " fill="#F4EBCF" transform="translate(231.1875,712.375)"/>
<path d="M0 0 C0.66 0.33 1.32 0.66 2 1 C1.01 6.61 0.02 12.22 -1 18 C-1.99 18 -2.98 18 -4 18 C-3.5256323 15.18661171 -3.04575381 12.37436287 -2.5625 9.5625 C-2.42779297 8.76005859 -2.29308594 7.95761719 -2.15429688 7.13085938 C-1.11328125 1.11328125 -1.11328125 1.11328125 0 0 Z " fill="#F4EBCF" transform="translate(1196,534)"/>
<path d="M0 0 C2.97 0 5.94 0 9 0 C9 0.33 9 0.66 9 1 C6.69 1 4.38 1 2 1 C2 1.66 2 2.32 2 3 C3.0828125 3.433125 3.0828125 3.433125 4.1875 3.875 C6.79166667 4.91666667 9.39583333 5.95833333 12 7 C12 7.66 12 8.32 12 9 C2.40546697 6.10933941 2.40546697 6.10933941 -1 3 C-0.67 2.01 -0.34 1.02 0 0 Z " fill="#F4EBCF" transform="translate(1089,164)"/>
<path d="M0 0 C3.44769066 0.31342642 5.55940337 0.67534985 8.375 2.75 C10.29619066 5.41011015 10.35659503 6.79064469 10 10 C9.01 10.33 8.02 10.66 7 11 C7.04125 10.05125 7.0825 9.1025 7.125 8.125 C7.34973818 4.89755144 7.34973818 4.89755144 5 3 C2.93125966 2.3574765 2.93125966 2.3574765 1 2 C1.66 3.32 2.32 4.64 3 6 C1.68 5.34 0.36 4.68 -1 4 C-0.67 2.68 -0.34 1.36 0 0 Z " fill="#F6ECD0" transform="translate(146,649)"/>
<path d="M0 0 C1.4216868 4.26506039 -0.34613318 7.20037743 -1.9375 11.1875 C-2.22818359 11.93708984 -2.51886719 12.68667969 -2.81835938 13.45898438 C-3.53725036 15.30924477 -4.26754653 17.15506648 -5 19 C-5.66 18.67 -6.32 18.34 -7 18 C-6.44380331 13.3110507 -5.11817327 9.80075733 -2.9375 5.625 C-2.38964844 4.56539062 -1.84179688 3.50578125 -1.27734375 2.4140625 C-0.85582031 1.61742187 -0.43429687 0.82078125 0 0 Z " fill="#F5EBCF" transform="translate(527,163)"/>
<path d="M0 0 C2.97 0 5.94 0 9 0 C8 4 8 4 6.29296875 5.08203125 C5.59816406 5.32308594 4.90335938 5.56414062 4.1875 5.8125 C3.15689453 6.19341797 3.15689453 6.19341797 2.10546875 6.58203125 C0 7 0 7 -4 6 C0.95 4.515 0.95 4.515 6 3 C6 2.34 6 1.68 6 1 C3.69 1.33 1.38 1.66 -1 2 C-0.67 1.34 -0.34 0.68 0 0 Z " fill="#F5EBCF" transform="translate(916,146)"/>
<path d="M0 0 C0.66 0.33 1.32 0.66 2 1 C1.401875 2.175625 0.80375 3.35125 0.1875 4.5625 C-1.20013638 7.31815953 -2.46809356 10.07786459 -3.625 12.9375 C-5 16 -5 16 -7 17 C-3.72093023 3.72093023 -3.72093023 3.72093023 0 0 Z " fill="#F5EBCF" transform="translate(1251,23)"/>
<path d="M0 0 C1.16144531 0.00902344 2.32289063 0.01804688 3.51953125 0.02734375 C4.39996094 0.03894531 5.28039062 0.05054688 6.1875 0.0625 C5.5275 1.3825 4.8675 2.7025 4.1875 4.0625 C3.1975 3.7325 2.2075 3.4025 1.1875 3.0625 C1.5175 2.7325 1.8475 2.4025 2.1875 2.0625 C-5.7325 2.5575 -5.7325 2.5575 -13.8125 3.0625 C-10.0411108 -0.7088892 -5.08014504 -0.0513146 0 0 Z " fill="#F4EBCF" transform="translate(977.8125,128.9375)"/>
<path d="M0 0 C0 0.99 0 1.98 0 3 C-1.828125 4.5 -1.828125 4.5 -4.25 6 C-6.63696541 7.49770379 -8.94556526 8.95770538 -11.171875 10.6875 C-13 12 -13 12 -15 12 C-15 11.34 -15 10.68 -15 10 C-12.9045192 8.39149713 -10.81767584 6.90159684 -8.625 5.4375 C-7.72007813 4.8197168 -7.72007813 4.8197168 -6.796875 4.18945312 C-2.37504852 1.18752426 -2.37504852 1.18752426 0 0 Z " fill="#F5EBCF" transform="translate(1241,16)"/>
<path d="M0 0 C0.99 0.33 1.98 0.66 3 1 C1.74054645 2.67528263 0.46706318 4.34002614 -0.8125 6 C-1.87404297 7.3921875 -1.87404297 7.3921875 -2.95703125 8.8125 C-3.63121094 9.534375 -4.30539062 10.25625 -5 11 C-5.99 11 -6.98 11 -8 11 C-6.63629701 8.00779732 -5.05091917 5.70973471 -2.875 3.25 C-2.33617187 2.63640625 -1.79734375 2.0228125 -1.2421875 1.390625 C-0.62730469 0.70226562 -0.62730469 0.70226562 0 0 Z " fill="#F4EBCE" transform="translate(748,0)"/>
<path d="M0 0 C3.17989806 1.53794135 6.21481974 3.256479 9.25 5.0625 C10.14203125 5.58972656 11.0340625 6.11695313 11.953125 6.66015625 C12.96632813 7.32337891 12.96632813 7.32337891 14 8 C14 8.33 14 8.66 14 9 C9.80063066 9.33565119 7.64904586 8.5468621 4.1875 6.1875 C3.39730469 5.66542969 2.60710938 5.14335938 1.79296875 4.60546875 C1.20128906 4.07566406 0.60960937 3.54585937 0 3 C0 2.01 0 1.02 0 0 Z " fill="#F5EBCF" transform="translate(47,798)"/>
<path d="M0 0 C0.66 0.33 1.32 0.66 2 1 C0.68 5.95 -0.64 10.9 -2 16 C-2.66 16 -3.32 16 -4 16 C-2.98408579 10.53135543 -1.92908943 5.23609987 0 0 Z " fill="#F5EBCF" transform="translate(999,207)"/>
<path d="M0 0 C0.99 0 1.98 0 3 0 C2.57742724 1.4835001 2.13643678 2.96176424 1.6875 4.4375 C1.44386719 5.26121094 1.20023437 6.08492188 0.94921875 6.93359375 C0.63597656 7.61550781 0.32273437 8.29742187 0 9 C-0.99 9.33 -1.98 9.66 -3 10 C-2.25 3.375 -2.25 3.375 0 0 Z " fill="#F3EACD" transform="translate(104,0)"/>
<path d="M0 0 C-1 3 -1 3 -3.21484375 4.421875 C-4.56255859 5.07929688 -4.56255859 5.07929688 -5.9375 5.75 C-6.83339844 6.19859375 -7.72929688 6.6471875 -8.65234375 7.109375 C-9.42707031 7.40328125 -10.20179688 7.6971875 -11 8 C-11.66 7.67 -12.32 7.34 -13 7 C-5.07894737 0 -5.07894737 0 0 0 Z " fill="#F4EBCF" transform="translate(783,168)"/>
<path d="M0 0 C0.99 0 1.98 0 3 0 C3 3.63 3 7.26 3 11 C2.01 10.67 1.02 10.34 0 10 C0 6.7 0 3.4 0 0 Z " fill="#F3EACD" transform="translate(293,0)"/>
<path d="M0 0 C0.66 0.33 1.32 0.66 2 1 C-0.28953844 2.98167622 -2.58149798 4.96042047 -4.875 6.9375 C-5.85146484 7.78344727 -5.85146484 7.78344727 -6.84765625 8.64648438 C-7.47285156 9.18466797 -8.09804688 9.72285156 -8.7421875 10.27734375 C-9.3182373 10.77484131 -9.89428711 11.27233887 -10.48779297 11.78491211 C-12 13 -12 13 -14 14 C-12.51167917 10.41194006 -10.48442067 8.39869503 -7.5625 5.875 C-6.78003906 5.19179688 -5.99757813 4.50859375 -5.19140625 3.8046875 C-3 2 -3 2 0 0 Z " fill="#F6ECD1" transform="translate(305,793)"/>
<path d="M0 0 C8.93617021 1.78723404 8.93617021 1.78723404 12 6 C12 6.99 12 7.98 12 9 C11.34 9 10.68 9 10 9 C9.76539063 8.37609375 9.53078125 7.7521875 9.2890625 7.109375 C7.63176925 4.39744059 6.3858401 4.11024003 3.375 3.25 C2.55773437 3.00765625 1.74046875 2.7653125 0.8984375 2.515625 C0.27195312 2.34546875 -0.35453125 2.1753125 -1 2 C-0.67 1.34 -0.34 0.68 0 0 Z " fill="#F4EBCF" transform="translate(122,716)"/>
<path d="M0 0 C0.66 0 1.32 0 2 0 C1.54901762 1.93922422 1.08894441 3.87633594 0.625 5.8125 C0.36976563 6.89144531 0.11453125 7.97039063 -0.1484375 9.08203125 C-1 12 -1 12 -3 15 C-3.66 15 -4.32 15 -5 15 C-3.33333333 10 -1.66666667 5 0 0 Z " fill="#F5EBCF" transform="translate(265,688)"/>
<path d="M0 0 C1.19126781 3.57380342 0.7349445 5.50883302 0.0625 9.1875 C-0.13214844 10.27417969 -0.32679687 11.36085937 -0.52734375 12.48046875 C-0.68332031 13.31191406 -0.83929687 14.14335937 -1 15 C-1.66 15 -2.32 15 -3 15 C-2.88623383 12.87436897 -2.75864369 10.7494739 -2.625 8.625 C-2.55539062 7.44164062 -2.48578125 6.25828125 -2.4140625 5.0390625 C-2 2 -2 2 0 0 Z " fill="#F4EBCF" transform="translate(1025,205)"/>
<path d="M0 0 C0 0.66 0 1.32 0 2 C-1.66666667 3.66666667 -3.33333333 5.33333333 -5 7 C-5.721875 8.093125 -6.44375 9.18625 -7.1875 10.3125 C-7.785625 11.199375 -8.38375 12.08625 -9 13 C-9.66 13 -10.32 13 -11 13 C-9.75810874 8.58438665 -5.13864596 0 0 0 Z " fill="#F5EBCF" transform="translate(878,410)"/>
<path d="M0 0 C0.99 0 1.98 0 3 0 C1.7580393 3.43927579 0.44259716 6.25207819 -2 9 C-2.66 9 -3.32 9 -4 9 C-3.47557578 5.2241456 -2.67345333 2.77627845 0 0 Z " fill="#F4EACE" transform="translate(84,564)"/>
<path d="M0 0 C3.9492568 0.55105909 7.34920174 1.38935371 11 3 C10.67 3.66 10.34 4.32 10 5 C2.25 3.125 2.25 3.125 0 2 C0 1.34 0 0.68 0 0 Z " fill="#F4EBCF" transform="translate(518,624)"/>
<path d="M0 0 C0 0.66 0 1.32 0 2 C-3.87684087 3.19287411 -6.91621923 4 -11 4 C-11 3.34 -11 2.68 -11 2 C-7.17679443 0.57741188 -4.08718695 -0.24042276 0 0 Z " fill="#F5EBCF" transform="translate(978,132)"/>
<path d="M0 0 C0 3.99282941 -1.47808076 5.15331592 -4 8.1875 C-4.7425 9.08855469 -5.485 9.98960937 -6.25 10.91796875 C-6.8275 11.60503906 -7.405 12.29210937 -8 13 C-8 9.21775154 -6.90729614 8.2717904 -4.5625 5.375 C-3.92441406 4.57835937 -3.28632813 3.78171875 -2.62890625 2.9609375 C-1 1 -1 1 0 0 Z " fill="#F5EBCF" transform="translate(430,261)"/>
<path d="M0 0 C0.33 0.66 0.66 1.32 1 2 C0.00390625 4.3828125 0.00390625 4.3828125 -1.4375 7.125 C-1.91058594 8.03507813 -2.38367188 8.94515625 -2.87109375 9.8828125 C-3.24363281 10.58148438 -3.61617187 11.28015625 -4 12 C-4.66 11.67 -5.32 11.34 -6 11 C-5.18993474 9.35296694 -4.3768779 7.70740494 -3.5625 6.0625 C-3.11003906 5.14597656 -2.65757812 4.22945312 -2.19140625 3.28515625 C-1 1 -1 1 0 0 Z " fill="#F4EBCE" transform="translate(996,204)"/>
<path d="M0 0 C2.64 1.65 5.28 3.3 8 5 C7.67 5.99 7.34 6.98 7 8 C4.36 6.35 1.72 4.7 -1 3 C-0.67 2.01 -0.34 1.02 0 0 Z " fill="#F5EBCF" transform="translate(61,771)"/>
<path d="M0 0 C0.66 0 1.32 0 2 0 C0.44499019 3.81684226 -2.03595495 6.19195732 -5 9 C-5.66 8.67 -6.32 8.34 -7 8 C-6.67 7.34 -6.34 6.68 -6 6 C-5.34 6 -4.68 6 -4 6 C-4 5.34 -4 4.68 -4 4 C-3.34 4 -2.68 4 -2 4 C-1.34 2.68 -0.68 1.36 0 0 Z " fill="#F6ECD1" transform="translate(320,779)"/>
<path d="M0 0 C0.33 0.66 0.66 1.32 1 2 C-0.2739589 4.03833424 -1.61061923 6.03852126 -3 8 C-3.66 8 -4.32 8 -5 8 C-3.8141763 4.62496331 -2.72426311 2.35277269 0 0 Z " fill="#F4EBCF" transform="translate(583,469)"/>
<path d="M0 0 C-3.3340947 2.19097652 -6.04179141 3.43454163 -10 4 C-9.67 3.01 -9.34 2.02 -9 1 C-2.63157895 -1.31578947 -2.63157895 -1.31578947 0 0 Z " fill="#F5EBCF" transform="translate(1058,250)"/>
<path d="M0 0 C1.32 0 2.64 0 4 0 C3.34 1.32 2.68 2.64 2 4 C0.35 4 -1.3 4 -3 4 C-1.75 2 -1.75 2 0 0 Z " fill="#F4EACE" transform="translate(413,803)"/>
<path d="M0 0 C3.81684226 1.55500981 6.19195732 4.03595495 9 7 C5.56072421 5.7580393 2.74792181 4.44259716 0 2 C0 1.34 0 0.68 0 0 Z " fill="#F5EBCF" transform="translate(0,532)"/>
<path d="M0 0 C0.66 0.99 1.32 1.98 2 3 C0.02253397 3.73080266 -1.98072489 4.39421747 -4 5 C-4.66 4.67 -5.32 4.34 -6 4 C-4.02 2.68 -2.04 1.36 0 0 Z " fill="#F5EBCF" transform="translate(1084,230)"/>
<path d="M0 0 C-3.5486135 2.36574234 -4.5764525 2.10865265 -8.6875 1.625 C-10.17830078 1.45871094 -10.17830078 1.45871094 -11.69921875 1.2890625 C-12.45847656 1.19367188 -13.21773437 1.09828125 -14 1 C-14 0.67 -14 0.34 -14 0 C-12.2300132 -0.19532961 -10.45895721 -0.38098882 -8.6875 -0.5625 C-7.70136719 -0.66691406 -6.71523438 -0.77132812 -5.69921875 -0.87890625 C-3 -1 -3 -1 0 0 Z " fill="#F5EBCF" transform="translate(756,177)"/>
<path d="M0 0 C0 3.93169105 -1.39419615 5.16427228 -4 8 C-4.66 8 -5.32 8 -6 8 C-4.55746343 4.63408134 -2.66735273 2.48952921 0 0 Z " fill="#F5EBCF" transform="translate(294,725)"/>
<path d="M0 0 C0.33 1.32 0.66 2.64 1 4 C-0.875 4.625 -0.875 4.625 -3 5 C-3.66 4.34 -4.32 3.68 -5 3 C-3.35 2.01 -1.7 1.02 0 0 Z " fill="#F4EBCE" transform="translate(1299,167)"/>
<path d="M0 0 C0.66 0 1.32 0 2 0 C0.95125002 2.62187494 0.35068687 3.79371361 -2.125 5.25 C-2.74375 5.4975 -3.3625 5.745 -4 6 C-2.84826645 3.53199953 -1.95216435 1.95216435 0 0 Z " fill="#F4EACE" transform="translate(1213,45)"/>
</svg>
