<svg width="17" height="31" viewBox="0 0 17 31" fill="none" xmlns="http://www.w3.org/2000/svg">
<g clip-path="url(#clip0_6511_1036)">
<path d="M11.6596 11.852C11.2596 11.852 10.937 12.1746 10.937 12.5746C10.937 12.9746 11.2596 13.2972 11.6596 13.2972C12.0596 13.2972 12.3822 12.9746 12.3822 12.5746C12.3822 12.1746 12.0596 11.852 11.6596 11.852ZM8.43378 12.7811C6.75636 12.7811 5.38862 14.1488 5.38862 15.8262C5.38862 17.5036 6.75636 18.8714 8.43378 18.8714C10.1112 18.8714 11.4789 17.5036 11.4789 15.8262C11.4789 14.1488 10.1112 12.7811 8.43378 12.7811ZM8.43378 17.7875C7.34991 17.7875 6.4854 16.9101 6.4854 15.8391C6.4854 14.7552 7.36281 13.8907 8.43378 13.8907C9.51765 13.8907 10.3822 14.7682 10.3822 15.8391C10.3822 16.9101 9.50475 17.7875 8.43378 17.7875ZM14.5886 13.2972C14.5886 11.2456 12.9241 9.58105 10.8725 9.58105H5.95636C3.90475 9.58105 2.24023 11.2456 2.24023 13.2972V18.2133C2.24023 20.2649 3.90475 21.9294 5.95636 21.9294H10.8596C12.9112 21.9294 14.5757 20.2649 14.5757 18.2133V13.2972H14.5886ZM13.4144 18.2004C13.4144 19.6069 12.266 20.7552 10.8596 20.7552H5.95636C4.54991 20.7552 3.40152 19.6069 3.40152 18.2004V13.2972C3.40152 11.8778 4.53701 10.7423 5.95636 10.7423H10.8596C12.266 10.7423 13.4144 11.8907 13.4144 13.2972V18.2004Z" fill="white"/>
</g>
<defs>
<clipPath id="clip0_6511_1036">
<rect width="16" height="30" fill="white" transform="translate(0.408203 0.516602)"/>
</clipPath>
</defs>
</svg>
