<svg width="17" height="18" viewBox="0 0 17 18" fill="none" xmlns="http://www.w3.org/2000/svg">
<g clip-path="url(#clip0_6511_913)">
<mask id="mask0_6511_913" style="mask-type:luminance" maskUnits="userSpaceOnUse" x="0" y="1" width="17" height="17">
<path d="M16.4375 1.26758H0.4375V17.2676H16.4375V1.26758Z" fill="white"/>
</mask>
<g mask="url(#mask0_6511_913)">
<path d="M8.43828 17.273L7.97161 16.873C7.32828 16.3344 1.71094 11.483 1.71094 7.93436C1.71094 6.15016 2.41972 4.43904 3.68133 3.17742C4.94295 1.9158 6.65408 1.20703 8.43828 1.20703C10.2225 1.20703 11.9336 1.9158 13.1953 3.17742C14.4569 4.43904 15.1656 6.15016 15.1656 7.93436C15.1656 11.483 9.54828 16.3344 8.90761 16.8757L8.43828 17.273ZM8.43828 2.6617C7.04037 2.66328 5.70017 3.21931 4.71169 4.20778C3.72322 5.19625 3.1672 6.53645 3.16561 7.93436C3.16561 10.1637 6.62161 13.725 8.43828 15.355C10.2549 13.7244 13.711 10.161 13.711 7.93436C13.7094 6.53645 13.1534 5.19625 12.1649 4.20778C11.1764 3.21931 9.83619 2.66328 8.43828 2.6617Z" fill="#3BB77E"/>
<path d="M8.43815 10.6009C7.91073 10.6009 7.39516 10.4445 6.95663 10.1515C6.5181 9.85848 6.17631 9.442 5.97447 8.95473C5.77264 8.46746 5.71983 7.93129 5.82272 7.414C5.92562 6.89672 6.17959 6.42157 6.55253 6.04863C6.92547 5.67569 7.40063 5.42171 7.91791 5.31882C8.43519 5.21592 8.97137 5.26873 9.45864 5.47057C9.94591 5.6724 10.3624 6.01419 10.6554 6.45272C10.9484 6.89125 11.1048 7.40683 11.1048 7.93424C11.1048 8.64149 10.8238 9.31977 10.3238 9.81986C9.82367 10.32 9.1454 10.6009 8.43815 10.6009ZM8.43815 6.60091C8.17444 6.60091 7.91666 6.67911 7.69739 6.82562C7.47813 6.97213 7.30723 7.18037 7.20631 7.424C7.1054 7.66763 7.07899 7.93572 7.13044 8.19436C7.18188 8.45301 7.30887 8.69058 7.49534 8.87705C7.68181 9.06352 7.91939 9.19051 8.17803 9.24196C8.43667 9.29341 8.70476 9.267 8.9484 9.16608C9.19203 9.06517 9.40027 8.89427 9.54678 8.675C9.69329 8.45574 9.77149 8.19795 9.77149 7.93424C9.77149 7.58062 9.63101 7.24148 9.38096 6.99144C9.13091 6.74139 8.79177 6.60091 8.43815 6.60091Z" fill="#3BB77E"/>
</g>
</g>
<defs>
<clipPath id="clip0_6511_913">
<rect width="16" height="17" fill="white" transform="translate(0.4375 0.516602)"/>
</clipPath>
</defs>
</svg>
