<svg width="216" height="67" viewBox="0 0 216 67" fill="none" xmlns="http://www.w3.org/2000/svg">
<g clip-path="url(#clip0_6511_890)">
<g clip-path="url(#clip1_6511_890)">
<mask id="mask0_6511_890" style="mask-type:luminance" maskUnits="userSpaceOnUse" x="0" y="6" width="79" height="61">
<path d="M78.4376 6.5166H0.4375V66.5166H78.4376V6.5166Z" fill="white"/>
</mask>
<g mask="url(#mask0_6511_890)">
<path opacity="0.8" d="M58.884 46.4571C66.3105 47.2263 73.2247 39.2206 74.3272 28.576C75.4297 17.9313 70.3031 8.67852 62.8766 7.90933C55.4501 7.14015 48.5359 15.1458 47.4334 25.7905C46.3309 36.4352 51.4575 45.6879 58.884 46.4571Z" fill="#FDC040"/>
<path d="M47.7529 51.5598C54.8186 49.1474 57.7435 38.9817 54.2857 28.8541C50.8279 18.7265 42.2969 12.472 35.2312 14.8844C28.1654 17.2968 25.2406 27.4625 28.6983 37.5901C32.1561 47.7177 40.6871 53.9722 47.7529 51.5598Z" fill="#FDC040"/>
<path d="M27.4375 39.5166H75.5084C75.8921 39.6833 76.7745 40.3166 77.2348 41.5166C77.8103 43.0166 79.4375 65.0166 51.9375 60.5166C30.2999 60.5166 25.2509 59.8499 25.4427 59.5166C29.4375 58.5166 29.9375 54.5166 30.4375 51.5166C30.9375 48.5166 27.4375 39.5166 27.4375 39.5166Z" fill="#81B13D"/>
<path d="M63.5547 18.9487C62.9235 18.9487 62.4121 19.4603 62.4121 20.0913V20.2738C62.4121 20.905 62.9235 21.4164 63.5547 21.4164C64.1859 21.4164 64.6973 20.905 64.6973 20.2738V20.0913C64.6973 19.4601 64.1859 18.9487 63.5547 18.9487Z" fill="#253D4E"/>
<path d="M66.5215 24.0464C65.8904 24.0464 65.3789 24.5578 65.3789 25.1889V25.3714C65.3789 26.0025 65.8904 26.514 66.5215 26.514C67.1527 26.514 67.6641 26.0026 67.6641 25.3714V25.1889C67.6641 24.5578 67.1527 24.0464 66.5215 24.0464Z" fill="#253D4E"/>
<path d="M41.5039 22.9734L41.4193 22.8115C41.1273 22.2519 40.4367 22.0351 39.8778 22.3273C39.3183 22.6194 39.1016 23.3095 39.3936 23.8689L39.4782 24.0308C39.6818 24.4214 40.0799 24.6451 40.4919 24.6451C40.6701 24.6451 40.8508 24.6033 41.0197 24.515C41.5791 24.2229 41.7959 23.5328 41.5039 22.9734Z" fill="#253D4E"/>
<path d="M46.4941 26.1184L46.4095 25.9565C46.1175 25.3969 45.4271 25.1801 44.868 25.4723C44.3085 25.7644 44.0918 26.4545 44.3838 27.0139L44.4684 27.1759C44.672 27.5665 45.07 27.7901 45.4821 27.7901C45.6603 27.7901 45.841 27.7484 46.0099 27.66C46.5693 27.368 46.7861 26.6778 46.4941 26.1184Z" fill="#253D4E"/>
<path d="M39.3842 48.8506L35.9857 45.4519C35.5394 45.0057 34.8159 45.0056 34.37 45.4518C33.9236 45.898 33.9236 46.6215 34.3698 47.0675L37.7683 50.4662C37.9915 50.6894 38.2837 50.8009 38.5762 50.8009C38.8685 50.8009 39.161 50.6894 39.3841 50.4664C39.8304 50.0201 39.8304 49.2967 39.3842 48.8506Z" fill="#253D4E"/>
<path d="M49.483 46.7213C49.1172 46.2073 48.404 46.0869 47.8896 46.4531L36.0288 54.8973C35.5148 55.2632 35.3947 55.9767 35.7607 56.4907C35.9835 56.8039 36.3351 56.9707 36.6924 56.9707C36.9215 56.9707 37.1531 56.9019 37.354 56.7588L49.2148 48.3146C49.7288 47.9487 49.8489 47.2353 49.483 46.7213Z" fill="#253D4E"/>
<path d="M53.675 48.4444C53.3094 47.9304 52.596 47.8101 52.0816 48.1763L47.5288 51.4176C47.0147 51.7838 46.8948 52.4971 47.2607 53.0111C47.4836 53.3243 47.8352 53.4912 48.1924 53.4912C48.4216 53.4912 48.653 53.4223 48.8541 53.2791L53.4069 50.0378C53.921 49.6719 54.0409 48.9585 53.675 48.4444Z" fill="#253D4E"/>
<path d="M78.2217 43.2606C77.8524 42.7487 77.1385 42.6332 76.6265 43.002L76.2459 43.2764C76.2475 43.1784 76.2497 43.0806 76.2497 42.9824C76.2497 41.8924 75.8256 40.8668 75.0532 40.0923C74.281 39.322 73.2553 38.8979 72.1654 38.8979H71.8272C73.0811 36.4751 73.7178 33.5577 73.7178 30.1898C73.7178 23.5849 71.2419 16.3653 67.4103 11.7973C67.0046 11.3137 66.284 11.2504 65.8006 11.6562C65.3172 12.0618 65.254 12.7825 65.6595 13.2659C69.1666 17.4468 71.4328 24.09 71.4328 30.1898C71.4328 33.7052 70.6771 36.6311 69.1868 38.8979H66.9246L67.9297 38.1823C68.4439 37.8164 68.5638 37.1029 68.1979 36.5889C67.8321 36.0749 67.119 35.9546 66.6045 36.3208L62.9848 38.8979H56.1884C56.8733 35.4285 56.1599 31.5526 54.09 27.5877C52.6083 24.7504 50.504 22.005 48.0834 19.679C50.5766 13.3727 54.7027 9.33839 58.7231 9.33839C59.9373 9.33839 61.1609 9.69167 62.3597 10.3888C62.9053 10.7057 63.6047 10.5206 63.9219 9.97519C64.2389 9.42964 64.0538 8.73023 63.5083 8.41305C61.956 7.51071 60.346 7.05322 58.7231 7.05322C53.8592 7.05322 49.1822 11.2327 46.2741 18.0684C45.2836 17.2534 44.2571 16.5123 43.2114 15.8666C38.2893 12.8267 33.6284 12.1707 30.0878 14.0191C26.822 15.7258 24.7302 19.5102 24.1973 24.6751C24.1324 25.3028 24.5888 25.8642 25.2164 25.9288C25.8456 25.9946 26.4056 25.5371 26.4701 24.9096C26.9218 20.5326 28.5823 17.3842 31.1455 16.0445C37.3862 12.7865 47.6926 20.2742 52.0643 28.6454C54.0087 32.3699 54.6069 35.8141 53.8499 38.898H41.0394C41.0362 38.898 41.0332 38.898 41.03 38.898H35.1751L33.2575 36.9805C32.8111 36.5344 32.0878 36.5344 31.6416 36.9805C31.1954 37.4268 31.1954 38.1502 31.6416 38.5964L31.9431 38.8979H28.8063C27.5336 36.0053 26.6969 32.6837 26.4375 29.4615C26.3869 28.8326 25.8366 28.3623 25.207 28.4143C24.578 28.4649 24.1092 29.0157 24.1598 29.6448C24.3705 32.2633 24.911 34.8688 25.7452 37.3278C22.4887 34.5528 18.2351 33.0615 13.8556 33.2994C13.4474 33.3216 13.082 33.5603 12.8979 33.9252C11.1796 37.3275 10.6965 41.1678 11.4091 44.8046C11.4158 44.9149 11.4376 45.0208 11.4733 45.1202C11.6972 46.1579 12.0202 47.1769 12.4394 48.163C7.54892 48.9215 3.20603 51.8041 0.602919 56.098C0.391007 56.4475 0.382171 56.8837 0.579458 57.2418C2.42054 60.5831 5.32256 63.1502 8.73188 64.6129C8.82283 64.6662 8.91774 64.7066 9.01539 64.7325C10.8982 65.5001 12.9285 65.9339 15.0164 65.977C15.1308 65.9794 15.244 65.9805 15.3581 65.9805C16.1708 65.9805 16.976 65.9191 17.7692 65.8038C17.8439 65.7993 17.9181 65.7897 17.9901 65.771C21.3484 65.2367 24.4706 63.6946 26.9355 61.3775C26.9914 61.3859 27.0481 61.3917 27.1063 61.3917H32.2333C32.8644 61.3917 33.3759 60.8803 33.3759 60.2491C33.3759 59.618 32.8644 59.1065 32.2333 59.1065H28.9527C29.2525 58.7001 29.5366 58.2795 29.8011 57.8431C29.8092 57.8297 29.8157 57.8157 29.8232 57.8022C29.83 57.7898 29.8383 57.7786 29.8447 57.7658C32.506 52.4934 32.2048 46.1699 29.0778 41.183H34.2282L37.339 44.2938C37.5621 44.5168 37.8546 44.6283 38.147 44.6283C38.4393 44.6283 38.7318 44.5168 38.955 44.2938C39.4012 43.8474 39.4012 43.1241 38.955 42.6778L37.4602 41.183H40.5615L44.8034 45.4249C45.0266 45.648 45.3191 45.7595 45.6114 45.7595C45.9038 45.7595 46.1963 45.648 46.4195 45.4249C46.8657 44.9786 46.8657 44.2552 46.4195 43.809L43.7936 41.1832H54.7082L54.712 41.1835L54.7158 41.1832H59.7754L57.2809 42.9591C56.7667 43.325 56.6468 44.0384 57.0127 44.5524C57.2356 44.8657 57.5872 45.0325 57.9445 45.0325C58.1736 45.0325 58.405 44.9636 58.6061 44.8204L63.7151 41.183H69.7821L69.7841 41.1832L69.7867 41.183H72.1662C72.6468 41.183 73.0994 41.3703 73.4382 41.708C73.7781 42.0488 73.9653 42.5014 73.9653 42.9822C73.9653 43.6701 73.9218 44.3478 73.8378 45.0133L65.4482 51.0626C64.9365 51.4317 64.8207 52.1458 65.1897 52.6578C65.4132 52.9675 65.7628 53.1322 66.1175 53.1322C66.349 53.1322 66.5827 53.062 66.7849 52.9163L73.021 48.4199C71.7751 51.8869 69.3735 54.8071 66.2828 56.7141L53.5407 43.972C53.0943 43.5259 52.371 43.5259 51.9247 43.972C51.4785 44.4184 51.4785 45.1417 51.9247 45.5879L64.1548 57.818C62.4987 58.5255 60.7009 58.9629 58.817 59.0759L53.8357 54.0949C53.3897 53.6488 52.6662 53.6486 52.22 54.095C51.7738 54.5412 51.7738 55.2646 52.2201 55.7108L55.6157 59.1062H44.43L42.5968 57.2731C42.1505 56.827 41.4271 56.827 40.9809 57.2731C40.5347 57.7194 40.5347 58.4428 40.9809 58.889L41.1981 59.1062H36.9936C36.3624 59.1062 35.851 59.6177 35.851 60.2488C35.851 60.88 36.3624 61.3914 36.9936 61.3914H43.4823L46.0593 63.9685C46.2825 64.1915 46.575 64.303 46.8674 64.303C47.1597 64.303 47.4522 64.1915 47.6754 63.9685C48.1216 63.5221 48.1216 62.7988 47.6754 62.3525L46.7142 61.3914H57.8389C60.7194 61.3914 63.4472 60.7258 65.8775 59.5415L66.8373 60.5013C67.0605 60.7243 67.353 60.8358 67.6453 60.8358C67.9377 60.8358 68.2302 60.7243 68.4534 60.5013C68.8996 60.0549 68.8996 59.3316 68.4534 58.8853L67.936 58.368C72.0555 55.6559 75.0264 51.3364 75.948 46.3087L77.9633 44.8556C78.4749 44.4866 78.5907 43.7726 78.2217 43.2606ZM26.9973 42.1679C27.1255 42.364 27.2467 42.5634 27.3646 42.7644L24.4724 48.5033L21.17 43.4501L23.4812 38.4445C24.8462 39.4558 26.0435 40.7085 26.9973 42.1679ZM23.2212 50.7658L16.9222 51.083C16.4976 50.5932 16.1026 50.0731 15.743 49.5228C14.9917 48.3731 14.4184 47.1367 14.0235 45.8542L19.9482 45.7575L23.2212 50.7658ZM21.5282 37.2228L19.695 41.1929L16.0515 35.6177C17.9782 35.7888 19.8384 36.3418 21.5282 37.2228ZM14.1379 36.8665L18.4705 43.4961L13.5162 43.577C13.2027 41.3401 13.4065 39.0383 14.1379 36.8665ZM13.5473 50.3243C13.6392 50.4747 13.7332 50.6244 13.83 50.7728C14.3377 51.5496 14.9054 52.2749 15.5234 52.9469C15.5685 53.0056 15.6192 53.0595 15.6745 53.1084C16.7008 54.1954 17.8617 55.1354 19.1219 55.909L13.1104 55.7854L10.2762 51.0451C11.3257 50.6826 12.4221 50.4387 13.5473 50.3243ZM8.16424 51.9657L10.4147 55.7298L3.75295 55.5929C4.98054 54.0935 6.48251 52.8648 8.16424 51.9657ZM8.89747 62.1763C6.87358 61.1731 5.08795 59.7063 3.7077 57.8774L11.6255 58.0403L8.89747 62.1763ZM17.0162 63.5987C16.3722 63.6732 15.7199 63.7054 15.0628 63.6924C13.6897 63.6639 12.3453 63.4397 11.0639 63.0422L14.3264 58.0957L20.3079 58.2187L17.0162 63.5987ZM20.1318 62.885L22.9535 58.2732L26.4219 58.3445C26.4932 58.3511 26.5648 58.3558 26.6363 58.3614C24.9169 60.4487 22.6555 62.0078 20.1318 62.885ZM26.5554 56.0618C23.9043 55.802 21.3839 54.819 19.2672 53.253L24.6686 52.9809L26.6837 56.0644L26.5554 56.0618ZM28.6031 54.8243L25.9171 50.7142L28.5831 45.424C29.6149 48.4525 29.632 51.7672 28.6031 54.8243Z" fill="#253D4E"/>
<path d="M67.0077 45.2194C66.6385 44.7075 65.9244 44.5921 65.4127 44.961L61.3864 47.8643C60.8746 48.2333 60.7589 48.9473 61.128 49.4593C61.3513 49.769 61.701 49.9337 62.0556 49.9337C62.2873 49.9337 62.5209 49.8635 62.723 49.7177L66.7494 46.8145C67.2611 46.4455 67.3769 45.7314 67.0077 45.2194Z" fill="#253D4E"/>
</g>
<path d="M95.4716 61.5168L95.4607 56.4592L92.9537 60.6448H92.3215L89.8145 56.5246V61.5168H88.4629V53.8868H89.6292L92.6594 58.9444L95.6351 53.8868H96.8014L96.8123 61.5168H95.4716ZM104.912 59.751H101.097L100.345 61.5168H98.8842L102.317 53.8868H103.713L107.157 61.5168H105.675L104.912 59.751ZM104.443 58.6392L103.004 55.3038L101.576 58.6392H104.443ZM114.21 61.5168L112.651 59.2823C112.585 59.2896 112.487 59.2932 112.357 59.2932H110.634V61.5168H109.217V53.8868H112.357C113.018 53.8868 113.592 53.9958 114.079 54.2138C114.573 54.4318 114.951 54.7443 115.212 55.1512C115.474 55.5581 115.605 56.0414 115.605 56.6009C115.605 57.175 115.463 57.6691 115.18 58.0833C114.903 58.4975 114.504 58.8063 113.981 59.0098L115.736 61.5168H114.21ZM114.177 56.6009C114.177 56.114 114.017 55.7398 113.697 55.4782C113.377 55.2166 112.909 55.0858 112.291 55.0858H110.634V58.1269H112.291C112.909 58.1269 113.377 57.9961 113.697 57.7345C114.017 57.4656 114.177 57.0878 114.177 56.6009ZM119.721 55.0858H117.193V53.8868H123.667V55.0858H121.138V61.5168H119.721V55.0858ZM135.646 61.6367L134.686 60.7102C133.974 61.3206 133.12 61.6258 132.125 61.6258C131.594 61.6258 131.118 61.5386 130.697 61.3642C130.275 61.1898 129.945 60.95 129.705 60.6448C129.465 60.3323 129.345 59.9799 129.345 59.5875C129.345 59.1152 129.483 58.701 129.76 58.3449C130.036 57.9816 130.486 57.6255 131.111 57.2767C130.806 56.9715 130.588 56.6881 130.457 56.4265C130.326 56.1576 130.261 55.8815 130.261 55.5981C130.261 55.0604 130.461 54.628 130.86 54.301C131.267 53.9667 131.805 53.7996 132.474 53.7996C133.091 53.7996 133.585 53.9522 133.956 54.2574C134.327 54.5553 134.512 54.9623 134.512 55.4782C134.512 55.8706 134.388 56.2194 134.141 56.5246C133.902 56.8298 133.506 57.1386 132.953 57.4511L134.599 59.0207C134.781 58.6646 134.923 58.2359 135.024 57.7345L136.125 58.0942C135.98 58.77 135.751 59.3513 135.438 59.8382L136.398 60.7538L135.646 61.6367ZM132.474 54.7697C132.176 54.7697 131.94 54.846 131.765 54.9986C131.591 55.1439 131.504 55.3365 131.504 55.5763C131.504 55.7507 131.551 55.9178 131.645 56.0777C131.74 56.2303 131.921 56.441 132.19 56.7099C132.626 56.4701 132.928 56.263 133.095 56.0886C133.269 55.9069 133.357 55.7107 133.357 55.5C133.357 55.2747 133.277 55.0967 133.117 54.9659C132.964 54.8351 132.75 54.7697 132.474 54.7697ZM132.223 60.514C132.855 60.514 133.407 60.3214 133.88 59.9363L131.863 58.007C131.427 58.2468 131.118 58.4793 130.937 58.7046C130.762 58.9226 130.675 59.1697 130.675 59.4458C130.675 59.7655 130.817 60.0235 131.1 60.2197C131.384 60.4159 131.758 60.514 132.223 60.514ZM148.022 57.6146H149.362V60.6557C148.97 60.9682 148.512 61.208 147.989 61.3751C147.466 61.5422 146.928 61.6258 146.376 61.6258C145.598 61.6258 144.897 61.4587 144.272 61.1244C143.647 60.7829 143.157 60.3142 142.801 59.7183C142.444 59.1224 142.266 58.4503 142.266 57.7018C142.266 56.9533 142.444 56.2812 142.801 55.6853C143.157 55.0894 143.647 54.6244 144.272 54.2901C144.904 53.9486 145.613 53.7778 146.398 53.7778C147.037 53.7778 147.618 53.8832 148.142 54.0939C148.665 54.3046 149.104 54.6135 149.46 55.0204L148.567 55.8924C147.985 55.3111 147.284 55.0204 146.463 55.0204C145.925 55.0204 145.446 55.133 145.024 55.3583C144.61 55.5836 144.283 55.8997 144.043 56.3066C143.811 56.7135 143.694 57.1786 143.694 57.7018C143.694 58.2105 143.811 58.6683 144.043 59.0752C144.283 59.4821 144.61 59.8019 145.024 60.0344C145.446 60.2669 145.922 60.3832 146.452 60.3832C147.048 60.3832 147.571 60.2524 148.022 59.9908V57.6146ZM157.313 61.5168L155.755 59.2823C155.689 59.2896 155.591 59.2932 155.46 59.2932H153.738V61.5168H152.321V53.8868H155.46C156.122 53.8868 156.696 53.9958 157.183 54.2138C157.677 54.4318 158.055 54.7443 158.316 55.1512C158.578 55.5581 158.709 56.0414 158.709 56.6009C158.709 57.175 158.567 57.6691 158.284 58.0833C158.007 58.4975 157.608 58.8063 157.085 59.0098L158.839 61.5168H157.313ZM157.281 56.6009C157.281 56.114 157.121 55.7398 156.801 55.4782C156.481 55.2166 156.013 55.0858 155.395 55.0858H153.738V58.1269H155.395C156.013 58.1269 156.481 57.9961 156.801 57.7345C157.121 57.4656 157.281 57.0878 157.281 56.6009ZM164.948 61.6258C164.171 61.6258 163.47 61.4587 162.845 61.1244C162.22 60.7829 161.729 60.3142 161.373 59.7183C161.017 59.1152 160.839 58.443 160.839 57.7018C160.839 56.9606 161.017 56.2921 161.373 55.6962C161.729 55.0931 162.22 54.6244 162.845 54.2901C163.47 53.9486 164.171 53.7778 164.948 53.7778C165.726 53.7778 166.427 53.9486 167.052 54.2901C167.677 54.6244 168.167 55.0894 168.524 55.6853C168.88 56.2812 169.058 56.9533 169.058 57.7018C169.058 58.4503 168.88 59.1224 168.524 59.7183C168.167 60.3142 167.677 60.7829 167.052 61.1244C166.427 61.4587 165.726 61.6258 164.948 61.6258ZM164.948 60.3832C165.457 60.3832 165.915 60.2706 166.322 60.0453C166.729 59.8128 167.048 59.493 167.281 59.0861C167.513 58.6719 167.63 58.2105 167.63 57.7018C167.63 57.1931 167.513 56.7353 167.281 56.3284C167.048 55.9142 166.729 55.5945 166.322 55.3692C165.915 55.1367 165.457 55.0204 164.948 55.0204C164.44 55.0204 163.982 55.1367 163.575 55.3692C163.168 55.5945 162.848 55.9142 162.616 56.3284C162.383 56.7353 162.267 57.1931 162.267 57.7018C162.267 58.2105 162.383 58.6719 162.616 59.0861C162.848 59.493 163.168 59.8128 163.575 60.0453C163.982 60.2706 164.44 60.3832 164.948 60.3832ZM175.181 61.6258C174.411 61.6258 173.713 61.4587 173.088 61.1244C172.471 60.7829 171.984 60.3142 171.628 59.7183C171.279 59.1224 171.105 58.4503 171.105 57.7018C171.105 56.9533 171.283 56.2812 171.639 55.6853C171.995 55.0894 172.482 54.6244 173.099 54.2901C173.724 53.9486 174.422 53.7778 175.192 53.7778C175.817 53.7778 176.387 53.8868 176.903 54.1048C177.419 54.3228 177.855 54.6389 178.211 55.0531L177.296 55.9142C176.744 55.3183 176.064 55.0204 175.258 55.0204C174.734 55.0204 174.266 55.1367 173.851 55.3692C173.437 55.5945 173.114 55.9106 172.881 56.3175C172.649 56.7244 172.533 57.1859 172.533 57.7018C172.533 58.2177 172.649 58.6792 172.881 59.0861C173.114 59.493 173.437 59.8128 173.851 60.0453C174.266 60.2706 174.734 60.3832 175.258 60.3832C176.064 60.3832 176.744 60.0816 177.296 59.4785L178.211 60.3505C177.855 60.7647 177.416 61.0808 176.893 61.2988C176.377 61.5168 175.806 61.6258 175.181 61.6258ZM186.382 60.3287V61.5168H180.659V53.8868H186.229V55.0749H182.076V57.0587H185.76V58.225H182.076V60.3287H186.382ZM194.043 61.5168L192.485 59.2823C192.419 59.2896 192.321 59.2932 192.19 59.2932H190.468V61.5168H189.051V53.8868H192.19C192.852 53.8868 193.426 53.9958 193.913 54.2138C194.407 54.4318 194.785 54.7443 195.046 55.1512C195.308 55.5581 195.439 56.0414 195.439 56.6009C195.439 57.175 195.297 57.6691 195.014 58.0833C194.737 58.4975 194.338 58.8063 193.815 59.0098L195.569 61.5168H194.043ZM194.011 56.6009C194.011 56.114 193.851 55.7398 193.531 55.4782C193.211 55.2166 192.743 55.0858 192.125 55.0858H190.468V58.1269H192.125C192.743 58.1269 193.211 57.9961 193.531 57.7345C193.851 57.4656 194.011 57.0878 194.011 56.6009ZM201.299 58.8245V61.5168H199.882V58.8463L196.885 53.8868H198.4L200.634 57.6037L202.891 53.8868H204.286L201.299 58.8245Z" fill="#253D4E"/>
<path d="M118.07 7.6665C118.958 7.6665 119.68 7.9625 120.235 8.5545C120.79 9.1465 121.067 9.8865 121.067 10.7745V43.131C121.067 44.093 120.734 44.907 120.068 45.573C119.439 46.202 118.644 46.5165 117.682 46.5165C117.201 46.5165 116.701 46.4425 116.183 46.2945C115.702 46.1095 115.332 45.869 115.073 45.573L93.2616 17.8785L94.7046 16.9905V43.4085C94.7046 44.2965 94.4086 45.0365 93.8166 45.6285C93.2616 46.2205 92.5216 46.5165 91.5966 46.5165C90.7086 46.5165 89.9871 46.2205 89.4321 45.6285C88.8771 45.0365 88.5996 44.2965 88.5996 43.4085V11.052C88.5996 10.09 88.9141 9.2945 89.5431 8.6655C90.2091 7.9995 91.0231 7.6665 91.9851 7.6665C92.5031 7.6665 93.0396 7.7775 93.5946 7.9995C94.1496 8.1845 94.5566 8.4805 94.8156 8.8875L115.961 35.8605L115.017 36.5265V10.7745C115.017 9.8865 115.295 9.1465 115.85 8.5545C116.405 7.9625 117.145 7.6665 118.07 7.6665ZM142.543 47.0715C139.398 47.0715 136.66 46.424 134.329 45.129C132.035 43.797 130.259 42.0025 129.001 39.7455C127.78 37.4885 127.169 34.9355 127.169 32.0865C127.169 28.7565 127.835 25.926 129.167 23.595C130.536 21.227 132.312 19.414 134.495 18.156C136.678 16.898 138.991 16.269 141.433 16.269C143.32 16.269 145.096 16.6575 146.761 17.4345C148.463 18.2115 149.961 19.2845 151.256 20.6535C152.551 21.9855 153.569 23.5395 154.309 25.3155C155.086 27.0915 155.474 28.9785 155.474 30.9765C155.437 31.8645 155.086 32.586 154.42 33.141C153.754 33.696 152.977 33.9735 152.089 33.9735H130.888L129.223 28.4235H149.591L148.37 29.5335V28.035C148.296 26.962 147.908 26 147.205 25.149C146.539 24.298 145.688 23.632 144.652 23.151C143.653 22.633 142.58 22.374 141.433 22.374C140.323 22.374 139.287 22.522 138.325 22.818C137.363 23.114 136.53 23.6135 135.827 24.3165C135.124 25.0195 134.569 25.963 134.162 27.147C133.755 28.331 133.552 29.8295 133.552 31.6425C133.552 33.6405 133.959 35.3425 134.773 36.7485C135.624 38.1175 136.697 39.172 137.992 39.912C139.324 40.615 140.73 40.9665 142.21 40.9665C143.579 40.9665 144.67 40.8555 145.484 40.6335C146.298 40.4115 146.946 40.1525 147.427 39.8565C147.945 39.5235 148.407 39.246 148.814 39.024C149.48 38.691 150.109 38.5245 150.701 38.5245C151.515 38.5245 152.181 38.802 152.699 39.357C153.254 39.912 153.532 40.5595 153.532 41.2995C153.532 42.2985 153.014 43.205 151.978 44.019C151.016 44.833 149.665 45.5545 147.926 46.1835C146.187 46.7755 144.393 47.0715 142.543 47.0715ZM159.286 41.91C158.916 41.392 158.749 40.726 158.786 39.912C158.823 39.098 159.304 38.395 160.229 37.803C160.821 37.433 161.45 37.285 162.116 37.359C162.782 37.396 163.43 37.729 164.059 38.358C165.132 39.431 166.26 40.2635 167.444 40.8555C168.628 41.4475 170.108 41.7435 171.884 41.7435C172.439 41.7065 173.05 41.6325 173.716 41.5215C174.382 41.3735 174.955 41.0775 175.436 40.6335C175.954 40.1525 176.213 39.431 176.213 38.469C176.213 37.655 175.936 37.0075 175.381 36.5265C174.826 36.0455 174.086 35.6385 173.161 35.3055C172.273 34.9725 171.274 34.658 170.164 34.362C169.017 34.029 167.833 33.659 166.612 33.252C165.428 32.845 164.336 32.327 163.337 31.698C162.338 31.032 161.524 30.1625 160.895 29.0895C160.266 28.0165 159.952 26.666 159.952 25.038C159.952 23.188 160.47 21.6155 161.506 20.3205C162.542 19.0255 163.874 18.0265 165.502 17.3235C167.167 16.6205 168.906 16.269 170.719 16.269C171.866 16.269 173.068 16.417 174.326 16.713C175.584 16.972 176.787 17.416 177.934 18.045C179.081 18.637 180.043 19.4325 180.82 20.4315C181.227 20.9865 181.467 21.6525 181.541 22.4295C181.615 23.2065 181.264 23.9095 180.487 24.5385C179.932 24.9825 179.284 25.186 178.544 25.149C177.804 25.075 177.194 24.816 176.713 24.372C176.084 23.558 175.233 22.9105 174.16 22.4295C173.124 21.9485 171.921 21.708 170.552 21.708C169.997 21.708 169.387 21.782 168.721 21.93C168.092 22.041 167.537 22.3185 167.056 22.7625C166.575 23.1695 166.334 23.8355 166.334 24.7605C166.334 25.6115 166.612 26.296 167.167 26.814C167.722 27.295 168.462 27.702 169.387 28.035C170.349 28.331 171.366 28.627 172.439 28.923C173.549 29.219 174.678 29.5705 175.825 29.9775C176.972 30.3845 178.026 30.921 178.988 31.587C179.95 32.253 180.727 33.1225 181.319 34.1955C181.911 35.2315 182.207 36.5635 182.207 38.1915C182.207 40.0785 181.652 41.688 180.542 43.02C179.432 44.352 178.045 45.3695 176.38 46.0725C174.715 46.7385 173.013 47.0715 171.274 47.0715C169.091 47.0715 166.908 46.7015 164.725 45.9615C162.542 45.1845 160.729 43.834 159.286 41.91ZM188.092 17.379H201.245C202.133 17.379 202.873 17.675 203.465 18.267C204.057 18.859 204.353 19.599 204.353 20.487C204.353 21.338 204.057 22.0595 203.465 22.6515C202.873 23.2065 202.133 23.484 201.245 23.484H188.092C187.204 23.484 186.464 23.188 185.872 22.596C185.28 22.004 184.984 21.264 184.984 20.376C184.984 19.525 185.28 18.822 185.872 18.267C186.464 17.675 187.204 17.379 188.092 17.379ZM194.03 10.4415C194.992 10.4415 195.769 10.7745 196.361 11.4405C196.99 12.0695 197.305 12.865 197.305 13.827V38.5245C197.305 39.0425 197.397 39.468 197.582 39.801C197.804 40.134 198.082 40.3745 198.415 40.5225C198.785 40.6705 199.173 40.7445 199.58 40.7445C200.024 40.7445 200.431 40.6705 200.801 40.5225C201.171 40.3375 201.597 40.245 202.078 40.245C202.596 40.245 203.058 40.4855 203.465 40.9665C203.909 41.4475 204.131 42.1135 204.131 42.9645C204.131 44.0005 203.558 44.8515 202.411 45.5175C201.301 46.1835 200.098 46.5165 198.803 46.5165C198.026 46.5165 197.157 46.461 196.195 46.35C195.27 46.202 194.382 45.8875 193.531 45.4065C192.717 44.8885 192.032 44.1115 191.477 43.0755C190.922 42.0395 190.645 40.615 190.645 38.802V13.827C190.645 12.865 190.959 12.0695 191.588 11.4405C192.254 10.7745 193.068 10.4415 194.03 10.4415Z" fill="#3BB77E"/>
</g>
</g>
<defs>
<clipPath id="clip0_6511_890">
<rect width="215" height="66" fill="white" transform="translate(0.4375 0.516602)"/>
</clipPath>
<clipPath id="clip1_6511_890">
<rect width="215" height="66" fill="white" transform="translate(0.4375 0.516602)"/>
</clipPath>
</defs>
</svg>
