<svg width="17" height="31" viewBox="0 0 17 31" fill="none" xmlns="http://www.w3.org/2000/svg">
<g clip-path="url(#clip0_6511_1041)">
<path d="M9.15738 18.3297C8.4477 18.2781 8.15093 17.9297 7.59609 17.5942C7.35093 18.8845 7.05416 20.1361 6.37028 20.9877C6.16383 21.2329 5.76383 21.1168 5.75093 20.7942C5.6477 18.7297 6.35738 17.091 6.70577 15.3748C6.0477 14.2523 6.78319 12.0071 8.18964 12.5619C9.91867 13.2458 6.69287 16.7168 8.86061 17.1555C11.1187 17.5942 12.0477 13.2329 10.6413 11.8136C8.61545 9.76194 4.75738 11.7619 5.2348 14.7039C5.32512 15.2587 5.78964 15.5168 5.73803 16.0716C5.69932 16.42 5.35093 16.6136 5.04125 16.4716C4.15093 16.0587 3.86706 15.1426 3.90577 13.9684C3.98319 11.749 5.90577 10.1877 7.82835 9.96839C10.2671 9.69742 12.5509 10.8587 12.8606 13.1555C13.2219 15.7232 11.7638 18.5232 9.15738 18.3297Z" fill="white"/>
</g>
<defs>
<clipPath id="clip0_6511_1041">
<rect width="16" height="30" fill="white" transform="translate(0.408203 0.516602)"/>
</clipPath>
</defs>
</svg>
