<svg width="17" height="31" viewBox="0 0 17 31" fill="none" xmlns="http://www.w3.org/2000/svg">
<g clip-path="url(#clip0_6511_1029)">
<g clip-path="url(#clip1_6511_1029)">
<path d="M14.125 12.239C13.7637 12.4067 13.3508 12.5099 12.9637 12.5744C13.1573 12.5486 13.4282 12.2002 13.5444 12.0712C13.7121 11.8648 13.854 11.6196 13.9315 11.3615C13.9444 11.3357 13.9444 11.3099 13.9315 11.297C13.9057 11.2841 13.8927 11.297 13.8669 11.297C13.4282 11.5293 12.9766 11.7099 12.4863 11.8261C12.4476 11.839 12.4218 11.8261 12.396 11.8002C12.3573 11.7486 12.3186 11.7099 12.2798 11.6712C12.0734 11.5035 11.854 11.3615 11.6089 11.2583C11.2863 11.1293 10.925 11.0648 10.5766 11.0906C10.2411 11.1164 9.90565 11.2067 9.60888 11.3615C9.3121 11.5164 9.04113 11.7357 8.82178 12.0067C8.60242 12.2777 8.43468 12.6002 8.35726 12.9486C8.27984 13.2841 8.27984 13.6067 8.33146 13.9422C8.34436 13.9938 8.33146 14.0067 8.27984 13.9938C6.37017 13.7228 4.79597 13.0519 3.51855 11.5938C3.46694 11.5293 3.42823 11.5293 3.38952 11.5938C2.83468 12.4325 3.10565 13.7744 3.80242 14.4454C3.89275 14.5357 3.99597 14.6261 4.0992 14.7035C4.06049 14.7164 3.59597 14.6648 3.18307 14.4454C3.13146 14.4067 3.10565 14.4325 3.09275 14.497C3.09275 14.5873 3.09275 14.6648 3.10565 14.768C3.20887 15.6196 3.80242 16.4067 4.60242 16.7035C4.69275 16.7422 4.80888 16.7809 4.9121 16.7938C4.73146 16.8325 4.53791 16.8583 4.00887 16.8196C3.94436 16.8067 3.91855 16.8454 3.94436 16.897C4.33146 17.9809 5.18307 18.3035 5.82823 18.4841C5.91855 18.497 5.99597 18.497 6.08629 18.5228C6.08629 18.5357 6.07339 18.5357 6.07339 18.5357C5.86694 18.8583 5.13146 19.1035 4.78307 19.2196C4.16371 19.439 3.47984 19.5293 2.82178 19.4648C2.71855 19.4519 2.69275 19.4519 2.66694 19.4648C2.64113 19.4777 2.66694 19.5035 2.69275 19.5293C2.82178 19.6196 2.96371 19.697 3.10565 19.7744C3.51855 19.9938 3.95726 20.1744 4.40887 20.3035C6.75726 20.9486 9.41533 20.4712 11.1831 18.7164C12.5637 17.3486 13.054 15.4519 13.054 13.5422C13.054 13.4648 13.1444 13.4261 13.196 13.3873C13.5573 13.1164 13.8411 12.7938 14.1121 12.4325C14.1766 12.3551 14.1637 12.2777 14.1637 12.2519V12.239C14.1637 12.2131 14.1766 12.2131 14.125 12.239Z" fill="white"/>
<path fill-rule="evenodd" clip-rule="evenodd" d="M6.07334 20.549C6.11205 20.549 7.04108 20.549 6.07334 20.549C6.06043 20.549 6.20237 20.549 6.07334 20.549ZM6.07334 20.549C5.87979 20.549 6.06043 20.549 6.07334 20.549V20.549ZM6.46043 20.5619C6.46043 20.5361 6.66688 20.5619 6.46043 20.5619C6.46043 20.549 6.48624 20.5619 6.46043 20.5619ZM10.5379 11.1167C10.5249 11.1296 10.512 11.1296 10.4862 11.1167C10.4991 11.1167 10.5249 11.1167 10.5379 11.1167Z" fill="white"/>
</g>
</g>
<defs>
<clipPath id="clip0_6511_1029">
<rect width="16" height="30" fill="white" transform="translate(0.408203 0.516602)"/>
</clipPath>
<clipPath id="clip1_6511_1029">
<rect width="16" height="30" fill="white" transform="translate(0.408203 0.516602)"/>
</clipPath>
</defs>
</svg>
