<svg width="17" height="31" viewBox="0 0 17 31" fill="none" xmlns="http://www.w3.org/2000/svg">
<g clip-path="url(#clip0_6511_1045)">
<g clip-path="url(#clip1_6511_1045)">
<path d="M14.2407 13.9682C14.2407 12.5618 13.1052 11.4263 11.6988 11.4263H5.11811C3.71166 11.4263 2.57617 12.5618 2.57617 13.9682V17.065C2.57617 18.4714 3.71166 19.6069 5.11811 19.6069H11.6988C13.1052 19.6069 14.2407 18.4714 14.2407 17.065V13.9682ZM10.0858 15.6714L7.46649 17.1166C7.35037 17.1811 7.24714 17.0908 7.24714 16.9618V14.0069C7.24714 13.8779 7.35037 13.7876 7.46649 13.8521L10.1117 15.3618C10.2278 15.4392 10.202 15.6069 10.0858 15.6714Z" fill="white"/>
</g>
</g>
<defs>
<clipPath id="clip0_6511_1045">
<rect width="16" height="30" fill="white" transform="translate(0.408203 0.516602)"/>
</clipPath>
<clipPath id="clip1_6511_1045">
<rect width="16" height="30" fill="white" transform="translate(0.408203 0.516602)"/>
</clipPath>
</defs>
</svg>
